<?xml version="1.0" encoding="utf-8"?>
<svg viewBox="0 0 595.08 779.786" xmlns="http://www.w3.org/2000/svg">
  <defs>
    <view id="view-1" viewBox="674.831 12.846 543.636 769.947">
      <title>View 1</title>
    </view>
    <view id="view-2" viewBox="1240.606 7.927 541.177 772.406">
      <title>View 2</title>
    </view>
    <view id="view-3" viewBox="1830.707 14.213 578.074 762.567">
      <title>View 3</title>
    </view>
  </defs>
  <path style="fill: rgb(216, 216, 216); stroke: rgb(0, 0, 0);" d="M 283.932 343.308 C 294.244 337.792 293.418 315.101 295.74 309.818 C 298.065 304.54 301.309 295.19 306.437 290.045 C 316.683 279.767 322.759 276.279 335.155 267.885 C 347.552 259.492 352.855 252.724 361.382 243.014 C 367.206 236.382 378.799 227.643 384.251 220.319 C 389.701 212.992 393.063 205.377 398.158 197.868 C 402.795 191.032 406.375 177.806 409.083 171.074 C 411.791 164.342 414.081 153.721 417.894 145.913 C 423.576 134.279 425.146 121.472 432.756 112.607 C 440.364 103.745 453.158 72.11 459.56 62.42 C 463.796 56.009 476.477 46.14 483.53 40.901 C 490.583 35.662 467.281 38.754 450.414 37.927 C 442.35 37.531 432.154 30.459 424.007 31.238 C 415.862 32.015 404.701 29.205 396.958 31.745 C 373.199 39.543 363.852 56.2 356.323 74.012 C 348.793 91.823 343.078 110.788 326.585 123.201 C 316.811 130.558 306.61 137.348 296.164 143.765 C 285.719 150.184 275.031 156.231 264.285 162.098 C 244.25 173.036 221.858 179.065 199.293 184.733 C 176.729 190.4 153.99 195.704 133.268 205.197 C 126.383 208.35 120.038 210.784 112.391 214.226 C 104.743 217.67 86.762 225.492 93.067 223.079 C 99.788 220.506 78.468 228.82 73.105 231.564 C 67.742 234.305 55.625 239.194 57.072 240.713 C 68.852 253.07 90.413 251.01 99.902 255.604 C 109.388 260.198 119.007 261.039 132.421 264.995 C 150.425 270.304 155.034 272.836 164.287 275.04 C 173.541 277.245 179.563 278.236 193.247 283.163 C 204.456 287.197 209.492 282.463 224.655 290.509 C 238.156 297.671 238.458 299.778 247.111 306.721 C 254.428 312.59 258.016 322.167 265.126 331.53 C 272.238 340.896 274.444 348.383 283.932 343.308 Z" transform="matrix(0.877829, 0.478975, -0.478975, 0.877829, 123.047345, -106.804658)">
    <title>Right</title>
  </path>
  <path style="stroke: rgb(0, 0, 0); fill: rgb(216, 216, 216);" d="M 1716.252 409.21 C 1716.198 402.919 1751.232 394.054 1763.192 389.691 C 1771.295 386.735 1798.146 382.864 1806.873 381.949 C 1815.602 381.033 1836.013 378.76 1843.397 379.733 C 1856.18 381.418 1857.526 378.616 1879.658 381.476 C 1901.79 384.335 1916.183 386.023 1931.503 388.97 C 1946.306 391.818 1967.284 395.376 1979.313 394.709 C 1991.344 394.042 2006.155 394.37 2023.738 389.946 C 2039.307 386.029 2049.156 383.644 2058.709 377.018 C 2068.262 370.393 2081.747 362.275 2097.708 360.593 C 2113.03 358.978 2125.756 368.3 2131.026 375.008 C 2136.295 381.717 2147.977 385.573 2154.746 390.022 C 2163.551 395.81 2192.094 405.051 2197.882 409.21 C 2193.163 413.368 2164.62 422.609 2155.816 428.396 C 2149.047 432.845 2137.365 436.702 2132.096 443.411 C 2126.826 450.118 2114.099 459.44 2098.777 457.825 C 2082.816 456.143 2069.331 448.026 2059.779 441.4 C 2050.226 434.774 2040.377 432.39 2024.808 428.472 C 2007.225 424.048 1992.414 424.376 1980.382 423.709 C 1968.354 423.042 1947.376 426.6 1932.572 429.448 C 1917.252 432.395 1902.859 434.083 1880.727 436.942 C 1858.595 439.803 1857.25 437 1844.466 438.685 C 1837.082 439.659 1816.671 437.385 1807.943 436.469 C 1799.215 435.554 1772.364 431.683 1764.261 428.727 C 1752.301 424.364 1716.198 415.5 1716.252 409.21 Z" transform="matrix(0, 1, -1, 0, 2366.275955, -1547.857956)">
    <title>Top (new)</title>
  </path>
  <path style="fill: rgb(216, 216, 216); stroke: rgb(0, 0, 0);" d="M 929.087 244.014 C 934.542 241.377 947.875 237.593 953.89 237.777 C 961.492 238.009 966.893 237.503 974.936 236.998 C 1000.702 235.378 1026.633 230.772 1050.849 221.407 C 1086.19 207.74 1120.387 188.932 1157.58 182.431 C 1172.814 179.768 1188.288 186.266 1203.429 189.447 C 1208.171 190.443 1214.254 190.741 1216.958 194.903 C 1223.2 204.515 1224.19 215.281 1228.232 226.084 C 1230.708 232.7 1233.902 240.566 1236.5 247.131 C 1240.246 256.602 1244.235 265.976 1248.526 275.195 C 1249.801 277.933 1253.431 281.452 1251.532 283.769 C 1237.596 300.774 1213.047 312.915 1195.912 323.525 C 1185.582 329.921 1175.736 337.189 1165.096 343.013 C 1134.064 359.999 1096.123 366.596 1061.372 360.943 C 1051.708 359.37 1030.52 354.352 1023.792 349.25 C 1012.547 340.72 1006.123 340.031 994.479 332.1 C 989.226 328.522 982.903 327.019 977.191 324.304 C 957.249 314.825 936.904 306.219 914.806 304.036 C 906.809 303.247 898.786 302.662 890.755 302.477 C 889.401 302.446 875.098 305.301 872.715 302.477 C 865.517 293.945 894.885 260.54 929.087 244.014 Z" transform="matrix(0, 1, -1, 0, 1334.209465, -789.481514)">
    <title>Left wing top</title>
  </path>
  <text style="white-space: pre; fill: rgb(51, 51, 51); font-family: Arial, sans-serif; font-size: 19.3px;" x="932.071" y="188.207" transform="matrix(0, 1.069385, -1.109087, 0, 1270.766357, -716.084717)"><title>Left wing top text</title>Left Wing Top</text>
  <path style="fill: rgb(216, 216, 216); stroke: rgb(0, 0, 0);" d="M 707.702 307.479 C 713.157 310.115 726.49 313.899 732.505 313.715 C 740.107 313.483 745.508 313.989 753.551 314.495 C 779.317 316.114 805.248 320.72 829.464 330.085 C 864.805 343.752 899.002 362.56 936.195 369.062 C 951.429 371.725 966.903 365.227 982.044 362.046 C 986.786 361.05 992.869 360.751 995.573 356.589 C 1001.815 346.978 1002.805 336.212 1006.847 325.408 C 1009.323 318.792 1012.517 310.927 1015.115 304.361 C 1018.861 294.89 1022.85 285.516 1027.141 276.298 C 1028.416 273.559 1032.046 270.04 1030.147 267.723 C 1016.211 250.719 991.662 238.578 974.527 227.967 C 964.197 221.571 954.351 214.303 943.711 208.479 C 912.679 191.493 874.738 184.897 839.987 190.55 C 830.323 192.122 809.135 197.14 802.407 202.243 C 791.162 210.773 784.738 211.462 773.094 219.393 C 767.841 222.971 761.518 224.473 755.806 227.188 C 735.864 236.668 715.519 245.273 693.421 247.456 C 685.424 248.246 677.401 248.83 669.37 249.015 C 668.016 249.046 653.713 246.191 651.33 249.015 C 644.132 257.547 673.5 290.952 707.702 307.479 Z" transform="matrix(0, 1, -1, 0, 1119.589455, -561.331505)">
    <title>Left wing bottom</title>
  </path>
  <text style="white-space: pre; fill: rgb(51, 51, 51); font-family: Arial, sans-serif; font-size: 19.3px;" x="907.934" y="394.399" transform="matrix(0, 1.069385, -1.109087, 0, 1270.766357, -716.084717)"><title>Left wing bottom text</title>Left Wing Bottom</text>
  <path style="fill: rgb(216, 216, 216); stroke: rgb(0, 0, 0);" d="M 1478.679 254.786 C 1484.134 252.149 1497.467 248.365 1503.482 248.549 C 1511.085 248.781 1516.485 248.275 1524.528 247.77 C 1550.295 246.15 1576.225 241.544 1600.441 232.179 C 1635.782 218.512 1669.979 199.704 1707.172 193.203 C 1722.406 190.54 1737.88 197.038 1753.021 200.219 C 1757.763 201.215 1763.847 201.513 1766.55 205.675 C 1772.792 215.287 1773.782 226.053 1777.825 236.856 C 1780.3 243.472 1783.494 251.338 1786.092 257.903 C 1789.838 267.374 1793.827 276.748 1798.118 285.967 C 1799.393 288.705 1803.024 292.224 1801.124 294.541 C 1787.188 311.546 1762.639 323.687 1745.505 334.297 C 1735.174 340.693 1725.328 347.961 1714.688 353.785 C 1683.657 370.771 1645.715 377.368 1610.964 371.715 C 1601.3 370.142 1580.112 365.124 1573.384 360.022 C 1562.139 351.492 1555.715 350.803 1544.071 342.872 C 1538.818 339.294 1532.495 337.791 1526.783 335.076 C 1506.841 325.597 1486.496 316.991 1464.398 314.808 C 1456.402 314.019 1448.378 313.434 1440.347 313.249 C 1438.993 313.218 1424.69 316.073 1422.307 313.249 C 1415.109 304.717 1444.477 271.312 1478.679 254.786 Z" transform="matrix(0, -1, 1, 0, 1328.301712, 1894.573654)">
    <title>Right wing top</title>
  </path>
  <text style="white-space: pre; fill: rgb(51, 51, 51); font-family: Arial, sans-serif; font-size: 19.3px;" x="1348.674" y="198.003" transform="matrix(0, 1.069385, -1.109087, 0, 1827.104736, -1299.253784)"><title>Right wing top text</title>Right Wing Top</text>
  <path style="fill: rgb(216, 216, 216); stroke: rgb(0, 0, 0);" d="M 1242.828 313.823 C 1248.283 316.46 1261.616 320.244 1267.632 320.06 C 1275.234 319.828 1280.634 320.334 1288.677 320.839 C 1314.444 322.459 1340.374 327.065 1364.591 336.43 C 1399.932 350.097 1434.129 368.905 1471.322 375.407 C 1486.555 378.069 1502.029 371.571 1517.171 368.39 C 1521.912 367.394 1527.996 367.096 1530.699 362.934 C 1536.941 353.322 1537.932 342.556 1541.974 331.753 C 1544.45 325.137 1547.644 317.271 1550.241 310.706 C 1553.987 301.235 1557.976 291.861 1562.268 282.642 C 1563.542 279.904 1567.173 276.385 1565.274 274.068 C 1551.338 257.064 1526.789 244.922 1509.654 234.312 C 1499.324 227.916 1489.478 220.648 1478.837 214.824 C 1447.806 197.838 1409.864 191.241 1375.113 196.894 C 1365.449 198.467 1344.262 203.485 1337.533 208.588 C 1326.289 217.118 1319.865 217.806 1308.22 225.737 C 1302.967 229.315 1296.644 230.818 1290.933 233.533 C 1270.991 243.013 1250.646 251.618 1228.548 253.801 C 1220.551 254.59 1212.527 255.175 1204.496 255.36 C 1203.142 255.391 1188.839 252.536 1186.457 255.36 C 1179.259 263.892 1208.626 297.297 1242.828 313.823 Z" transform="matrix(0, -1, 1, 0, 1090.114075, 1661.06073)">
    <title>Right wing bottom</title>
  </path>
  <text style="white-space: pre; fill: rgb(51, 51, 51); font-family: Arial, sans-serif; font-size: 19.3px;" x="1357.639" y="399.368" transform="matrix(0, 1.069385, -1.109087, 0, 1827.104736, -1299.253784)"><title>Right wing bottom text</title>Right Wing Bottom</text>
  <path style="fill: rgb(216, 216, 216); stroke: rgb(0, 0, 0);" d="M 846.335 636.518 C 846.326 636.299 846.373 636.082 846.477 635.868 C 846.373 635.654 846.326 635.437 846.335 635.217 C 845.68 621.561 846.673 614.602 848.988 602.202 C 850.244 595.474 854.453 576.057 857.647 569.814 C 859.906 565.399 869.71 558.553 878.216 555.933 C 894.419 550.945 916.307 550.627 950.938 559.537 C 982.086 567.55 1032.002 564.239 1062.862 573.032 C 1066.547 574.082 1068.022 597.087 1068.754 600.35 C 1071.065 610.649 1069.842 618.817 1069.752 635.217 C 1069.753 635.438 1069.715 635.655 1069.636 635.868 C 1069.715 636.08 1069.753 636.298 1069.752 636.518 C 1069.842 652.918 1071.065 661.086 1068.754 671.385 C 1068.022 674.648 1066.547 697.654 1062.862 698.704 C 1032.002 707.496 982.086 704.185 950.938 712.198 C 916.307 721.108 894.419 720.791 878.216 715.802 C 869.71 713.182 859.906 706.336 857.647 701.921 C 854.453 695.678 850.244 676.262 848.988 669.533 C 846.673 657.133 845.68 650.174 846.335 636.518 Z">
    <title>Tail</title>
  </path>
  <path style="fill: rgb(216, 216, 216); stroke: rgb(0, 0, 0);" d="M 1386.123 628.969 C 1386.113 628.75 1386.161 628.533 1386.265 628.319 C 1386.161 628.105 1386.113 627.888 1386.123 627.669 C 1385.468 614.013 1386.461 607.053 1388.776 594.654 C 1390.032 587.925 1394.241 568.508 1397.435 562.265 C 1399.694 557.851 1409.497 551.005 1418.004 548.385 C 1434.207 543.396 1456.095 543.078 1490.726 551.988 C 1521.874 560.001 1571.79 556.691 1602.649 565.483 C 1606.335 566.533 1607.81 589.539 1608.542 592.802 C 1610.853 603.101 1609.63 611.269 1609.54 627.669 C 1609.541 627.889 1609.503 628.106 1609.424 628.319 C 1609.503 628.532 1609.541 628.749 1609.54 628.969 C 1609.63 645.369 1610.853 653.537 1608.542 663.837 C 1607.81 667.099 1606.335 690.105 1602.649 691.155 C 1571.79 699.948 1521.874 696.637 1490.726 704.65 C 1456.095 713.56 1434.207 713.242 1418.004 708.253 C 1409.497 705.633 1399.694 698.787 1397.435 694.373 C 1394.241 688.13 1390.032 668.713 1388.776 661.984 C 1386.461 649.585 1385.468 642.625 1386.123 628.969 Z">
    <title>Tail 2</title>
  </path>
  <path style="stroke: rgb(0, 0, 0); fill: rgb(216, 216, 216);" d="M 2499.327 389.669 C 2493.192 391.788 2479.127 396.592 2472.571 404.781 C 2470.429 407.456 2464.016 411.97 2462.389 414.223 C 2457.621 420.822 2453.314 424.116 2448.857 425.366 C 2445.112 426.416 2437.797 426.609 2432.08 427.312 C 2425.735 428.093 2413.607 423.784 2409.226 420.704 C 2400.357 414.471 2388.683 410.13 2376.973 414.191 C 2367.138 417.601 2348.338 423.718 2341.366 425.644 C 2332.048 428.218 2301.14 439.467 2287.467 443.899 C 2266.725 450.621 2248.076 453.599 2237.109 455.667 C 2226.922 457.589 2217.338 460.094 2203.847 466.193 C 2195.212 470.096 2185.359 472.568 2178.961 483.331 C 2173.179 493.061 2171.449 509.196 2160.679 512.881 C 2154.007 512.855 2147.464 494.008 2146.954 492.717 C 2140.759 477.039 2129.907 475.004 2122.753 471.323 C 2118.566 469.168 2117.193 467.505 2110.451 465.681 C 2104.518 464.077 2104.34 463.136 2096.881 461 C 2089.422 458.864 2079.369 456.126 2074.685 454.132 C 2068.98 451.703 2059.112 447.792 2047.72 443.397 C 2036.328 439.003 2030.314 436.894 2021.492 429.89 C 2014.716 424.509 2008.967 422.421 2002.532 417.256 C 1996.098 412.091 1996.6 413.62 1987.204 408.165 C 1982.434 405.397 1972.54 401.03 1970.103 399.693 C 1967.666 398.354 1956.152 396.064 1951.803 389.669 C 1956.152 383.274 1967.666 380.984 1970.103 379.645 C 1972.54 378.307 1982.434 373.941 1987.204 371.173 C 1996.6 365.718 1996.098 367.246 2002.532 362.081 C 2008.967 356.916 2014.716 354.829 2021.492 349.448 C 2030.314 342.444 2036.328 340.334 2047.72 335.94 C 2059.112 331.546 2068.98 327.634 2074.685 325.205 C 2079.369 323.211 2089.422 320.474 2096.881 318.338 C 2104.34 316.202 2104.518 315.26 2110.451 313.656 C 2117.193 311.833 2118.566 310.169 2122.753 308.014 C 2129.907 304.333 2140.759 302.298 2146.954 286.62 C 2147.464 285.329 2154.007 266.482 2160.679 266.457 C 2171.449 270.141 2173.179 286.276 2178.961 296.006 C 2185.359 306.77 2195.212 309.241 2203.847 313.145 C 2217.338 319.244 2226.922 321.748 2237.109 323.67 C 2248.076 325.739 2266.725 328.717 2287.467 335.439 C 2301.14 339.871 2332.048 351.119 2341.366 353.693 C 2348.338 355.62 2367.138 361.736 2376.973 365.147 C 2388.683 369.207 2400.357 364.866 2409.226 358.633 C 2413.607 355.553 2425.735 351.244 2432.08 352.025 C 2437.797 352.728 2445.112 352.921 2448.857 353.972 C 2453.314 355.222 2457.621 358.516 2462.389 365.115 C 2464.016 367.367 2470.429 371.881 2472.571 374.556 C 2479.127 382.746 2493.192 387.549 2499.327 389.669 Z" transform="matrix(0, 1, -1, 0, 2615.233932, -1835.89595)">
    <title>Bottom (new)</title>
  </path>
  <path style="fill: rgb(216, 216, 216); stroke: rgb(0, 0, 0);" d="M 301.151 420.96 C 311.463 426.476 310.637 449.167 312.959 454.45 C 315.284 459.728 318.528 469.078 323.656 474.223 C 333.902 484.501 339.978 487.989 352.374 496.383 C 364.771 504.776 370.074 511.544 378.601 521.254 C 384.425 527.886 396.019 536.625 401.471 543.949 C 406.921 551.276 410.283 558.891 415.378 566.4 C 420.015 573.236 423.595 586.462 426.303 593.194 C 429.011 599.926 431.301 610.547 435.114 618.355 C 440.796 629.989 442.366 642.796 449.976 651.661 C 457.584 660.523 470.378 692.158 476.78 701.848 C 481.016 708.259 493.697 718.128 500.75 723.367 C 507.803 728.606 484.501 725.514 467.634 726.341 C 459.57 726.737 449.374 733.809 441.227 733.03 C 433.082 732.253 421.921 735.063 414.178 732.523 C 390.419 724.725 381.071 708.068 373.542 690.256 C 366.012 672.445 360.297 653.48 343.804 641.067 C 334.03 633.71 323.829 626.92 313.383 620.503 C 302.938 614.084 292.25 608.037 281.504 602.17 C 261.469 591.232 239.077 585.203 216.512 579.535 C 193.948 573.868 171.209 568.564 150.487 559.071 C 143.602 555.918 137.257 553.484 129.61 550.042 C 121.962 546.598 103.981 538.776 110.286 541.189 C 117.007 543.762 95.687 535.448 90.324 532.704 C 84.961 529.963 72.844 525.074 74.291 523.555 C 86.071 511.198 107.632 513.258 117.121 508.664 C 126.607 504.07 136.226 503.229 149.64 499.273 C 167.644 493.964 172.253 491.432 181.506 489.228 C 190.76 487.023 196.782 486.032 210.466 481.105 C 221.675 477.071 226.711 481.805 241.874 473.759 C 255.375 466.597 255.677 464.49 264.33 457.547 C 271.647 451.678 275.235 442.101 282.345 432.738 C 289.457 423.372 291.663 415.885 301.151 420.96 Z" transform="matrix(0.877829, -0.478975, 0.478975, 0.877829, -240.914022, 208.424025)">
    <title>Right</title>
  </path>
</svg>