<?xml version="1.0" encoding="utf-8"?>
<svg viewBox="0 0 1850 1650" xmlns="http://www.w3.org/2000/svg">
  <defs>
    <view id="view-0" viewBox="0 0 605 800">
      <title>View 0</title>
    </view>
    <view id="view-1" viewBox="650 0 560 800">
      <title>View 1</title>
    </view>
    <view id="view-2" viewBox="1290 0 560 800">
      <title>View 2</title>
    </view>
    <view id="view-3" viewBox="650 850 560 800">
      <title>View 3</title>
    </view>
    <view id="view-4" viewBox="0 850 605 800">
      <title>View 4</title>
    </view>
  </defs>
  <path style="fill: rgb(216, 216, 216); stroke: rgb(0, 0, 0);" d="M 364.99 412.335 C 378.395 405.164 377.322 375.666 380.34 368.798 C 383.363 361.936 387.58 349.78 394.246 343.092 C 407.566 329.73 415.465 325.196 431.58 314.284 C 447.696 303.373 454.59 294.574 465.675 281.951 C 473.246 273.329 488.317 261.969 495.405 252.447 C 502.49 242.922 506.861 233.023 513.484 223.261 C 519.512 214.374 524.166 197.18 527.688 188.429 C 531.208 179.677 534.185 165.87 539.142 155.719 C 546.529 140.595 548.57 123.946 558.463 112.421 C 568.353 100.901 584.986 59.775 593.308 47.178 C 598.815 38.844 626.739 20.192 635.908 13.381 C 645.077 6.57 603.346 16.412 581.418 15.337 C 570.935 14.822 557.68 5.628 547.089 6.641 C 536.501 7.651 521.99 3.998 511.924 7.3 C 481.037 17.438 468.886 39.092 459.098 62.248 C 449.309 85.402 441.88 110.057 420.439 126.194 C 407.733 135.758 394.471 144.585 380.891 152.927 C 367.313 161.272 353.418 169.133 339.449 176.76 C 313.403 190.979 284.293 198.817 254.959 206.185 C 225.625 213.553 196.064 220.448 169.126 232.789 C 160.175 236.888 151.927 240.052 141.986 244.527 C 132.043 249.004 108.668 259.172 116.864 256.036 C 125.602 252.691 97.885 263.499 90.913 267.066 C 83.942 270.629 68.189 276.985 70.07 278.96 C 85.385 295.024 113.414 292.346 125.75 298.318 C 138.082 304.29 150.586 305.384 168.025 310.527 C 191.43 317.428 197.422 320.72 209.451 323.585 C 221.481 326.452 229.309 327.74 247.099 334.145 C 261.671 339.389 268.217 333.235 287.929 343.695 C 305.481 353.006 305.873 355.745 317.122 364.772 C 326.634 372.401 331.299 384.851 340.542 397.023 C 349.788 409.199 352.655 418.932 364.99 412.335 Z" transform="matrix(-0.5, -0.866025, 0.866025, -0.5, 340.032199, 616.669422)">
    <title>Right</title>
  </path>
  <path style="stroke: rgb(0, 0, 0); fill: rgb(216, 216, 216);" d="M -204.228 1236.31 C -204.298 1228.131 -168.978 1216.607 -153.43 1210.935 C -142.896 1207.092 -107.99 1202.06 -96.644 1200.87 C -85.297 1199.679 -58.762 1196.725 -49.163 1197.989 C -32.545 1200.18 -30.795 1196.537 -2.024 1200.255 C 26.748 1203.972 45.459 1206.166 65.375 1209.998 C 84.619 1213.7 111.891 1218.325 127.528 1217.458 C 143.169 1216.591 162.423 1217.018 185.281 1211.266 C 205.521 1206.174 218.325 1203.074 230.744 1194.46 C 243.163 1185.847 260.693 1175.294 281.443 1173.107 C 301.361 1171.008 317.905 1183.126 324.756 1191.847 C 331.606 1200.569 346.792 1205.581 355.592 1211.365 C 367.039 1218.89 423.516 1230.903 431.04 1236.31 C 424.905 1241.715 368.428 1253.728 356.983 1261.252 C 348.183 1267.035 332.997 1272.049 326.147 1280.771 C 319.296 1289.49 302.751 1301.609 282.832 1299.509 C 262.083 1297.323 244.552 1286.771 232.135 1278.157 C 219.716 1269.543 206.912 1266.444 186.672 1261.35 C 163.814 1255.599 144.56 1256.026 128.918 1255.158 C 113.282 1254.291 86.01 1258.917 66.765 1262.619 C 46.849 1266.45 28.138 1268.645 -0.634 1272.361 C -29.406 1276.081 -31.154 1272.437 -47.773 1274.627 C -57.373 1275.894 -83.907 1272.937 -95.253 1271.747 C -106.6 1270.557 -141.506 1265.525 -152.04 1261.682 C -167.588 1256.01 -204.298 1244.487 -204.228 1236.31 Z" transform="matrix(0, 1, -1, 0, 1334.916641, 1137.699692)">
    <title>Top (new)</title>
  </path>
  <path style="fill: rgb(216, 216, 216); stroke: rgb(0, 0, 0);" d="M 892.584 285.651 C 899.228 282.44 915.465 277.832 922.79 278.055 C 932.048 278.338 938.625 277.722 948.42 277.106 C 979.798 275.134 1011.377 269.525 1040.867 258.12 C 1083.906 241.476 1125.552 218.571 1170.845 210.655 C 1189.397 207.411 1208.242 215.325 1226.681 219.199 C 1232.456 220.412 1239.864 220.775 1243.157 225.843 C 1250.758 237.548 1251.964 250.659 1256.886 263.816 C 1259.902 271.873 1263.791 281.452 1266.956 289.447 C 1271.517 300.981 1276.375 312.397 1281.6 323.624 C 1283.153 326.958 1287.574 331.244 1285.261 334.065 C 1268.29 354.774 1238.394 369.559 1217.527 382.48 C 1204.947 390.27 1192.956 399.12 1179.999 406.213 C 1142.207 426.898 1096.003 434.932 1053.682 428.049 C 1041.914 426.133 1016.11 420.022 1007.917 413.809 C 994.222 403.421 986.399 402.582 972.219 392.923 C 965.822 388.566 958.122 386.735 951.166 383.429 C 926.881 371.885 902.104 361.405 875.193 358.746 C 865.454 357.785 855.684 357.073 845.903 356.847 C 844.254 356.81 826.836 360.287 823.934 356.847 C 815.168 346.458 850.933 305.776 892.584 285.651 Z" transform="matrix(0, 1, -1, 0, 1374.434837, -734.083046)">
    <title>Left wing top</title>
  </path>
  <text style="white-space: pre; fill: rgb(51, 51, 51); font-family: Arial, sans-serif; font-size: 19.3px;" x="932.071" y="188.207" transform="matrix(0, 1.302309, -1.350658, 0, 1308.686157, -883.567932)"><title>Left wing top text</title>Left Wing Top</text>
  <path style="fill: rgb(216, 216, 216); stroke: rgb(0, 0, 0);" d="M 635.633 343.965 C 642.276 347.175 658.513 351.783 665.838 351.559 C 675.096 351.276 681.673 351.893 691.468 352.509 C 722.846 354.481 754.426 360.089 783.916 371.495 C 826.955 388.138 868.6 411.043 913.894 418.961 C 932.447 422.204 951.291 414.291 969.729 410.417 C 975.504 409.204 982.912 408.84 986.205 403.771 C 993.807 392.067 995.013 378.956 999.935 365.799 C 1002.95 357.742 1006.84 348.163 1010.004 340.168 C 1014.566 328.633 1019.423 317.218 1024.649 305.993 C 1026.202 302.657 1030.622 298.371 1028.31 295.549 C 1011.339 274.842 981.443 260.056 960.575 247.134 C 947.995 239.345 936.004 230.494 923.047 223.401 C 885.257 202.716 839.051 194.683 796.731 201.568 C 784.962 203.481 759.159 209.593 750.965 215.807 C 737.272 226.195 729.449 227.034 715.268 236.693 C 708.871 241.05 701.17 242.879 694.215 246.185 C 669.929 257.73 645.153 268.21 618.241 270.868 C 608.503 271.83 598.732 272.541 588.952 272.766 C 587.303 272.805 569.884 269.327 566.982 272.766 C 558.217 283.157 593.982 323.838 635.633 343.965 Z" transform="matrix(0, 1, -1, 0, 1106.747215, -487.867592)">
    <title>Left wing bottom</title>
  </path>
  <text style="white-space: pre; fill: rgb(51, 51, 51); font-family: Arial, sans-serif; font-size: 19.3px;" x="907.934" y="394.399" transform="matrix(0, 1.302309, -1.350658, 0, 1321.338867, -902.54187)"><title>Left wing bottom text</title>Left Wing Bottom</text>
  <path style="fill: rgb(216, 216, 216); stroke: rgb(0, 0, 0);" d="M 1544.193 298.012 C 1550.836 294.801 1567.073 290.193 1574.398 290.417 C 1583.657 290.7 1590.233 290.083 1600.028 289.469 C 1631.408 287.496 1662.986 281.887 1692.476 270.481 C 1735.515 253.838 1777.16 230.934 1822.455 223.016 C 1841.007 219.773 1859.851 227.687 1878.289 231.56 C 1884.064 232.773 1891.473 233.136 1894.765 238.205 C 1902.367 249.911 1903.573 263.021 1908.496 276.177 C 1911.51 284.234 1915.4 293.814 1918.564 301.809 C 1923.126 313.342 1927.983 324.758 1933.209 335.985 C 1934.762 339.319 1939.184 343.605 1936.87 346.427 C 1919.899 367.136 1890.003 381.921 1869.137 394.842 C 1856.555 402.631 1844.564 411.482 1831.607 418.575 C 1793.818 439.261 1747.611 447.295 1705.291 440.41 C 1693.522 438.495 1667.719 432.383 1659.525 426.17 C 1645.832 415.782 1638.009 414.943 1623.828 405.285 C 1617.431 400.927 1609.731 399.097 1602.775 395.791 C 1578.489 384.247 1553.713 373.766 1526.801 371.108 C 1517.064 370.147 1507.292 369.435 1497.512 369.21 C 1495.863 369.171 1478.444 372.649 1475.543 369.21 C 1466.777 358.819 1502.542 318.138 1544.193 298.012 Z" transform="matrix(0, -1, 1, 0, 1373.33046, 2038.405746)">
    <title>Right wing top</title>
  </path>
  <text style="white-space: pre; fill: rgb(51, 51, 51); font-family: Arial, sans-serif; font-size: 19.3px;" x="1348.674" y="198.003" transform="matrix(0, 1.302309, -1.350658, 0, 1968.507813, -1594.513794)"><title>Right wing top text</title>Right Wing Top</text>
  <path style="fill: rgb(216, 216, 216); stroke: rgb(0, 0, 0);" d="M 1274.841 359.532 C 1281.484 362.744 1297.721 367.352 1305.048 367.128 C 1314.306 366.845 1320.882 367.461 1330.677 368.077 C 1362.056 370.049 1393.634 375.659 1423.125 387.063 C 1466.164 403.707 1507.81 426.612 1553.104 434.529 C 1571.654 437.772 1590.499 429.859 1608.939 425.984 C 1614.712 424.771 1622.122 424.409 1625.414 419.34 C 1633.015 407.635 1634.223 394.524 1639.144 381.368 C 1642.16 373.31 1646.049 363.731 1649.212 355.736 C 1653.774 344.202 1658.632 332.786 1663.858 321.559 C 1665.411 318.225 1669.832 313.939 1667.519 311.118 C 1650.548 290.411 1620.652 275.624 1599.785 262.703 C 1587.205 254.913 1575.214 246.063 1562.256 238.97 C 1524.465 218.285 1478.26 210.251 1435.939 217.135 C 1424.171 219.05 1398.369 225.161 1390.174 231.376 C 1376.481 241.764 1368.657 242.601 1354.477 252.26 C 1348.079 256.617 1340.379 258.448 1333.424 261.754 C 1309.139 273.299 1284.362 283.778 1257.451 286.437 C 1247.712 287.398 1237.94 288.11 1228.16 288.336 C 1226.511 288.373 1209.093 284.896 1206.192 288.336 C 1197.426 298.725 1233.19 339.407 1274.841 359.532 Z" transform="matrix(0, -1, 1, 0, 1111.509308, 1761.524628)">
    <title>Right wing bottom</title>
  </path>
  <text style="white-space: pre; fill: rgb(51, 51, 51); font-family: Arial, sans-serif; font-size: 19.3px;" x="1357.639" y="399.368" transform="matrix(0, 1.302309, -1.350658, 0, 1986.378906, -1604.889282)"><title>Right wing bottom text</title>Right Wing Bottom</text>
  <path style="stroke: rgb(0, 0, 0); fill: rgb(216, 216, 216);" d="M 776.797 1238.67 C 768.822 1241.425 730.09 1247.67 721.567 1258.316 C 718.783 1261.793 710.446 1267.662 708.331 1270.59 C 702.132 1279.169 696.533 1283.451 690.739 1285.076 C 685.871 1286.441 676.361 1286.692 668.929 1287.606 C 660.68 1288.621 644.914 1283.02 639.219 1279.016 C 627.689 1270.913 612.513 1265.269 597.29 1270.549 C 584.504 1274.982 560.064 1282.934 551 1285.438 C 538.887 1288.784 498.706 1303.408 480.931 1309.169 C 453.967 1317.908 429.723 1321.779 415.466 1324.468 C 402.222 1326.966 389.763 1330.223 372.225 1338.152 C 360.999 1343.226 348.19 1346.439 339.873 1360.431 C 332.356 1373.08 330.107 1394.056 316.106 1398.846 C 307.433 1398.813 298.927 1374.311 298.264 1372.633 C 290.21 1352.252 276.102 1349.606 266.802 1344.821 C 261.359 1342.019 259.574 1339.857 250.81 1337.486 C 243.097 1335.401 242.865 1334.178 233.169 1331.401 C 223.472 1328.624 210.403 1325.065 204.314 1322.472 C 196.897 1319.315 184.069 1314.23 169.259 1308.517 C 154.449 1302.805 146.631 1300.063 135.162 1290.958 C 126.354 1283.962 118.88 1281.248 110.514 1274.533 C 102.15 1267.819 102.803 1269.807 90.588 1262.715 C 84.387 1259.117 71.525 1253.439 68.356 1251.701 C 65.188 1249.961 50.22 1246.984 44.566 1238.67 C 50.22 1230.357 65.188 1227.38 68.356 1225.639 C 71.525 1223.899 84.387 1218.224 90.588 1214.625 C 102.803 1207.534 102.15 1209.52 110.514 1202.806 C 118.88 1196.091 126.354 1193.378 135.162 1186.383 C 146.631 1177.277 154.449 1174.534 169.259 1168.822 C 184.069 1163.11 196.897 1158.024 204.314 1154.867 C 210.403 1152.274 223.472 1148.716 233.169 1145.939 C 242.865 1143.163 243.097 1141.938 250.81 1139.853 C 259.574 1137.483 261.359 1135.32 266.802 1132.518 C 276.102 1127.733 290.21 1125.087 298.264 1104.706 C 298.927 1103.028 307.433 1078.526 316.106 1078.494 C 330.107 1083.283 332.356 1104.259 339.873 1116.908 C 348.19 1130.901 360.999 1134.113 372.225 1139.189 C 389.763 1147.117 402.222 1150.372 415.466 1152.871 C 429.723 1155.561 453.967 1159.432 480.931 1168.171 C 498.706 1173.932 538.887 1188.555 551 1191.901 C 560.064 1194.406 584.504 1202.357 597.29 1206.791 C 612.513 1212.069 627.689 1206.426 639.219 1198.323 C 644.914 1194.319 660.68 1188.717 668.929 1189.733 C 676.361 1190.647 685.871 1190.898 690.739 1192.264 C 696.533 1193.889 702.132 1198.171 708.331 1206.75 C 710.446 1209.677 718.783 1215.546 721.567 1219.023 C 730.09 1229.67 768.822 1235.914 776.797 1238.67 Z" transform="matrix(0, 1, -1, 0, 1639.127983, 838.211983)">
    <title>Bottom (new)</title>
  </path>
  <path style="fill: rgb(216, 216, 216); stroke: rgb(0, 0, 0);" d="M 1088.976 1213.167 C 1074.204 1200.891 1041.74 1166.675 1030.217 1154.99 C 1017.248 1141.838 993.099 1134.42 984.465 1133.97 C 955.802 1132.479 912.225 1139.285 884.368 1147.055 C 853.397 1155.693 833.822 1155.384 819.331 1150.549 C 811.724 1148.009 802.955 1141.371 800.935 1137.09 C 798.079 1131.037 794.314 1112.211 793.191 1105.689 C 791.231 1094.309 790.887 1075.414 790.934 1073.251 C 790.887 1071.087 791.231 1052.191 793.191 1040.811 C 794.314 1034.288 798.079 1015.463 800.935 1009.41 C 802.955 1005.13 811.724 998.492 819.331 995.952 C 833.822 991.116 853.397 990.807 884.368 999.446 C 912.225 1007.215 955.802 1014.021 984.465 1012.531 C 993.099 1012.081 1017.248 1004.662 1030.217 991.51 C 1041.74 979.824 1074.204 945.609 1088.976 933.334 C 1087.791 968.243 1088.902 1046.567 1088.316 1073.771 C 1088.902 1100.975 1087.791 1178.258 1088.976 1213.167 Z"/>
  <path style="fill: rgb(216, 216, 216); stroke: rgb(0, 0, 0);" d="M 307.734 329.312 C 321.139 336.483 320.066 365.981 323.084 372.849 C 326.107 379.711 330.324 391.867 336.99 398.555 C 350.31 411.917 358.209 416.451 374.324 427.363 C 390.44 438.274 397.334 447.073 408.419 459.696 C 415.99 468.318 431.061 479.678 438.149 489.2 C 445.234 498.725 449.605 508.624 456.228 518.386 C 462.256 527.273 466.91 544.467 470.432 553.218 C 473.952 561.97 476.929 575.777 481.886 585.928 C 489.273 601.052 491.314 617.701 501.207 629.226 C 511.097 640.746 527.73 681.872 536.052 694.469 C 541.559 702.803 569.483 721.455 578.652 728.266 C 587.821 735.077 546.09 725.235 524.162 726.31 C 513.679 726.825 500.424 736.019 489.833 735.006 C 479.245 733.996 464.734 737.649 454.668 734.347 C 423.781 724.209 411.63 702.555 401.842 679.399 C 392.053 656.245 384.624 631.59 363.183 615.453 C 350.477 605.889 337.215 597.062 323.635 588.72 C 310.057 580.375 296.162 572.514 282.193 564.887 C 256.147 550.668 227.037 542.83 197.703 535.462 C 168.369 528.094 138.808 521.199 111.87 508.858 C 102.919 504.759 94.671 501.595 84.73 497.12 C 74.787 492.643 51.412 482.475 59.608 485.611 C 68.346 488.956 40.629 478.148 33.657 474.581 C 26.686 471.018 10.933 464.662 12.814 462.687 C 28.129 446.623 56.158 449.301 68.494 443.329 C 80.826 437.357 93.33 436.263 110.769 431.12 C 134.174 424.219 140.166 420.927 152.195 418.062 C 164.225 415.195 172.053 413.907 189.843 407.502 C 204.415 402.258 210.961 408.412 230.673 397.952 C 248.225 388.641 248.617 385.902 259.866 376.875 C 269.378 369.246 274.043 356.796 283.286 344.624 C 292.532 332.448 295.399 322.715 307.734 329.312 Z" transform="matrix(-1, 0, 0, -1, 592.607185, 1062.942261)">
    <title>Right</title>
  </path>
  <path style="fill: rgb(216, 216, 216); stroke: rgb(0, 0, 0);" d="M 1086.644 1597.961 C 1071.872 1585.685 1039.407 1551.47 1027.885 1539.784 C 1014.916 1526.633 990.767 1519.214 982.133 1518.764 C 953.47 1517.273 909.893 1524.08 882.036 1531.849 C 851.064 1540.487 831.49 1540.179 816.999 1535.343 C 809.391 1532.803 800.623 1526.165 798.603 1521.884 C 795.747 1515.831 791.982 1497.006 790.859 1490.483 C 788.899 1479.104 788.554 1460.208 788.602 1458.045 C 788.554 1455.881 788.899 1436.986 790.859 1425.606 C 791.982 1419.083 795.747 1400.257 798.603 1394.204 C 800.623 1389.924 809.391 1383.286 816.999 1380.746 C 831.49 1375.911 851.064 1375.601 882.036 1384.24 C 909.893 1392.009 953.47 1398.815 982.133 1397.325 C 990.767 1396.875 1014.916 1389.456 1027.885 1376.305 C 1039.407 1364.619 1071.872 1330.403 1086.644 1318.128 C 1085.459 1353.037 1086.57 1431.361 1085.984 1458.566 C 1086.57 1485.769 1085.459 1563.052 1086.644 1597.961 Z"/>
</svg>