<?xml version="1.0" encoding="utf-8"?>
<svg viewBox="0 0 630 594" width="630mm" height="594mm" xmlns="http://www.w3.org/2000/svg">
  <defs>
    <view id="view-0" viewBox="0 0 210 297">
      <title>view_0</title>
    </view>
    <view id="view-1" viewBox="210 0 210 297">
      <title>view_1</title>
    </view>
    <view id="view-2" viewBox="420 0 210 297">
      <title>view_2</title>
    </view>
    <view id="view-3" viewBox="210 297 210 297">
      <title>view_4</title>
    </view>
    <view id="view-4" viewBox="0 297 210 297">
      <title>view_3</title>
    </view>
  </defs>
  <path style="fill: rgb(216, 216, 216); stroke: rgb(0, 0, 0); transform-box: fill-box; transform-origin: 50% 50%;" d="M 127.877 159.193 C 132.381 156.784 132.021 146.871 133.035 144.564 C 134.051 142.257 135.467 138.174 137.707 135.927 C 142.183 131.437 144.837 129.913 150.252 126.246 C 155.668 122.58 157.984 119.623 161.709 115.382 C 164.252 112.485 169.317 108.668 171.698 105.468 C 174.079 102.268 175.548 98.941 177.774 95.661 C 179.799 92.675 181.362 86.897 182.545 83.958 C 183.729 81.016 184.729 76.377 186.395 72.966 C 188.877 67.884 189.562 62.29 192.887 58.418 C 196.21 54.546 201.799 40.727 204.595 36.494 C 206.446 33.695 215.828 27.428 218.909 25.138 C 221.99 22.85 207.968 26.158 200.6 25.796 C 197.077 25.624 192.624 22.533 189.065 22.874 C 185.507 23.213 180.632 21.986 177.249 23.095 C 166.87 26.503 162.787 33.778 159.498 41.559 C 156.21 49.338 153.713 57.623 146.509 63.046 C 142.239 66.259 137.783 69.225 133.22 72.028 C 128.658 74.832 123.989 77.473 119.294 80.036 C 110.543 84.815 100.761 87.448 90.905 89.923 C 81.049 92.4 71.115 94.716 62.064 98.863 C 59.056 100.24 56.285 101.303 52.944 102.807 C 49.603 104.311 41.75 107.727 44.503 106.674 C 47.44 105.551 38.126 109.182 35.783 110.38 C 33.441 111.578 28.148 113.713 28.78 114.376 C 33.926 119.775 43.344 118.875 47.49 120.881 C 51.633 122.888 55.834 123.256 61.694 124.984 C 69.558 127.303 71.572 128.408 75.613 129.371 C 79.656 130.335 82.286 130.768 88.264 132.92 C 93.161 134.682 95.36 132.614 101.983 136.128 C 107.881 139.257 108.013 140.178 111.793 143.21 C 114.989 145.774 116.557 149.958 119.662 154.048 C 122.769 158.139 123.733 161.409 127.877 159.193 Z" transform="matrix(-0.5, -0.866025, 0.866025, -0.5, -0.000033, -0.000005)">
    <title>Right</title>
  </path>
  <path style="stroke: rgb(0, 0, 0); fill: rgb(216, 216, 216); transform-box: fill-box; transform-origin: 50% 50%;" d="M -65.575 442.641 C -65.598 439.892 -53.73 436.02 -48.506 434.114 C -44.966 432.823 -33.238 431.132 -29.425 430.733 C -25.613 430.333 -16.697 429.34 -13.471 429.765 C -7.887 430.501 -7.299 429.277 2.369 430.525 C 12.037 431.775 18.323 432.512 25.015 433.8 C 31.482 435.043 40.645 436.598 45.899 436.306 C 51.156 436.015 57.625 436.158 65.305 434.225 C 72.107 432.515 76.409 431.473 80.582 428.579 C 84.755 425.684 90.645 422.138 97.617 421.404 C 104.31 420.698 109.87 424.771 112.171 427.701 C 114.473 430.631 119.576 432.315 122.533 434.259 C 126.38 436.788 145.356 440.824 147.885 442.641 C 145.823 444.457 126.845 448.493 123 451.022 C 120.043 452.965 114.94 454.65 112.638 457.58 C 110.336 460.51 104.777 464.582 98.084 463.876 C 91.113 463.142 85.222 459.597 81.05 456.702 C 76.877 453.808 72.575 452.766 65.773 451.054 C 58.093 449.121 51.623 449.266 46.367 448.975 C 41.112 448.682 31.949 450.237 25.482 451.481 C 18.791 452.768 12.503 453.506 2.836 454.755 C -6.833 456.005 -7.42 454.78 -13.004 455.516 C -16.23 455.941 -25.145 454.948 -28.958 454.547 C -32.77 454.148 -44.499 452.458 -48.039 451.167 C -53.263 449.26 -65.598 445.388 -65.575 442.641 Z" transform="matrix(0, 1, -1, 0, -0.000024, 0.000055)">
    <title>Top (new)</title>
  </path>
  <path style="fill: rgb(216, 216, 216); stroke: rgb(0, 0, 0); transform-box: fill-box; transform-origin: 50% 50%;" d="M 307.942 118.234 C 310.174 117.154 315.631 115.607 318.092 115.681 C 321.203 115.776 323.412 115.569 326.703 115.362 C 337.248 114.7 347.858 112.815 357.767 108.982 C 372.228 103.39 386.222 95.693 401.442 93.033 C 407.676 91.944 414.007 94.603 420.204 95.904 C 422.143 96.312 424.633 96.435 425.739 98.137 C 428.293 102.07 428.699 106.476 430.353 110.897 C 431.366 113.604 432.673 116.822 433.736 119.509 C 435.269 123.384 436.902 127.22 438.657 130.993 C 439.18 132.113 440.665 133.554 439.887 134.501 C 434.185 141.459 424.139 146.428 417.128 150.77 C 412.901 153.387 408.871 156.361 404.518 158.744 C 391.819 165.695 376.294 168.394 362.073 166.081 C 358.119 165.437 349.448 163.384 346.695 161.296 C 342.093 157.806 339.465 157.524 334.7 154.278 C 332.551 152.815 329.964 152.199 327.627 151.089 C 319.467 147.21 311.142 143.689 302.098 142.794 C 298.826 142.472 295.542 142.232 292.257 142.156 C 291.703 142.144 285.849 143.312 284.874 142.156 C 281.929 138.665 293.947 124.996 307.942 118.234 Z" transform="matrix(0, 1, -1, 0, 0.000025, -0.000004)">
    <title>Left wing top</title>
  </path>
  <text style="white-space: pre; fill: rgb(51, 51, 51); font-family: Arial, sans-serif; font-size: 19.3px;" x="932.071" y="188.207" transform="matrix(0, 0.445292, -0.461824, 0, 445.769867, -284.400024)"><title>Left wing top text</title>Left Wing Top</text>
  <path style="fill: rgb(216, 216, 216); stroke: rgb(0, 0, 0); transform-box: fill-box; transform-origin: 50% 50%;" d="M 221.602 137.828 C 223.835 138.907 229.29 140.454 231.751 140.38 C 234.863 140.284 237.073 140.492 240.364 140.699 C 250.907 141.361 261.519 143.246 271.428 147.078 C 285.89 152.671 299.884 160.367 315.102 163.028 C 321.336 164.117 327.669 161.458 333.863 160.157 C 335.805 159.749 338.294 159.626 339.4 157.923 C 341.955 153.99 342.359 149.585 344.013 145.164 C 345.027 142.457 346.333 139.238 347.397 136.552 C 348.929 132.677 350.561 128.841 352.317 125.069 C 352.84 123.948 354.324 122.507 353.548 121.56 C 347.845 114.601 337.8 109.633 330.788 105.291 C 326.56 102.674 322.531 99.7 318.177 97.317 C 305.479 90.366 289.954 87.667 275.733 89.98 C 271.779 90.623 263.109 92.677 260.356 94.765 C 255.755 98.255 253.126 98.538 248.361 101.783 C 246.212 103.247 243.624 103.861 241.287 104.972 C 233.126 108.851 224.802 112.373 215.758 113.266 C 212.486 113.589 209.204 113.829 205.917 113.905 C 205.363 113.917 199.511 112.748 198.536 113.905 C 195.589 117.396 207.607 131.065 221.602 137.828 Z" transform="matrix(0, 1, -1, 0, 0.000007, 0.000008)">
    <title>Left wing bottom</title>
  </path>
  <text style="white-space: pre; fill: rgb(51, 51, 51); font-family: Arial, sans-serif; font-size: 19.3px;" x="907.934" y="394.399" transform="matrix(0, 0.445292, -0.461824, 0, 450.096161, -290.887695)"><title>Left wing bottom text</title>Left Wing Bottom</text>
  <path style="fill: rgb(216, 216, 216); stroke: rgb(0, 0, 0); transform-box: fill-box; transform-origin: 50% 50%;" d="M 526.892 122.387 C 529.124 121.308 534.58 119.76 537.041 119.835 C 540.152 119.93 542.362 119.722 545.654 119.516 C 556.198 118.853 566.808 116.969 576.718 113.136 C 591.178 107.543 605.172 99.847 620.392 97.187 C 626.626 96.098 632.958 98.757 639.153 100.058 C 641.093 100.466 643.583 100.588 644.689 102.291 C 647.244 106.224 647.649 110.63 649.303 115.05 C 650.316 117.757 651.623 120.976 652.687 123.662 C 654.219 127.537 655.851 131.373 657.607 135.146 C 658.129 136.267 659.615 137.707 658.837 138.655 C 653.134 145.613 643.09 150.582 636.078 154.923 C 631.85 157.541 627.821 160.515 623.467 162.898 C 610.77 169.849 595.244 172.548 581.023 170.235 C 577.069 169.591 568.398 167.537 565.645 165.45 C 561.044 161.959 558.415 161.677 553.65 158.432 C 551.5 156.968 548.913 156.353 546.577 155.243 C 538.416 151.363 530.091 147.842 521.048 146.947 C 517.776 146.626 514.493 146.386 511.207 146.311 C 510.653 146.297 504.799 147.466 503.824 146.311 C 500.879 142.819 512.897 129.15 526.892 122.387 Z" transform="matrix(0, -1, 1, 0, -0.000005, 0.000044)">
    <title>Right wing top</title>
  </path>
  <text style="white-space: pre; fill: rgb(51, 51, 51); font-family: Arial, sans-serif; font-size: 19.3px;" x="1348.674" y="198.003" transform="matrix(0, 0.445292, -0.461824, 0, 671.379517, -527.490295)"><title>Right wing top text</title>Right Wing Top</text>
  <path style="fill: rgb(216, 216, 216); stroke: rgb(0, 0, 0); transform-box: fill-box; transform-origin: 50% 50%;" d="M 436.386 143.058 C 438.618 144.137 444.074 145.685 446.535 145.611 C 449.647 145.516 451.855 145.722 455.147 145.929 C 465.691 146.592 476.301 148.477 486.211 152.31 C 500.673 157.902 514.666 165.599 529.886 168.259 C 536.119 169.347 542.452 166.689 548.647 165.387 C 550.587 164.979 553.077 164.858 554.183 163.154 C 556.738 159.222 557.143 154.816 558.796 150.395 C 559.81 147.688 561.117 144.47 562.18 141.783 C 563.713 137.907 565.345 134.072 567.101 130.299 C 567.623 129.178 569.108 127.738 568.331 126.791 C 562.629 119.833 552.584 114.863 545.572 110.523 C 541.344 107.904 537.315 104.931 532.961 102.547 C 520.263 95.597 504.737 92.898 490.516 95.211 C 486.562 95.855 477.893 97.907 475.14 99.996 C 470.537 103.486 467.909 103.767 463.145 107.014 C 460.995 108.477 458.407 109.092 456.071 110.203 C 447.91 114.082 439.585 117.603 430.542 118.497 C 427.27 118.82 423.987 119.059 420.7 119.135 C 420.146 119.148 414.293 117.979 413.319 119.135 C 410.373 122.626 422.39 136.295 436.386 143.058 Z" transform="matrix(0, -1, 1, 0, 0.000017, 0.000043)">
    <title>Right wing bottom</title>
  </path>
  <text style="white-space: pre; fill: rgb(51, 51, 51); font-family: Arial, sans-serif; font-size: 19.3px;" x="1357.639" y="399.368" transform="matrix(0, 0.445292, -0.461824, 0, 677.490173, -531.037903)"><title>Right wing bottom text</title>Right Wing Bottom</text>
  <path style="stroke: rgb(0, 0, 0); fill: rgb(216, 216, 216); transform-box: fill-box; transform-origin: 50% 50%;" d="M 265.6 441.896 C 262.92 442.823 249.906 444.921 247.041 448.498 C 246.107 449.666 243.305 451.638 242.595 452.622 C 240.512 455.505 238.631 456.943 236.684 457.49 C 235.048 457.949 231.852 458.033 229.356 458.34 C 226.583 458.681 221.285 456.799 219.372 455.454 C 215.498 452.732 210.399 450.834 205.283 452.609 C 200.986 454.099 192.775 456.77 189.729 457.612 C 185.659 458.736 172.158 463.65 166.184 465.585 C 157.124 468.522 148.978 469.823 144.188 470.727 C 139.737 471.566 135.552 472.66 129.658 475.324 C 125.886 477.029 121.582 478.109 118.787 482.811 C 116.262 487.061 115.506 494.109 110.801 495.717 C 107.887 495.707 105.029 487.474 104.806 486.911 C 102.101 480.063 97.36 479.173 94.235 477.565 C 92.406 476.623 91.806 475.897 88.861 475.1 C 86.27 474.399 86.191 473.989 82.934 473.055 C 79.675 472.123 75.284 470.927 73.238 470.055 C 70.746 468.995 66.435 467.286 61.459 465.366 C 56.483 463.448 53.855 462.526 50.002 459.467 C 47.041 457.115 44.531 456.204 41.719 453.947 C 38.909 451.691 39.128 452.359 35.024 449.976 C 32.941 448.768 28.619 446.859 27.554 446.275 C 26.489 445.691 21.46 444.691 19.56 441.896 C 21.46 439.104 26.489 438.103 27.554 437.518 C 28.619 436.934 32.941 435.027 35.024 433.817 C 39.128 431.435 38.909 432.102 41.719 429.846 C 44.531 427.59 47.041 426.679 50.002 424.328 C 53.855 421.268 56.483 420.346 61.459 418.427 C 66.435 416.507 70.746 414.798 73.238 413.738 C 75.284 412.866 79.675 411.671 82.934 410.737 C 86.191 409.805 86.27 409.393 88.861 408.693 C 91.806 407.897 92.406 407.169 94.235 406.229 C 97.36 404.621 102.101 403.731 104.806 396.883 C 105.029 396.32 107.887 388.086 110.801 388.075 C 115.506 389.684 116.262 396.733 118.787 400.983 C 121.582 405.685 125.886 406.764 129.658 408.469 C 135.552 411.134 139.737 412.227 144.188 413.067 C 148.978 413.971 157.124 415.272 166.184 418.208 C 172.158 420.143 185.659 425.058 189.729 426.182 C 192.775 427.023 200.986 429.695 205.283 431.185 C 210.399 432.958 215.498 431.062 219.372 428.34 C 221.285 426.994 226.583 425.112 229.356 425.454 C 231.852 425.761 235.048 425.845 236.684 426.304 C 238.631 426.85 240.512 428.289 242.595 431.172 C 243.305 432.154 246.107 434.128 247.041 435.295 C 249.906 438.873 262.92 440.97 265.6 441.896 Z" transform="matrix(0, 1, -1, 0, 0.000074, 0.000013)">
    <title>Bottom (new)</title>
  </path>
  <path style="fill: rgb(216, 216, 216); stroke: rgb(0, 0, 0);" d="M 373.932 429.893 C 368.969 425.768 358.06 414.27 354.189 410.344 C 349.83 405.924 341.717 403.433 338.815 403.282 C 329.184 402.779 314.541 405.067 305.181 407.678 C 294.775 410.58 288.197 410.476 283.328 408.852 C 280.772 407.998 277.825 405.767 277.146 404.329 C 276.187 402.295 274.922 395.969 274.544 393.778 C 273.885 389.954 273.77 383.605 273.786 382.879 C 273.77 382.152 273.885 375.802 274.544 371.979 C 274.922 369.786 276.187 363.46 277.146 361.427 C 277.825 359.989 280.772 357.758 283.328 356.905 C 288.197 355.279 294.775 355.176 305.181 358.079 C 314.541 360.689 329.184 362.976 338.815 362.476 C 341.717 362.325 349.83 359.832 354.189 355.413 C 358.06 351.486 368.969 339.989 373.932 335.864 C 373.534 347.594 373.907 373.912 373.71 383.053 C 373.907 392.194 373.534 418.162 373.932 429.893 Z"/>
  <path style="fill: rgb(216, 216, 216); stroke: rgb(0, 0, 0); transform-box: fill-box; transform-origin: 50% 50%;" d="M 111.424 132.905 C 115.927 135.314 115.567 145.225 116.582 147.533 C 117.597 149.839 119.014 153.924 121.254 156.172 C 125.73 160.661 128.384 162.185 133.798 165.85 C 139.214 169.517 141.531 172.474 145.255 176.716 C 147.799 179.612 152.863 183.43 155.244 186.629 C 157.626 189.829 159.095 193.156 161.32 196.436 C 163.346 199.422 164.909 205.199 166.092 208.141 C 167.275 211.081 168.276 215.72 169.941 219.131 C 172.424 224.213 173.109 229.807 176.434 233.68 C 179.757 237.55 185.346 251.369 188.142 255.602 C 189.991 258.402 199.374 264.671 202.456 266.958 C 205.537 269.247 191.515 265.941 184.147 266.302 C 180.624 266.475 176.17 269.563 172.611 269.223 C 169.054 268.883 164.178 270.112 160.796 269.002 C 150.417 265.596 146.334 258.319 143.045 250.539 C 139.757 242.759 137.26 234.474 130.056 229.052 C 125.786 225.838 121.329 222.872 116.766 220.069 C 112.204 217.265 107.536 214.623 102.841 212.061 C 94.09 207.284 84.308 204.65 74.452 202.174 C 64.595 199.698 54.662 197.381 45.611 193.235 C 42.603 191.857 39.831 190.794 36.491 189.29 C 33.15 187.786 25.296 184.369 28.05 185.423 C 30.986 186.548 21.672 182.916 19.33 181.717 C 16.987 180.52 11.695 178.384 12.327 177.72 C 17.473 172.322 26.89 173.223 31.035 171.216 C 35.179 169.209 39.381 168.841 45.241 167.113 C 53.105 164.795 55.118 163.688 59.16 162.725 C 63.202 161.762 65.833 161.33 71.811 159.177 C 76.706 157.415 78.906 159.483 85.53 155.968 C 91.428 152.84 91.559 151.92 95.339 148.886 C 98.535 146.323 100.103 142.139 103.208 138.049 C 106.315 133.957 107.279 130.687 111.424 132.905 Z" transform="matrix(-1, 0, 0, -1, -0.000017, -0.000042)">
    <title>Right</title>
  </path>
  <path style="fill: rgb(216, 216, 216); stroke: rgb(0, 0, 0);" d="M 373.148 559.188 C 368.185 555.063 357.276 543.567 353.405 539.64 C 349.047 535.221 340.933 532.728 338.031 532.577 C 328.401 532.077 313.757 534.364 304.397 536.974 C 293.991 539.876 287.413 539.773 282.544 538.148 C 279.988 537.295 277.042 535.064 276.363 533.625 C 275.404 531.591 274.138 525.266 273.76 523.074 C 273.102 519.251 272.986 512.901 273.002 512.175 C 272.986 511.447 273.102 505.099 273.76 501.275 C 274.138 499.083 275.404 492.757 276.363 490.723 C 277.042 489.285 279.988 487.055 282.544 486.201 C 287.413 484.577 293.991 484.473 304.397 487.375 C 313.757 489.986 328.401 492.273 338.031 491.772 C 340.933 491.62 349.047 489.127 353.405 484.709 C 357.276 480.782 368.185 469.285 373.148 465.161 C 372.751 476.89 373.123 503.209 372.927 512.349 C 373.123 521.49 372.751 547.459 373.148 559.188 Z"/>
</svg>