<?xml version="1.0" encoding="utf-8"?>
<svg viewBox="0 0 2245 2381.061" width="2245.04px" height="2381.1px" xmlns="http://www.w3.org/2000/svg">
  <defs>
    <view id="view-0" viewBox="0 0 1122.5 793.687">
      <title>view_0</title>
    </view>
    <view id="view-1" viewBox="1122.5 0 1122.5 793.7">
      <title>view_1</title>
    </view>
    <view id="view-2" viewBox="0 793.7 1122.5 793.7">
      <title>view_2</title>
    </view>
    <view id="view-3" viewBox="1122.5 793.7 1122.5 793.7">
      <title>view_3</title>
    </view>
    <view id="view-4" viewBox="0 1587.4 1122.5 793.7">
      <title>view_4</title>
    </view>
  </defs>
  <path style="stroke: rgb(0, 0, 0); transform-box: fill-box; transform-origin: 50% 50%; fill: none;" d="M 1244.326 640.817 C 1244.228 629.331 1293.827 613.148 1315.661 605.183 C 1330.454 599.786 1379.473 592.72 1395.406 591.048 C 1411.341 589.377 1448.604 585.228 1462.083 587.003 C 1485.42 590.079 1487.878 584.964 1528.281 590.185 C 1568.685 595.405 1594.961 598.486 1622.929 603.868 C 1649.954 609.066 1688.252 615.561 1710.211 614.343 C 1732.176 613.126 1759.214 613.725 1791.314 605.648 C 1819.737 598.497 1837.718 594.144 1855.158 582.047 C 1872.597 569.952 1897.215 555.132 1926.355 552.061 C 1954.325 549.114 1977.558 566.131 1987.179 578.377 C 1996.798 590.626 2018.124 597.664 2030.482 605.787 C 2046.557 616.354 2125.867 633.224 2136.433 640.817 C 2127.818 648.408 2048.508 665.277 2032.436 675.843 C 2020.078 683.964 1998.752 691.005 1989.132 703.254 C 1979.511 715.498 1956.277 732.516 1928.305 729.568 C 1899.167 726.498 1874.548 711.68 1857.111 699.583 C 1839.671 687.486 1821.69 683.135 1793.267 675.981 C 1761.168 667.905 1734.129 668.504 1712.163 667.285 C 1690.205 666.068 1651.907 672.564 1624.882 677.763 C 1596.913 683.143 1570.638 686.225 1530.233 691.444 C 1489.829 696.667 1487.373 691.551 1464.035 694.626 C 1450.555 696.406 1413.293 692.253 1397.359 690.582 C 1381.425 688.91 1332.406 681.844 1317.613 676.447 C 1295.779 668.482 1244.228 652.3 1244.326 640.817 Z">
    <title>Top (new)</title>
  </path>
  <path style="stroke: rgb(0, 0, 0); transform-box: fill-box; transform-origin: 50% 50%; fill: none;" d="M 235.061 1330.364 C 244.39 1325.855 267.192 1319.384 277.478 1319.697 C 290.48 1320.094 299.716 1319.229 313.471 1318.364 C 357.536 1315.595 401.881 1307.718 443.294 1291.702 C 503.734 1268.328 562.218 1236.164 625.822 1225.047 C 651.876 1220.491 678.339 1231.605 704.234 1237.045 C 712.344 1238.749 722.746 1239.258 727.37 1246.376 C 738.044 1262.813 739.738 1281.224 746.651 1299.701 C 750.885 1311.016 756.347 1324.467 760.791 1335.695 C 767.197 1351.892 774.019 1367.923 781.357 1383.69 C 783.537 1388.371 789.746 1394.39 786.497 1398.352 C 762.665 1427.433 720.683 1448.196 691.379 1466.341 C 673.712 1477.281 656.873 1489.708 638.678 1499.67 C 585.607 1528.717 520.723 1539.999 461.291 1530.333 C 444.765 1527.644 408.528 1519.061 397.022 1510.336 C 377.791 1495.748 366.805 1494.571 346.892 1481.006 C 337.908 1474.888 327.096 1472.316 317.327 1467.674 C 283.224 1451.462 248.429 1436.746 210.638 1433.011 C 196.962 1431.662 183.241 1430.662 169.507 1430.345 C 167.19 1430.292 142.73 1435.175 138.655 1430.345 C 126.345 1415.755 176.57 1358.625 235.061 1330.364 Z">
    <title>Left wing top</title>
  </path>
  <path style="stroke: rgb(0, 0, 0); transform-box: fill-box; transform-origin: 50% 50%; fill: none;" d="M 245.021 1059.332 C 254.35 1063.84 277.151 1070.311 287.438 1069.997 C 300.439 1069.598 309.675 1070.466 323.43 1071.33 C 367.495 1074.099 411.842 1081.974 453.256 1097.992 C 513.695 1121.364 572.177 1153.53 635.784 1164.649 C 661.837 1169.203 688.3 1158.091 714.192 1152.651 C 722.303 1150.947 732.705 1150.436 737.33 1143.318 C 748.006 1126.881 749.699 1108.47 756.611 1089.994 C 760.845 1078.679 766.307 1065.227 770.751 1054 C 777.157 1037.801 783.978 1021.771 791.317 1006.008 C 793.497 1001.323 799.705 995.304 796.458 991.342 C 772.625 962.263 730.643 941.498 701.338 923.352 C 683.672 912.414 666.832 899.984 648.637 890.024 C 595.568 860.975 530.681 849.695 471.251 859.364 C 454.724 862.05 418.489 870.633 406.982 879.36 C 387.753 893.948 376.767 895.125 356.852 908.69 C 347.869 914.808 337.055 917.377 327.288 922.02 C 293.183 938.232 258.39 952.949 220.597 956.681 C 206.922 958.033 193.201 959.032 179.467 959.347 C 177.151 959.401 152.689 954.517 148.614 959.347 C 136.305 973.939 186.53 1031.067 245.021 1059.332 Z">
    <title>Left wing bottom</title>
  </path>
  <path style="stroke: rgb(0, 0, 0); fill: none; transform-origin: 1718.1px 1009.65px;" d="M 1945.139 1058.138 C 1935.81 1062.647 1913.009 1069.117 1902.722 1068.803 C 1889.72 1068.406 1880.485 1069.272 1866.73 1070.134 C 1822.663 1072.905 1778.318 1080.782 1736.905 1096.8 C 1676.466 1120.171 1617.983 1152.336 1554.375 1163.455 C 1528.323 1168.008 1501.86 1156.895 1475.968 1151.456 C 1467.858 1149.753 1457.454 1149.243 1452.83 1142.124 C 1442.155 1125.686 1440.462 1107.275 1433.548 1088.8 C 1429.315 1077.486 1423.853 1064.032 1419.409 1052.805 C 1413.003 1036.61 1406.182 1020.578 1398.844 1004.812 C 1396.662 1000.13 1390.452 994.111 1393.702 990.148 C 1417.535 961.067 1459.518 940.304 1488.82 922.159 C 1506.488 911.22 1523.327 898.792 1541.523 888.83 C 1594.591 859.781 1659.479 848.499 1718.91 858.168 C 1735.437 860.857 1771.672 869.44 1783.178 878.165 C 1802.407 892.753 1813.393 893.931 1833.307 907.494 C 1842.291 913.613 1853.104 916.183 1862.872 920.826 C 1896.977 937.038 1931.771 951.756 1969.563 955.489 C 1983.236 956.839 1996.959 957.838 2010.694 958.153 C 2013.009 958.209 2037.471 953.325 2041.545 958.153 C 2053.855 972.746 2003.63 1029.875 1945.139 1058.138 Z">
    <title>Right wing top</title>
  </path>
  <path style="stroke: rgb(0, 0, 0); fill: none; transform-origin: 1704.74px 1382.34px;" d="M 1931.785 1333.857 C 1922.456 1329.347 1899.655 1322.875 1889.365 1323.19 C 1876.363 1323.588 1867.129 1322.722 1853.374 1321.857 C 1809.309 1319.089 1764.963 1311.21 1723.549 1295.195 C 1663.109 1271.822 1604.626 1239.657 1541.02 1228.539 C 1514.97 1223.984 1488.505 1235.097 1462.61 1240.538 C 1454.503 1242.242 1444.097 1242.75 1439.474 1249.869 C 1428.8 1266.306 1427.104 1284.717 1420.193 1303.193 C 1415.958 1314.509 1410.496 1327.96 1406.054 1339.188 C 1399.648 1355.385 1392.826 1371.416 1385.488 1387.183 C 1383.306 1391.864 1377.098 1397.883 1380.346 1401.845 C 1404.178 1430.924 1446.162 1451.69 1475.465 1469.834 C 1493.131 1480.774 1509.97 1493.202 1528.167 1503.163 C 1581.237 1532.21 1646.123 1543.492 1705.554 1533.825 C 1722.08 1531.137 1758.314 1522.555 1769.822 1513.827 C 1789.051 1499.239 1800.038 1498.064 1819.951 1484.499 C 1828.936 1478.381 1839.75 1475.809 1849.517 1471.167 C 1883.62 1454.954 1918.414 1440.239 1956.206 1436.505 C 1969.882 1435.155 1983.605 1434.155 1997.339 1433.838 C 1999.654 1433.785 2024.114 1438.668 2028.189 1433.838 C 2040.499 1419.249 1990.276 1362.118 1931.785 1333.857 Z">
    <title>Right wing bottom</title>
  </path>
  <path style="stroke: rgb(0, 0, 0); transform-box: fill-box; transform-origin: 50% 50%; fill: none;" d="M 2203.96 265.365 C 2192.76 269.233 2138.369 278.003 2126.4 292.954 C 2122.491 297.837 2110.783 306.078 2107.812 310.19 C 2099.108 322.238 2091.245 328.251 2083.108 330.533 C 2076.272 332.45 2062.918 332.803 2052.481 334.086 C 2040.896 335.511 2018.756 327.646 2010.759 322.023 C 1994.567 310.644 1973.255 302.718 1951.877 310.132 C 1933.922 316.357 1899.601 327.525 1886.872 331.042 C 1869.862 335.74 1813.436 356.276 1788.474 364.366 C 1750.609 376.639 1716.563 382.075 1696.542 385.851 C 1677.944 389.359 1660.447 393.933 1635.818 405.068 C 1620.054 412.193 1602.066 416.705 1590.387 436.354 C 1579.831 454.118 1576.672 483.574 1557.011 490.3 C 1544.831 490.254 1532.886 455.846 1531.955 453.489 C 1520.645 424.868 1500.833 421.153 1487.773 414.433 C 1480.129 410.498 1477.623 407.462 1465.315 404.133 C 1454.484 401.205 1454.158 399.487 1440.542 395.587 C 1426.924 391.688 1408.571 386.69 1400.021 383.049 C 1389.605 378.615 1371.591 371.474 1350.793 363.451 C 1329.995 355.43 1319.016 351.579 1302.91 338.793 C 1290.541 328.968 1280.046 325.157 1268.297 315.728 C 1256.551 306.299 1257.468 309.09 1240.314 299.131 C 1231.607 294.079 1213.544 286.105 1209.095 283.664 C 1204.646 281.221 1183.626 277.04 1175.686 265.365 C 1183.626 253.691 1204.646 249.51 1209.095 247.065 C 1213.544 244.622 1231.607 236.653 1240.314 231.598 C 1257.468 221.64 1256.551 224.429 1268.297 215.001 C 1280.046 205.571 1290.541 201.761 1302.91 191.938 C 1319.016 179.151 1329.995 175.299 1350.793 167.277 C 1371.591 159.256 1389.605 152.113 1400.021 147.68 C 1408.571 144.038 1426.924 139.042 1440.542 135.143 C 1454.158 131.244 1454.484 129.523 1465.315 126.596 C 1477.623 123.268 1480.129 120.23 1487.773 116.295 C 1500.833 109.575 1520.645 105.86 1531.955 77.239 C 1532.886 74.882 1544.831 40.474 1557.011 40.429 C 1576.672 47.154 1579.831 76.612 1590.387 94.374 C 1602.066 114.024 1620.054 118.535 1635.818 125.664 C 1660.447 136.797 1677.944 141.368 1696.542 144.877 C 1716.563 148.655 1750.609 154.09 1788.474 166.363 C 1813.436 174.453 1869.862 194.988 1886.872 199.687 C 1899.601 203.205 1933.922 214.371 1951.877 220.597 C 1973.255 228.009 1994.567 220.084 2010.759 208.705 C 2018.756 203.082 2040.896 195.216 2052.481 196.642 C 2062.918 197.925 2076.272 198.279 2083.108 200.196 C 2091.245 202.479 2099.108 208.493 2107.812 220.539 C 2110.783 224.65 2122.491 232.891 2126.4 237.775 C 2138.369 252.726 2192.76 261.495 2203.96 265.365 Z">
    <title>Bottom (new)</title>
  </path>
  <path style="stroke: rgb(0, 0, 0); fill: none; transform-origin: 305.01px 1975.7px;" d="M 501.494 1766.425 C 484.255 1787.169 436.206 1832.758 419.797 1848.94 C 401.327 1867.152 390.91 1901.065 390.278 1913.189 C 388.184 1953.441 397.742 2014.636 408.654 2053.756 C 420.783 2097.249 420.35 2124.738 413.559 2145.087 C 409.992 2155.77 400.671 2168.084 394.659 2170.921 C 386.159 2174.931 359.721 2180.219 350.563 2181.796 C 334.582 2184.548 308.047 2185.031 305.01 2184.966 C 301.971 2185.031 275.436 2184.548 259.454 2181.796 C 250.294 2180.219 223.858 2174.931 215.358 2170.921 C 209.347 2168.084 200.026 2155.77 196.459 2145.087 C 189.668 2124.738 189.233 2097.249 201.365 2053.756 C 212.276 2014.636 221.834 1953.441 219.741 1913.189 C 219.109 1901.065 208.69 1867.152 190.221 1848.94 C 173.81 1832.758 125.762 1787.169 108.525 1766.425 C 157.547 1768.089 267.538 1766.528 305.74 1767.351 C 343.943 1766.528 452.471 1768.089 501.494 1766.425 Z"/>
  <path style="stroke: rgb(0, 0, 0); fill: none; transform-origin: 845.375px 1978.97px;" d="M 1041.86 1769.7 C 1024.62 1790.445 976.572 1836.034 960.161 1852.216 C 941.693 1870.428 931.274 1904.341 930.642 1916.465 C 928.549 1956.716 938.108 2017.911 949.018 2057.031 C 961.149 2100.525 960.716 2128.013 953.925 2148.363 C 950.358 2159.046 941.036 2171.359 935.025 2174.197 C 926.524 2178.208 900.088 2183.495 890.928 2185.071 C 874.948 2187.824 848.413 2188.309 845.375 2188.241 C 842.336 2188.309 815.802 2187.824 799.821 2185.071 C 790.661 2183.495 764.223 2178.208 755.723 2174.197 C 749.713 2171.359 740.391 2159.046 736.824 2148.363 C 730.034 2128.013 729.599 2100.525 741.731 2057.031 C 752.64 2017.911 762.198 1956.716 760.105 1916.465 C 759.473 1904.341 749.055 1870.428 730.588 1852.216 C 714.177 1836.034 666.127 1790.445 648.889 1769.7 C 697.912 1771.364 807.903 1769.804 846.107 1770.627 C 884.307 1769.804 992.837 1771.364 1041.86 1769.7 Z"/>
  <path style="stroke: rgb(0, 0, 0); fill: none; transform-origin: 340.245px 336.632px;" d="M 70.181 247.649 C 84.781 232.073 124.403 244.25 134.816 242.653 C 145.223 241.046 163.244 239.743 174.739 233.132 C 197.705 219.921 206.726 210.855 227.386 192.961 C 248.042 175.068 262.484 168.913 283.636 158.466 C 298.083 151.329 318.969 135.015 334.463 128.862 C 349.957 122.713 364.973 120.382 380.623 114.946 C 394.869 110 419.883 109.937 433.033 108.338 C 446.184 106.745 465.995 107.727 481.566 104.691 C 504.766 100.169 528.091 103.451 547.32 94.22 C 566.541 84.992 628.372 77.378 648.484 70.667 C 661.79 66.227 697.239 35.128 709.811 25.167 C 722.383 15.205 693.865 68.233 687.352 98.369 C 684.242 112.776 691.895 134.097 686.672 148.096 C 681.453 162.091 681.134 183.101 672.996 195.555 C 648.018 233.768 614.229 242.381 579.261 247.241 C 544.297 252.103 508.152 253.218 478.472 276.437 C 460.88 290.195 444.087 304.978 427.836 320.366 C 411.58 335.751 395.868 351.741 380.445 367.917 C 351.69 398.079 330.478 434.716 309.823 471.83 C 289.166 508.941 269.069 546.534 242.539 578.588 C 233.723 589.241 226.434 599.279 216.751 611.137 C 207.066 622.996 184.776 651.009 192.009 641.031 C 199.723 630.394 174.988 664.063 167.615 672.223 C 160.248 680.384 145.902 699.443 143.906 696.173 C 127.682 669.561 141.502 632.515 137.885 613.609 C 134.267 594.712 137.327 577.352 136.691 551.827 C 135.836 517.57 133.549 508.247 134.034 490.888 C 134.518 473.528 135.615 462.442 133.393 435.982 C 131.577 414.311 142.304 407.668 135.279 377.128 C 129.029 349.935 125.455 348.408 117.3 329.868 C 110.409 314.193 95.217 303.34 82.065 286.378 C 68.91 269.411 56.749 261.984 70.181 247.649 Z">
    <title>Right</title>
  </path>
  <path style="stroke: rgb(0, 0, 0); fill: none; transform-origin: 726.919px 447.905px;" d="M 996.983 536.888 C 982.384 552.464 942.762 540.287 932.348 541.884 C 921.942 543.492 903.92 544.794 892.425 551.405 C 869.459 564.616 860.438 573.682 839.778 591.576 C 819.122 609.469 804.68 615.624 783.528 626.071 C 769.081 633.208 748.195 649.523 732.702 655.675 C 717.207 661.824 702.191 664.155 686.542 669.591 C 672.296 674.537 647.282 674.6 634.131 676.199 C 620.98 677.792 601.17 676.811 585.598 679.846 C 562.398 684.368 539.074 681.087 519.844 690.317 C 500.623 699.545 438.792 707.159 418.681 713.87 C 405.375 718.31 369.925 749.409 357.354 759.371 C 344.782 769.332 373.299 716.304 379.812 686.168 C 382.923 671.761 375.27 650.441 380.493 636.442 C 385.711 622.446 386.03 601.436 394.168 588.982 C 419.147 550.77 452.935 542.156 487.902 537.297 C 522.867 532.434 559.012 531.319 588.693 508.101 C 606.284 494.342 623.078 479.56 639.329 464.171 C 655.584 448.786 671.297 432.796 686.72 416.62 C 715.474 386.458 736.686 349.819 757.343 312.705 C 777.999 275.594 798.095 238.001 824.627 205.947 C 833.441 195.295 840.73 185.257 850.413 173.399 C 860.1 161.54 882.388 133.527 875.156 143.505 C 867.442 154.142 892.178 120.473 899.549 112.313 C 906.916 104.152 921.263 85.093 923.258 88.363 C 939.483 114.975 925.662 152.021 929.28 170.927 C 932.899 189.825 929.838 207.184 930.475 232.708 C 931.329 266.965 933.617 276.289 933.13 293.647 C 932.647 311.007 931.55 322.093 933.772 348.553 C 935.588 370.225 924.861 376.867 931.886 407.407 C 938.136 434.602 941.709 436.128 949.864 454.669 C 956.756 470.345 971.949 481.198 985.099 498.159 C 998.255 515.126 1010.415 522.553 996.983 536.888 Z">
    <title>Right</title>
  </path>
</svg>