<?xml version="1.0" encoding="utf-8"?>
<svg viewBox="0 0 595.08 779.786" xmlns="http://www.w3.org/2000/svg">
  <defs>
    <view id="view-1" viewBox="674.831 12.846 523.985 750.296">
      <title>View 1</title>
    </view>
    <view id="view-2" viewBox="1240.606 7.927 522.836 755.375">
      <title>View 2</title>
    </view>
    <view id="view-3" viewBox="1830.707 14.213 565.636 743.021">
      <title>View 3</title>
    </view>
    <view id="view-4" viewBox="-9.748 845.189 605.258 777.395">
      <title>View 4</title>
    </view>
  </defs>
  <path style="fill: rgb(216, 216, 216); stroke: rgb(0, 0, 0);" d="M 364.99 412.335 C 378.395 405.164 377.322 375.666 380.34 368.798 C 383.363 361.936 387.58 349.78 394.246 343.092 C 407.566 329.73 415.465 325.196 431.58 314.284 C 447.696 303.373 454.59 294.574 465.675 281.951 C 473.246 273.329 488.317 261.969 495.405 252.447 C 502.49 242.922 506.861 233.023 513.484 223.261 C 519.512 214.374 524.166 197.18 527.688 188.429 C 531.208 179.677 534.185 165.87 539.142 155.719 C 546.529 140.595 548.57 123.946 558.463 112.421 C 568.353 100.901 584.986 59.775 593.308 47.178 C 598.815 38.844 626.739 20.192 635.908 13.381 C 645.077 6.57 603.346 16.412 581.418 15.337 C 570.935 14.822 557.68 5.628 547.089 6.641 C 536.501 7.651 521.99 3.998 511.924 7.3 C 481.037 17.438 468.886 39.092 459.098 62.248 C 449.309 85.402 441.88 110.057 420.439 126.194 C 407.733 135.758 394.471 144.585 380.891 152.927 C 367.313 161.272 353.418 169.133 339.449 176.76 C 313.403 190.979 284.293 198.817 254.959 206.185 C 225.625 213.553 196.064 220.448 169.126 232.789 C 160.175 236.888 151.927 240.052 141.986 244.527 C 132.043 249.004 108.668 259.172 116.864 256.036 C 125.602 252.691 97.885 263.499 90.913 267.066 C 83.942 270.629 68.189 276.985 70.07 278.96 C 85.385 295.024 113.414 292.346 125.75 298.318 C 138.082 304.29 150.586 305.384 168.025 310.527 C 191.43 317.428 197.422 320.72 209.451 323.585 C 221.481 326.452 229.309 327.74 247.099 334.145 C 261.671 339.389 268.217 333.235 287.929 343.695 C 305.481 353.006 305.873 355.745 317.122 364.772 C 326.634 372.401 331.299 384.851 340.542 397.023 C 349.788 409.199 352.655 418.932 364.99 412.335 Z" transform="matrix(-0.5, -0.866025, 0.866025, -0.5, 340.032199, 616.669422)">
    <title>Right</title>
  </path>
  <path style="stroke: rgb(0, 0, 0); fill: rgb(216, 216, 216);" d="M -204.228 1236.31 C -204.298 1228.131 -168.978 1216.607 -153.43 1210.935 C -142.896 1207.092 -107.99 1202.06 -96.644 1200.87 C -85.297 1199.679 -58.762 1196.725 -49.163 1197.989 C -32.545 1200.18 -30.795 1196.537 -2.024 1200.255 C 26.748 1203.972 45.459 1206.166 65.375 1209.998 C 84.619 1213.7 111.891 1218.325 127.528 1217.458 C 143.169 1216.591 162.423 1217.018 185.281 1211.266 C 205.521 1206.174 218.325 1203.074 230.744 1194.46 C 243.163 1185.847 260.693 1175.294 281.443 1173.107 C 301.361 1171.008 317.905 1183.126 324.756 1191.847 C 331.606 1200.569 346.792 1205.581 355.592 1211.365 C 367.039 1218.89 423.516 1230.903 431.04 1236.31 C 424.905 1241.715 368.428 1253.728 356.983 1261.252 C 348.183 1267.035 332.997 1272.049 326.147 1280.771 C 319.296 1289.49 302.751 1301.609 282.832 1299.509 C 262.083 1297.323 244.552 1286.771 232.135 1278.157 C 219.716 1269.543 206.912 1266.444 186.672 1261.35 C 163.814 1255.599 144.56 1256.026 128.918 1255.158 C 113.282 1254.291 86.01 1258.917 66.765 1262.619 C 46.849 1266.45 28.138 1268.645 -0.634 1272.361 C -29.406 1276.081 -31.154 1272.437 -47.773 1274.627 C -57.373 1275.894 -83.907 1272.937 -95.253 1271.747 C -106.6 1270.557 -141.506 1265.525 -152.04 1261.682 C -167.588 1256.01 -204.298 1244.487 -204.228 1236.31 Z" transform="matrix(0, 1, -1, 0, 1334.916641, 1137.699692)">
    <title>Top (new)</title>
  </path>
  <path style="fill: rgb(216, 216, 216); stroke: rgb(0, 0, 0);" d="M 906.932 267.716 C 913.576 264.505 929.813 259.897 937.138 260.12 C 946.396 260.403 952.973 259.787 962.768 259.171 C 994.146 257.199 1025.725 251.59 1055.215 240.185 C 1098.254 223.541 1139.9 200.636 1185.193 192.72 C 1203.745 189.476 1222.59 197.39 1241.029 201.264 C 1246.804 202.477 1254.212 202.84 1257.505 207.908 C 1265.106 219.613 1266.312 232.724 1271.234 245.881 C 1274.25 253.938 1278.139 263.517 1281.304 271.512 C 1285.865 283.046 1290.723 294.462 1295.948 305.689 C 1297.501 309.023 1301.922 313.309 1299.609 316.13 C 1282.638 336.839 1252.742 351.624 1231.875 364.545 C 1219.295 372.335 1207.304 381.185 1194.347 388.278 C 1156.555 408.963 1110.351 416.997 1068.03 410.114 C 1056.262 408.198 1030.458 402.087 1022.265 395.874 C 1008.57 385.486 1000.747 384.647 986.567 374.988 C 980.17 370.631 972.47 368.8 965.514 365.494 C 941.229 353.95 916.452 343.47 889.541 340.811 C 879.802 339.85 870.032 339.138 860.251 338.912 C 858.602 338.875 841.184 342.352 838.282 338.912 C 829.516 328.523 865.281 287.841 906.932 267.716 Z" transform="matrix(0, 1, -1, 0, 1370.847832, -766.366035)">
    <title>Left wing top</title>
  </path>
  <text style="white-space: pre; fill: rgb(51, 51, 51); font-family: Arial, sans-serif; font-size: 19.3px;" x="932.071" y="188.207" transform="matrix(0, 1.302309, -1.350658, 0, 1323.033936, -901.502686)"><title>Left wing top text</title>Left Wing Top</text>
  <path style="fill: rgb(216, 216, 216); stroke: rgb(0, 0, 0);" d="M 649.981 326.03 C 656.624 329.24 672.861 333.848 680.186 333.624 C 689.444 333.341 696.021 333.958 705.816 334.574 C 737.194 336.546 768.774 342.154 798.264 353.56 C 841.303 370.203 882.948 393.108 928.242 401.026 C 946.795 404.269 965.639 396.356 984.077 392.482 C 989.852 391.269 997.26 390.905 1000.553 385.836 C 1008.155 374.132 1009.361 361.021 1014.283 347.864 C 1017.298 339.807 1021.188 330.228 1024.352 322.233 C 1028.914 310.698 1033.771 299.283 1038.997 288.058 C 1040.55 284.722 1044.97 280.436 1042.658 277.614 C 1025.687 256.907 995.791 242.121 974.923 229.199 C 962.343 221.41 950.352 212.559 937.395 205.466 C 899.605 184.781 853.399 176.748 811.079 183.633 C 799.31 185.546 773.507 191.658 765.313 197.872 C 751.62 208.26 743.797 209.099 729.616 218.758 C 723.219 223.115 715.518 224.944 708.563 228.25 C 684.277 239.795 659.501 250.275 632.589 252.933 C 622.851 253.895 613.08 254.606 603.3 254.831 C 601.651 254.87 584.232 251.392 581.33 254.831 C 572.565 265.222 608.33 305.903 649.981 326.03 Z" transform="matrix(0, 1, -1, 0, 1103.160179, -520.150551)">
    <title>Left wing bottom</title>
  </path>
  <text style="white-space: pre; fill: rgb(51, 51, 51); font-family: Arial, sans-serif; font-size: 19.3px;" x="907.934" y="394.399" transform="matrix(0, 1.302309, -1.350658, 0, 1335.686646, -920.476624)"><title>Left wing bottom text</title>Left Wing Bottom</text>
  <path style="fill: rgb(216, 216, 216); stroke: rgb(0, 0, 0);" d="M 2083.758 272.142 C 2090.401 268.931 2106.638 264.323 2113.963 264.547 C 2123.222 264.83 2129.798 264.213 2139.593 263.599 C 2170.973 261.626 2202.551 256.017 2232.041 244.611 C 2275.08 227.968 2316.725 205.064 2362.02 197.146 C 2380.572 193.903 2399.416 201.817 2417.854 205.69 C 2423.629 206.903 2431.038 207.266 2434.33 212.335 C 2441.932 224.041 2443.138 237.151 2448.061 250.307 C 2451.075 258.364 2454.965 267.944 2458.129 275.939 C 2462.691 287.472 2467.548 298.888 2472.774 310.115 C 2474.327 313.449 2478.749 317.735 2476.435 320.557 C 2459.464 341.266 2429.568 356.051 2408.702 368.972 C 2396.12 376.761 2384.129 385.612 2371.172 392.705 C 2333.383 413.391 2287.176 421.425 2244.856 414.54 C 2233.087 412.625 2207.284 406.513 2199.09 400.3 C 2185.397 389.912 2177.574 389.073 2163.393 379.415 C 2156.996 375.057 2149.296 373.227 2142.34 369.921 C 2118.054 358.377 2093.278 347.896 2066.366 345.238 C 2056.629 344.277 2046.857 343.565 2037.077 343.34 C 2035.428 343.301 2018.009 346.779 2015.108 343.34 C 2006.342 332.949 2042.107 292.268 2083.758 272.142 Z" transform="matrix(0, -1, 1, 0, 1938.765594, 2552.100861)">
    <title>Right wing top</title>
  </path>
  <text style="white-space: pre; fill: rgb(51, 51, 51); font-family: Arial, sans-serif; font-size: 19.3px;" x="1348.674" y="198.003" transform="matrix(0, 1.302309, -1.350658, 0, 2508.072998, -1620.383301)"><title>Right wing top text</title>Right Wing Top</text>
  <path style="fill: rgb(216, 216, 216); stroke: rgb(0, 0, 0);" d="M 1814.406 333.662 C 1821.049 336.874 1837.286 341.482 1844.613 341.258 C 1853.871 340.975 1860.447 341.591 1870.242 342.207 C 1901.621 344.179 1933.199 349.789 1962.69 361.193 C 2005.729 377.837 2047.375 400.742 2092.669 408.659 C 2111.219 411.902 2130.064 403.989 2148.504 400.114 C 2154.277 398.901 2161.687 398.539 2164.979 393.47 C 2172.58 381.765 2173.788 368.654 2178.709 355.498 C 2181.725 347.44 2185.614 337.861 2188.777 329.866 C 2193.339 318.332 2198.197 306.916 2203.423 295.689 C 2204.976 292.355 2209.397 288.069 2207.084 285.248 C 2190.113 264.541 2160.217 249.754 2139.35 236.833 C 2126.77 229.043 2114.779 220.193 2101.821 213.1 C 2064.03 192.415 2017.825 184.381 1975.504 191.265 C 1963.736 193.18 1937.934 199.291 1929.739 205.506 C 1916.046 215.894 1908.222 216.731 1894.042 226.39 C 1887.644 230.747 1879.944 232.578 1872.989 235.884 C 1848.704 247.429 1823.927 257.908 1797.016 260.567 C 1787.277 261.528 1777.505 262.24 1767.725 262.466 C 1766.076 262.503 1748.658 259.026 1745.757 262.466 C 1736.991 272.855 1772.755 313.537 1814.406 333.662 Z" transform="matrix(0, -1, 1, 0, 1676.944252, 2275.219566)">
    <title>Right wing bottom</title>
  </path>
  <text style="white-space: pre; fill: rgb(51, 51, 51); font-family: Arial, sans-serif; font-size: 19.3px;" x="1357.639" y="399.368" transform="matrix(0, 1.302309, -1.350658, 0, 2525.944092, -1630.758789)"><title>Right wing bottom text</title>Right Wing Bottom</text>
  <path style="stroke: rgb(0, 0, 0); fill: rgb(216, 216, 216);" d="M 776.797 1238.67 C 768.822 1241.425 730.09 1247.67 721.567 1258.316 C 718.783 1261.793 710.446 1267.662 708.331 1270.59 C 702.132 1279.169 696.533 1283.451 690.739 1285.076 C 685.871 1286.441 676.361 1286.692 668.929 1287.606 C 660.68 1288.621 644.914 1283.02 639.219 1279.016 C 627.689 1270.913 612.513 1265.269 597.29 1270.549 C 584.504 1274.982 560.064 1282.934 551 1285.438 C 538.887 1288.784 498.706 1303.408 480.931 1309.169 C 453.967 1317.908 429.723 1321.779 415.466 1324.468 C 402.222 1326.966 389.763 1330.223 372.225 1338.152 C 360.999 1343.226 348.19 1346.439 339.873 1360.431 C 332.356 1373.08 330.107 1394.056 316.106 1398.846 C 307.433 1398.813 298.927 1374.311 298.264 1372.633 C 290.21 1352.252 276.102 1349.606 266.802 1344.821 C 261.359 1342.019 259.574 1339.857 250.81 1337.486 C 243.097 1335.401 242.865 1334.178 233.169 1331.401 C 223.472 1328.624 210.403 1325.065 204.314 1322.472 C 196.897 1319.315 184.069 1314.23 169.259 1308.517 C 154.449 1302.805 146.631 1300.063 135.162 1290.958 C 126.354 1283.962 118.88 1281.248 110.514 1274.533 C 102.15 1267.819 102.803 1269.807 90.588 1262.715 C 84.387 1259.117 71.525 1253.439 68.356 1251.701 C 65.188 1249.961 50.22 1246.984 44.566 1238.67 C 50.22 1230.357 65.188 1227.38 68.356 1225.639 C 71.525 1223.899 84.387 1218.224 90.588 1214.625 C 102.803 1207.534 102.15 1209.52 110.514 1202.806 C 118.88 1196.091 126.354 1193.378 135.162 1186.383 C 146.631 1177.277 154.449 1174.534 169.259 1168.822 C 184.069 1163.11 196.897 1158.024 204.314 1154.867 C 210.403 1152.274 223.472 1148.716 233.169 1145.939 C 242.865 1143.163 243.097 1141.938 250.81 1139.853 C 259.574 1137.483 261.359 1135.32 266.802 1132.518 C 276.102 1127.733 290.21 1125.087 298.264 1104.706 C 298.927 1103.028 307.433 1078.526 316.106 1078.494 C 330.107 1083.283 332.356 1104.259 339.873 1116.908 C 348.19 1130.901 360.999 1134.113 372.225 1139.189 C 389.763 1147.117 402.222 1150.372 415.466 1152.871 C 429.723 1155.561 453.967 1159.432 480.931 1168.171 C 498.706 1173.932 538.887 1188.555 551 1191.901 C 560.064 1194.406 584.504 1202.357 597.29 1206.791 C 612.513 1212.069 627.689 1206.426 639.219 1198.323 C 644.914 1194.319 660.68 1188.717 668.929 1189.733 C 676.361 1190.647 685.871 1190.898 690.739 1192.264 C 696.533 1193.889 702.132 1198.171 708.331 1206.75 C 710.446 1209.677 718.783 1215.546 721.567 1219.023 C 730.09 1229.67 768.822 1235.914 776.797 1238.67 Z" transform="matrix(0, 1, -1, 0, 1639.127983, 838.211983)">
    <title>Bottom (new)</title>
  </path>
  <path style="fill: rgb(216, 216, 216); stroke: rgb(0, 0, 0);" d="M 1717.237 328.058 C 1702.465 315.782 1670.001 281.566 1658.478 269.881 C 1645.509 256.729 1621.36 249.311 1612.726 248.861 C 1584.063 247.37 1540.486 254.176 1512.629 261.946 C 1481.658 270.584 1462.083 270.275 1447.592 265.44 C 1439.985 262.9 1431.216 256.262 1429.196 251.981 C 1426.34 245.928 1422.575 227.102 1421.452 220.58 C 1419.492 209.2 1419.148 190.305 1419.195 188.142 C 1419.148 185.978 1419.492 167.082 1421.452 155.702 C 1422.575 149.179 1426.34 130.354 1429.196 124.301 C 1431.216 120.021 1439.985 113.383 1447.592 110.843 C 1462.083 106.007 1481.658 105.698 1512.629 114.337 C 1540.486 122.106 1584.063 128.912 1612.726 127.422 C 1621.36 126.972 1645.509 119.553 1658.478 106.401 C 1670.001 94.715 1702.465 60.5 1717.237 48.225 C 1716.052 83.134 1717.163 161.458 1716.577 188.662 C 1717.163 215.866 1716.052 293.149 1717.237 328.058 Z"/>
  <path style="fill: rgb(216, 216, 216); stroke: rgb(0, 0, 0);" d="M 307.734 329.312 C 321.139 336.483 320.066 365.981 323.084 372.849 C 326.107 379.711 330.324 391.867 336.99 398.555 C 350.31 411.917 358.209 416.451 374.324 427.363 C 390.44 438.274 397.334 447.073 408.419 459.696 C 415.99 468.318 431.061 479.678 438.149 489.2 C 445.234 498.725 449.605 508.624 456.228 518.386 C 462.256 527.273 466.91 544.467 470.432 553.218 C 473.952 561.97 476.929 575.777 481.886 585.928 C 489.273 601.052 491.314 617.701 501.207 629.226 C 511.097 640.746 527.73 681.872 536.052 694.469 C 541.559 702.803 569.483 721.455 578.652 728.266 C 587.821 735.077 546.09 725.235 524.162 726.31 C 513.679 726.825 500.424 736.019 489.833 735.006 C 479.245 733.996 464.734 737.649 454.668 734.347 C 423.781 724.209 411.63 702.555 401.842 679.399 C 392.053 656.245 384.624 631.59 363.183 615.453 C 350.477 605.889 337.215 597.062 323.635 588.72 C 310.057 580.375 296.162 572.514 282.193 564.887 C 256.147 550.668 227.037 542.83 197.703 535.462 C 168.369 528.094 138.808 521.199 111.87 508.858 C 102.919 504.759 94.671 501.595 84.73 497.12 C 74.787 492.643 51.412 482.475 59.608 485.611 C 68.346 488.956 40.629 478.148 33.657 474.581 C 26.686 471.018 10.933 464.662 12.814 462.687 C 28.129 446.623 56.158 449.301 68.494 443.329 C 80.826 437.357 93.33 436.263 110.769 431.12 C 134.174 424.219 140.166 420.927 152.195 418.062 C 164.225 415.195 172.053 413.907 189.843 407.502 C 204.415 402.258 210.961 408.412 230.673 397.952 C 248.225 388.641 248.617 385.902 259.866 376.875 C 269.378 369.246 274.043 356.796 283.286 344.624 C 292.532 332.448 295.399 322.715 307.734 329.312 Z" transform="matrix(-1, 0, 0, -1, 592.607185, 1062.942261)">
    <title>Right</title>
  </path>
  <path style="fill: rgb(216, 216, 216); stroke: rgb(0, 0, 0);" d="M 1714.905 712.852 C 1700.133 700.576 1667.668 666.361 1656.146 654.675 C 1643.177 641.524 1619.028 634.105 1610.394 633.655 C 1581.731 632.164 1538.154 638.971 1510.297 646.74 C 1479.325 655.378 1459.751 655.07 1445.26 650.234 C 1437.652 647.694 1428.884 641.056 1426.864 636.775 C 1424.008 630.722 1420.243 611.897 1419.12 605.374 C 1417.16 593.995 1416.815 575.099 1416.863 572.936 C 1416.815 570.772 1417.16 551.877 1419.12 540.497 C 1420.243 533.974 1424.008 515.148 1426.864 509.095 C 1428.884 504.815 1437.652 498.177 1445.26 495.637 C 1459.751 490.802 1479.325 490.492 1510.297 499.131 C 1538.154 506.9 1581.731 513.706 1610.394 512.216 C 1619.028 511.766 1643.177 504.347 1656.146 491.196 C 1667.668 479.51 1700.133 445.294 1714.905 433.019 C 1713.72 467.928 1714.831 546.252 1714.245 573.457 C 1714.831 600.66 1713.72 677.943 1714.905 712.852 Z"/>
</svg>