<?xml version="1.0" encoding="utf-8"?>
<svg viewBox="0 0 2245 2381.061" width="2245.04px" height="2381.1px" xmlns="http://www.w3.org/2000/svg">
  <defs>
    <view id="view-0" viewBox="0 0 1122.5 793.687">
      <title>view_0</title>
    </view>
    <view id="view-1" viewBox="1122.5 0 1122.5 793.7">
      <title>view_1</title>
    </view>
    <view id="view-2" viewBox="0 793.7 1122.5 793.7">
      <title>view_2</title>
    </view>
    <view id="view-3" viewBox="1122.5 793.7 1122.5 793.7">
      <title>view_3</title>
    </view>
    <view id="view-4" viewBox="0 1587.4 1122.5 793.7">
      <title>view_4</title>
    </view>
  </defs>
  <path style="stroke: rgb(0, 0, 0); transform-box: fill-box; transform-origin: 50% 50%; fill: none;" d="M 1244.326 640.817 C 1244.228 629.331 1293.827 613.148 1315.661 605.183 C 1330.454 599.786 1379.473 592.72 1395.406 591.048 C 1411.341 589.377 1448.604 585.228 1462.083 587.003 C 1485.42 590.079 1487.878 584.964 1528.281 590.185 C 1568.685 595.405 1594.961 598.486 1622.929 603.868 C 1649.954 609.066 1688.252 615.561 1710.211 614.343 C 1732.176 613.126 1759.214 613.725 1791.314 605.648 C 1819.737 598.497 1837.718 594.144 1855.158 582.047 C 1872.597 569.952 1897.215 555.132 1926.355 552.061 C 1954.325 549.114 1977.558 566.131 1987.179 578.377 C 1996.798 590.626 2018.124 597.664 2030.482 605.787 C 2046.557 616.354 2125.867 633.224 2136.433 640.817 C 2127.818 648.408 2048.508 665.277 2032.436 675.843 C 2020.078 683.964 1998.752 691.005 1989.132 703.254 C 1979.511 715.498 1956.277 732.516 1928.305 729.568 C 1899.167 726.498 1874.548 711.68 1857.111 699.583 C 1839.671 687.486 1821.69 683.135 1793.267 675.981 C 1761.168 667.905 1734.129 668.504 1712.163 667.285 C 1690.205 666.068 1651.907 672.564 1624.882 677.763 C 1596.913 683.143 1570.638 686.225 1530.233 691.444 C 1489.829 696.667 1487.373 691.551 1464.035 694.626 C 1450.555 696.406 1413.293 692.253 1397.359 690.582 C 1381.425 688.91 1332.406 681.844 1317.613 676.447 C 1295.779 668.482 1244.228 652.3 1244.326 640.817 Z">
    <title>Top (new)</title>
  </path>
  <path style="stroke: rgb(0, 0, 0); transform-box: fill-box; transform-origin: 50% 50%; fill: none;" d="M 235.061 1330.364 C 244.39 1325.855 267.192 1319.384 277.478 1319.697 C 290.48 1320.094 299.716 1319.229 313.471 1318.364 C 357.536 1315.595 401.881 1307.718 443.294 1291.702 C 503.734 1268.328 562.218 1236.164 625.822 1225.047 C 651.876 1220.491 678.339 1231.605 704.234 1237.045 C 712.344 1238.749 722.746 1239.258 727.37 1246.376 C 738.044 1262.813 739.738 1281.224 746.651 1299.701 C 750.885 1311.016 756.347 1324.467 760.791 1335.695 C 767.197 1351.892 774.019 1367.923 781.357 1383.69 C 783.537 1388.371 789.746 1394.39 786.497 1398.352 C 762.665 1427.433 720.683 1448.196 691.379 1466.341 C 673.712 1477.281 656.873 1489.708 638.678 1499.67 C 585.607 1528.717 520.723 1539.999 461.291 1530.333 C 444.765 1527.644 408.528 1519.061 397.022 1510.336 C 377.791 1495.748 366.805 1494.571 346.892 1481.006 C 337.908 1474.888 327.096 1472.316 317.327 1467.674 C 283.224 1451.462 248.429 1436.746 210.638 1433.011 C 196.962 1431.662 183.241 1430.662 169.507 1430.345 C 167.19 1430.292 142.73 1435.175 138.655 1430.345 C 126.345 1415.755 176.57 1358.625 235.061 1330.364 Z">
    <title>Left wing top</title>
  </path>
  <path style="stroke: rgb(0, 0, 0); transform-box: fill-box; transform-origin: 50% 50%; fill: none;" d="M 245.021 1059.332 C 254.35 1063.84 277.151 1070.311 287.438 1069.997 C 300.439 1069.598 309.675 1070.466 323.43 1071.33 C 367.495 1074.099 411.842 1081.974 453.256 1097.992 C 513.695 1121.364 572.177 1153.53 635.784 1164.649 C 661.837 1169.203 688.3 1158.091 714.192 1152.651 C 722.303 1150.947 732.705 1150.436 737.33 1143.318 C 748.006 1126.881 749.699 1108.47 756.611 1089.994 C 760.845 1078.679 766.307 1065.227 770.751 1054 C 777.157 1037.801 783.978 1021.771 791.317 1006.008 C 793.497 1001.323 799.705 995.304 796.458 991.342 C 772.625 962.263 730.643 941.498 701.338 923.352 C 683.672 912.414 666.832 899.984 648.637 890.024 C 595.568 860.975 530.681 849.695 471.251 859.364 C 454.724 862.05 418.489 870.633 406.982 879.36 C 387.753 893.948 376.767 895.125 356.852 908.69 C 347.869 914.808 337.055 917.377 327.288 922.02 C 293.183 938.232 258.39 952.949 220.597 956.681 C 206.922 958.033 193.201 959.032 179.467 959.347 C 177.151 959.401 152.689 954.517 148.614 959.347 C 136.305 973.939 186.53 1031.067 245.021 1059.332 Z">
    <title>Left wing bottom</title>
  </path>
  <path style="stroke: rgb(0, 0, 0); transform-box: fill-box; transform-origin: 50% 50%; fill: none;" d="M 1491.058 961.168 C 1500.387 956.659 1523.188 950.189 1533.475 950.503 C 1546.477 950.9 1555.712 950.034 1569.467 949.172 C 1613.534 946.401 1657.879 938.524 1699.292 922.506 C 1759.731 899.135 1818.214 866.97 1881.822 855.851 C 1907.874 851.298 1934.337 862.411 1960.229 867.85 C 1968.339 869.553 1978.743 870.063 1983.367 877.182 C 1994.042 893.62 1995.735 912.031 2002.649 930.506 C 2006.882 941.82 2012.344 955.274 2016.788 966.501 C 2023.194 982.696 2030.015 998.728 2037.353 1014.494 C 2039.535 1019.176 2045.745 1025.195 2042.495 1029.158 C 2018.662 1058.239 1976.679 1079.002 1947.377 1097.147 C 1929.709 1108.086 1912.87 1120.514 1894.674 1130.476 C 1841.606 1159.525 1776.718 1170.807 1717.287 1161.138 C 1700.76 1158.449 1664.525 1149.866 1653.019 1141.141 C 1633.79 1126.553 1622.804 1125.375 1602.89 1111.812 C 1593.906 1105.693 1583.093 1103.123 1573.325 1098.48 C 1539.22 1082.268 1504.426 1067.55 1466.634 1063.817 C 1452.961 1062.467 1439.238 1061.468 1425.503 1061.153 C 1423.188 1061.097 1398.726 1065.981 1394.652 1061.153 C 1382.342 1046.56 1432.567 989.431 1491.058 961.168 Z" transform="matrix(-1, 0, 0, -1, 0.000121, 0.00006)">
    <title>Right wing top</title>
  </path>
  <path style="stroke: rgb(0, 0, 0); transform-box: fill-box; transform-origin: 50% 50%; fill: none;" d="M 1477.701 1430.822 C 1487.03 1435.332 1509.831 1441.804 1520.121 1441.489 C 1533.123 1441.091 1542.357 1441.957 1556.112 1442.822 C 1600.177 1445.59 1644.523 1453.469 1685.937 1469.484 C 1746.377 1492.857 1804.86 1525.022 1868.466 1536.14 C 1894.516 1540.695 1920.981 1529.582 1946.876 1524.141 C 1954.983 1522.437 1965.389 1521.929 1970.012 1514.81 C 1980.686 1498.373 1982.382 1479.962 1989.293 1461.486 C 1993.528 1450.17 1998.99 1436.719 2003.432 1425.491 C 2009.838 1409.294 2016.66 1393.263 2023.998 1377.496 C 2026.18 1372.815 2032.388 1366.796 2029.14 1362.834 C 2005.308 1333.755 1963.324 1312.989 1934.021 1294.845 C 1916.355 1283.905 1899.516 1271.477 1881.319 1261.516 C 1828.249 1232.469 1763.363 1221.187 1703.932 1230.854 C 1687.406 1233.542 1651.172 1242.124 1639.664 1250.852 C 1620.435 1265.44 1609.448 1266.615 1589.535 1280.18 C 1580.55 1286.298 1569.736 1288.87 1559.969 1293.512 C 1525.866 1309.725 1491.072 1324.44 1453.28 1328.174 C 1439.604 1329.524 1425.881 1330.524 1412.147 1330.841 C 1409.832 1330.894 1385.372 1326.011 1381.297 1330.841 C 1368.987 1345.43 1419.21 1402.561 1477.701 1430.822 Z" transform="matrix(-1, 0, 0, -1, 0.000132, -0.000249)">
    <title>Right wing bottom</title>
  </path>
  <path style="stroke: rgb(0, 0, 0); transform-box: fill-box; transform-origin: 50% 50%; fill: none;" d="M 2203.96 265.365 C 2192.76 269.233 2138.369 278.003 2126.4 292.954 C 2122.491 297.837 2110.783 306.078 2107.812 310.19 C 2099.108 322.238 2091.245 328.251 2083.108 330.533 C 2076.272 332.45 2062.918 332.803 2052.481 334.086 C 2040.896 335.511 2018.756 327.646 2010.759 322.023 C 1994.567 310.644 1973.255 302.718 1951.877 310.132 C 1933.922 316.357 1899.601 327.525 1886.872 331.042 C 1869.862 335.74 1813.436 356.276 1788.474 364.366 C 1750.609 376.639 1716.563 382.075 1696.542 385.851 C 1677.944 389.359 1660.447 393.933 1635.818 405.068 C 1620.054 412.193 1602.066 416.705 1590.387 436.354 C 1579.831 454.118 1576.672 483.574 1557.011 490.3 C 1544.831 490.254 1532.886 455.846 1531.955 453.489 C 1520.645 424.868 1500.833 421.153 1487.773 414.433 C 1480.129 410.498 1477.623 407.462 1465.315 404.133 C 1454.484 401.205 1454.158 399.487 1440.542 395.587 C 1426.924 391.688 1408.571 386.69 1400.021 383.049 C 1389.605 378.615 1371.591 371.474 1350.793 363.451 C 1329.995 355.43 1319.016 351.579 1302.91 338.793 C 1290.541 328.968 1280.046 325.157 1268.297 315.728 C 1256.551 306.299 1257.468 309.09 1240.314 299.131 C 1231.607 294.079 1213.544 286.105 1209.095 283.664 C 1204.646 281.221 1183.626 277.04 1175.686 265.365 C 1183.626 253.691 1204.646 249.51 1209.095 247.065 C 1213.544 244.622 1231.607 236.653 1240.314 231.598 C 1257.468 221.64 1256.551 224.429 1268.297 215.001 C 1280.046 205.571 1290.541 201.761 1302.91 191.938 C 1319.016 179.151 1329.995 175.299 1350.793 167.277 C 1371.591 159.256 1389.605 152.113 1400.021 147.68 C 1408.571 144.038 1426.924 139.042 1440.542 135.143 C 1454.158 131.244 1454.484 129.523 1465.315 126.596 C 1477.623 123.268 1480.129 120.23 1487.773 116.295 C 1500.833 109.575 1520.645 105.86 1531.955 77.239 C 1532.886 74.882 1544.831 40.474 1557.011 40.429 C 1576.672 47.154 1579.831 76.612 1590.387 94.374 C 1602.066 114.024 1620.054 118.535 1635.818 125.664 C 1660.447 136.797 1677.944 141.368 1696.542 144.877 C 1716.563 148.655 1750.609 154.09 1788.474 166.363 C 1813.436 174.453 1869.862 194.988 1886.872 199.687 C 1899.601 203.205 1933.922 214.371 1951.877 220.597 C 1973.255 228.009 1994.567 220.084 2010.759 208.705 C 2018.756 203.082 2040.896 195.216 2052.481 196.642 C 2062.918 197.925 2076.272 198.279 2083.108 200.196 C 2091.245 202.479 2099.108 208.493 2107.812 220.539 C 2110.783 224.65 2122.491 232.891 2126.4 237.775 C 2138.369 252.726 2192.76 261.495 2203.96 265.365 Z">
    <title>Bottom (new)</title>
  </path>
  <path style="stroke: rgb(0, 0, 0); transform-box: fill-box; transform-origin: 50% 50%; fill: none;" d="M 514.283 2172.183 C 493.539 2154.944 447.95 2106.895 431.768 2090.486 C 413.556 2072.016 379.643 2061.599 367.519 2060.967 C 327.267 2058.873 266.072 2068.431 226.952 2079.343 C 183.459 2091.472 155.97 2091.039 135.621 2084.248 C 124.938 2080.681 112.624 2071.36 109.787 2065.348 C 105.777 2056.848 100.489 2030.41 98.912 2021.252 C 96.16 2005.271 95.677 1978.736 95.742 1975.699 C 95.677 1972.66 96.16 1946.125 98.912 1930.143 C 100.489 1920.983 105.777 1894.547 109.787 1886.047 C 112.624 1880.036 124.938 1870.715 135.621 1867.148 C 155.97 1860.357 183.459 1859.922 226.952 1872.054 C 266.072 1882.965 327.267 1892.523 367.519 1890.43 C 379.643 1889.798 413.556 1879.379 431.768 1860.91 C 447.95 1844.499 493.539 1796.451 514.283 1779.214 C 512.619 1828.236 514.18 1938.227 513.357 1976.429 C 514.18 2014.632 512.619 2123.16 514.283 2172.183 Z" transform="matrix(0, -1, 1, 0, -0.000065, 0.000055)"/>
  <path style="stroke: rgb(0, 0, 0); transform-box: fill-box; transform-origin: 50% 50%; fill: none;" d="M 1054.648 2175.459 C 1033.903 2158.219 988.314 2110.171 972.132 2093.76 C 953.92 2075.292 920.007 2064.873 907.883 2064.241 C 867.632 2062.148 806.437 2071.707 767.317 2082.617 C 723.823 2094.748 696.335 2094.315 675.985 2087.524 C 665.302 2083.957 652.989 2074.635 650.151 2068.624 C 646.14 2060.123 640.853 2033.687 639.277 2024.527 C 636.524 2008.547 636.039 1982.012 636.107 1978.974 C 636.039 1975.935 636.524 1949.401 639.277 1933.42 C 640.853 1924.26 646.14 1897.822 650.151 1889.322 C 652.989 1883.312 665.302 1873.99 675.985 1870.423 C 696.335 1863.633 723.823 1863.198 767.317 1875.33 C 806.437 1886.239 867.632 1895.797 907.883 1893.704 C 920.007 1893.072 953.92 1882.654 972.132 1864.187 C 988.314 1847.776 1033.903 1799.726 1054.648 1782.488 C 1052.984 1831.511 1054.544 1941.502 1053.721 1979.706 C 1054.544 2017.906 1052.984 2126.436 1054.648 2175.459 Z" transform="matrix(0, -1, 1, 0, 0.000044, -0.00004)"/>
  <path style="stroke: rgb(0, 0, 0); transform-origin: 340.245px 336.632px; fill: none;" d="M 356.298 52.74 C 375.122 62.811 373.615 104.234 377.853 113.879 C 382.099 123.516 388.021 140.586 397.382 149.978 C 416.087 168.742 427.179 175.109 449.81 190.434 C 472.44 205.755 482.123 218.112 497.689 235.839 C 508.322 247.947 529.485 263.899 539.439 277.272 C 549.389 290.647 555.527 304.548 564.828 318.258 C 573.292 330.738 579.827 354.883 584.775 367.172 C 589.718 379.462 593.897 398.852 600.859 413.107 C 611.232 434.346 614.099 457.726 627.992 473.91 C 641.88 490.088 665.238 547.841 676.925 565.531 C 684.658 577.235 723.872 603.427 736.748 612.992 C 749.624 622.557 691.022 608.736 660.227 610.245 C 645.506 610.969 626.892 623.88 612.019 622.458 C 597.15 621.039 576.773 626.169 562.637 621.531 C 519.262 607.295 502.197 576.886 488.452 544.368 C 474.706 511.853 464.274 477.229 434.165 454.569 C 416.322 441.138 397.697 428.743 378.627 417.028 C 359.559 405.308 340.047 394.27 320.43 383.559 C 283.854 363.591 242.975 352.584 201.78 342.238 C 160.587 331.89 119.074 322.208 81.245 304.878 C 68.674 299.12 57.091 294.677 43.131 288.393 C 29.169 282.107 -3.658 267.827 7.852 272.231 C 20.123 276.929 -18.801 261.751 -28.591 256.742 C -38.38 251.738 -60.503 242.813 -57.861 240.039 C -36.355 217.48 3.006 221.241 20.331 212.854 C 37.648 204.468 55.208 202.931 79.699 195.71 C 112.567 186.018 120.981 181.396 137.874 177.372 C 154.767 173.346 165.76 171.537 190.743 162.542 C 211.206 155.179 220.399 163.821 248.08 149.131 C 272.729 136.056 273.279 132.209 289.076 119.533 C 302.433 108.82 308.985 91.336 321.965 74.243 C 334.949 57.144 338.975 43.476 356.298 52.74 Z" transform="matrix(0.258819, -0.965926, 0.965926, 0.258819, -0.000007, 0.000031)">
    <title>Right</title>
  </path>
  <path style="stroke: rgb(0, 0, 0); transform-origin: 726.919px 447.905px; fill: none;" d="M 742.972 164.013 C 761.796 174.083 760.289 215.507 764.527 225.152 C 768.773 234.788 774.695 251.859 784.056 261.251 C 802.761 280.015 813.853 286.382 836.484 301.707 C 859.114 317.028 868.797 329.385 884.363 347.112 C 894.996 359.22 916.16 375.172 926.113 388.544 C 936.063 401.92 942.201 415.821 951.502 429.53 C 959.966 442.01 966.501 466.156 971.449 478.445 C 976.392 490.735 980.571 510.124 987.533 524.38 C 997.906 545.619 1000.773 568.998 1014.666 585.183 C 1028.554 601.361 1051.912 659.114 1063.599 676.803 C 1071.332 688.507 1110.546 714.7 1123.422 724.264 C 1136.298 733.83 1077.696 720.009 1046.901 721.518 C 1032.18 722.241 1013.567 735.152 998.693 733.73 C 983.824 732.312 963.447 737.442 949.311 732.804 C 905.936 718.567 888.871 688.159 875.127 655.641 C 861.38 623.126 850.948 588.502 820.839 565.841 C 802.996 552.411 784.371 540.015 765.301 528.3 C 746.233 516.581 726.721 505.542 707.104 494.831 C 670.528 474.864 629.647 463.857 588.452 453.51 C 547.259 443.163 505.746 433.481 467.917 416.15 C 455.347 410.393 443.764 405.95 429.804 399.666 C 415.842 393.379 383.015 379.1 394.525 383.504 C 406.796 388.202 367.872 373.023 358.082 368.015 C 348.293 363.011 326.17 354.086 328.812 351.312 C 350.318 328.753 389.679 332.514 407.004 324.127 C 424.321 315.74 441.881 314.204 466.371 306.982 C 499.239 297.291 507.653 292.668 524.546 288.645 C 541.439 284.619 552.432 282.809 577.415 273.815 C 597.878 266.451 607.071 275.094 634.752 260.404 C 659.402 247.328 659.952 243.482 675.75 230.806 C 689.108 220.092 695.659 202.608 708.639 185.516 C 721.623 168.417 725.649 154.749 742.972 164.013 Z" transform="matrix(-0.258819, 0.965926, -0.965926, -0.258819, 0.000004, -0.000018)">
    <title>Right</title>
  </path>
</svg>