<?xml version="1.0" encoding="utf-8"?>
<svg viewBox="0 0 595.08 779.786" xmlns="http://www.w3.org/2000/svg">
  <defs>
    <view id="view-1" viewBox="674.831 12.846 523.985 750.296">
      <title>View 1</title>
    </view>
    <view id="view-2" viewBox="1240.606 7.927 522.836 755.375">
      <title>View 2</title>
    </view>
    <view id="view-3" viewBox="1830.707 14.213 565.636 743.021">
      <title>View 3</title>
    </view>
    <view id="view-4" viewBox="-9.748 845.189 605.258 777.395">
      <title>View 4</title>
    </view>
  </defs>
  <path style="fill: rgb(216, 216, 216); stroke: rgb(0, 0, 0);" d="M 364.99 412.335 C 378.395 405.164 377.322 375.666 380.34 368.798 C 383.363 361.936 387.58 349.78 394.246 343.092 C 407.566 329.73 415.465 325.196 431.58 314.284 C 447.696 303.373 454.59 294.574 465.675 281.951 C 473.246 273.329 488.317 261.969 495.405 252.447 C 502.49 242.922 506.861 233.023 513.484 223.261 C 519.512 214.374 524.166 197.18 527.688 188.429 C 531.208 179.677 534.185 165.87 539.142 155.719 C 546.529 140.595 548.57 123.946 558.463 112.421 C 568.353 100.901 584.986 59.775 593.308 47.178 C 598.815 38.844 615.3 26.014 624.469 19.203 C 633.638 12.392 603.346 16.412 581.418 15.337 C 570.935 14.822 557.68 5.628 547.089 6.641 C 536.501 7.651 521.99 3.998 511.924 7.3 C 481.037 17.438 468.886 39.092 459.098 62.248 C 449.309 85.402 441.88 110.057 420.439 126.194 C 407.733 135.758 394.471 144.585 380.891 152.927 C 367.313 161.272 353.418 169.133 339.449 176.76 C 313.403 190.979 284.293 198.817 254.959 206.185 C 225.625 213.553 196.064 220.448 169.126 232.789 C 160.175 236.888 151.927 240.052 141.986 244.527 C 132.043 249.004 108.668 259.172 116.864 256.036 C 125.602 252.691 97.885 263.499 90.913 267.066 C 83.942 270.629 68.189 276.985 70.07 278.96 C 85.385 295.024 113.414 292.346 125.75 298.318 C 138.082 304.29 150.586 305.384 168.025 310.527 C 191.43 317.428 197.422 320.72 209.451 323.585 C 221.481 326.452 229.309 327.74 247.099 334.145 C 261.671 339.389 268.217 333.235 287.929 343.695 C 305.481 353.006 305.873 355.745 317.122 364.772 C 326.634 372.401 331.299 384.851 340.542 397.023 C 349.788 409.199 352.655 418.932 364.99 412.335 Z" transform="matrix(-0.5, -0.866025, 0.866025, -0.5, 340.032199, 616.669422)">
    <title>Right</title>
  </path>
  <path style="stroke: rgb(0, 0, 0); fill: rgb(216, 216, 216);" d="M -214.452 1236.31 C -214.522 1228.131 -168.978 1216.607 -153.43 1210.935 C -142.896 1207.092 -107.99 1202.06 -96.644 1200.87 C -85.297 1199.679 -58.762 1196.725 -49.163 1197.989 C -32.545 1200.18 -30.795 1196.537 -2.024 1200.255 C 26.748 1203.972 45.459 1206.166 65.375 1209.998 C 84.619 1213.7 111.891 1218.325 127.528 1217.458 C 143.169 1216.591 162.423 1217.018 185.281 1211.266 C 205.521 1206.174 218.325 1203.074 230.744 1194.46 C 243.163 1185.847 260.693 1175.294 281.443 1173.107 C 301.361 1171.008 317.905 1183.126 324.756 1191.847 C 331.606 1200.569 346.792 1205.581 355.592 1211.365 C 367.039 1218.89 404.145 1230.903 411.669 1236.31 C 405.534 1241.715 368.428 1253.728 356.983 1261.252 C 348.183 1267.035 332.997 1272.049 326.147 1280.771 C 319.296 1289.49 302.751 1301.609 282.832 1299.509 C 262.083 1297.323 244.552 1286.771 232.135 1278.157 C 219.716 1269.543 206.912 1266.444 186.672 1261.35 C 163.814 1255.599 144.56 1256.026 128.918 1255.158 C 113.282 1254.291 86.01 1258.917 66.765 1262.619 C 46.849 1266.45 28.138 1268.645 -0.634 1272.361 C -29.406 1276.081 -31.154 1272.437 -47.773 1274.627 C -57.373 1275.894 -83.907 1272.937 -95.253 1271.747 C -106.6 1270.557 -141.506 1265.525 -152.04 1261.682 C -167.588 1256.01 -214.522 1244.487 -214.452 1236.31 Z" transform="matrix(0, 1, -1, 0, 1334.916641, 1137.699692)">
    <title>Top (new)</title>
  </path>
  <path style="fill: rgb(216, 216, 216); stroke: rgb(0, 0, 0);" d="M 897.396 258.442 C 904.488 255.014 921.821 250.095 929.64 250.334 C 939.523 250.636 946.544 249.978 957 249.321 C 990.496 247.215 1024.206 241.228 1055.687 229.053 C 1101.631 211.286 1146.087 186.835 1194.438 178.384 C 1214.242 174.922 1234.359 183.37 1254.042 187.505 C 1260.207 188.8 1268.115 189.187 1271.63 194.598 C 1279.744 207.093 1281.031 221.089 1286.286 235.133 C 1289.505 243.734 1293.657 253.96 1297.035 262.494 C 1301.904 274.807 1307.09 286.993 1312.668 298.978 C 1314.326 302.537 1319.045 307.112 1316.576 310.124 C 1298.459 332.231 1266.546 348.014 1244.27 361.807 C 1230.841 370.122 1218.041 379.57 1204.209 387.141 C 1163.867 409.223 1114.544 417.799 1069.367 410.451 C 1056.804 408.406 1029.259 401.882 1020.513 395.25 C 1005.894 384.161 997.543 383.265 982.406 372.954 C 975.577 368.303 967.357 366.349 959.932 362.82 C 934.007 350.497 907.558 339.309 878.831 336.471 C 868.435 335.445 858.005 334.685 847.564 334.444 C 845.804 334.404 827.21 338.116 824.112 334.444 C 814.755 323.353 852.933 279.926 897.396 258.442 Z" transform="matrix(0, 1, -1, 0, 1365.280014, -774.685379)">
    <title>Left wing top</title>
  </path>
  <text style="white-space: pre; fill: rgb(51, 51, 51); font-family: Arial, sans-serif; font-size: 19.3px;" x="932.071" y="188.207" transform="matrix(0, 1.390206, -1.441819, 0, 1341.582153, -989.69104)"><title>Left wing top text</title>Left Wing Top</text>
  <path style="fill: rgb(216, 216, 216); stroke: rgb(0, 0, 0);" d="M 636.249 333.839 C 643.341 337.266 660.674 342.185 668.493 341.946 C 678.376 341.644 685.397 342.302 695.853 342.96 C 729.349 345.065 763.06 351.052 794.541 363.227 C 840.484 380.994 884.94 405.445 933.291 413.897 C 953.096 417.359 973.212 408.912 992.895 404.776 C 999.06 403.482 1006.968 403.093 1010.483 397.682 C 1018.598 385.188 1019.885 371.192 1025.139 357.147 C 1028.358 348.546 1032.51 338.321 1035.888 329.786 C 1040.758 317.473 1045.943 305.287 1051.522 293.304 C 1053.179 289.743 1057.898 285.168 1055.43 282.156 C 1037.313 260.051 1005.399 244.267 983.123 230.473 C 969.694 222.158 956.894 212.71 943.062 205.138 C 902.721 183.057 853.397 174.482 808.221 181.831 C 795.657 183.874 768.113 190.398 759.366 197.032 C 744.748 208.121 736.397 209.016 721.259 219.327 C 714.43 223.978 706.21 225.931 698.785 229.46 C 672.86 241.784 646.412 252.971 617.684 255.809 C 607.288 256.836 596.858 257.595 586.418 257.835 C 584.657 257.876 566.063 254.164 562.965 257.835 C 553.608 268.927 591.787 312.354 636.249 333.839 Z" transform="matrix(0, 1, -1, 0, 1105.819824, -511.852112)">
    <title>Left wing bottom</title>
  </path>
  <text style="white-space: pre; fill: rgb(51, 51, 51); font-family: Arial, sans-serif; font-size: 19.3px;" x="907.934" y="394.399" transform="matrix(0, 1.390206, -1.441819, 0, 1368.235718, -996.798645)"><title>Left wing bottom text</title>Left Wing Bottom</text>
  <path style="fill: rgb(216, 216, 216); stroke: rgb(0, 0, 0);" d="M 2070.385 315.754 C 2077.477 312.326 2094.81 307.407 2102.629 307.646 C 2112.513 307.948 2119.533 307.29 2129.989 306.634 C 2163.487 304.528 2197.196 298.54 2228.677 286.365 C 2274.62 268.598 2319.076 244.148 2367.428 235.696 C 2387.232 232.234 2407.348 240.682 2427.031 244.817 C 2433.196 246.112 2441.105 246.499 2444.619 251.91 C 2452.734 264.406 2454.021 278.401 2459.277 292.445 C 2462.494 301.046 2466.646 311.272 2470.024 319.807 C 2474.894 332.119 2480.079 344.305 2485.658 356.29 C 2487.315 359.849 2492.036 364.424 2489.566 367.436 C 2471.449 389.543 2439.535 405.326 2417.261 419.119 C 2403.83 427.434 2391.03 436.882 2377.198 444.454 C 2336.858 466.536 2287.533 475.112 2242.357 467.763 C 2229.793 465.718 2202.249 459.194 2193.502 452.562 C 2178.884 441.473 2170.533 440.577 2155.395 430.267 C 2148.566 425.615 2140.347 423.661 2132.921 420.132 C 2106.996 407.809 2080.548 396.621 2051.82 393.783 C 2041.425 392.758 2030.994 391.997 2020.554 391.757 C 2018.793 391.716 2000.199 395.428 1997.102 391.757 C 1987.744 380.665 2025.923 337.238 2070.385 315.754 Z" transform="matrix(0, -1, 1, 0, 1890.363121, 2595.582314)">
    <title>Right wing top</title>
  </path>
  <text style="white-space: pre; fill: rgb(51, 51, 51); font-family: Arial, sans-serif; font-size: 19.3px;" x="1348.674" y="198.003" transform="matrix(0, 1.390206, -1.441819, 0, 2523.3396, -1704.503662)"><title>Right wing top text</title>Right Wing Top</text>
  <path style="fill: rgb(216, 216, 216); stroke: rgb(0, 0, 0);" d="M 1813.531 383.619 C 1820.622 387.047 1837.955 391.966 1845.776 391.727 C 1855.659 391.425 1862.679 392.083 1873.135 392.74 C 1906.632 394.846 1940.341 400.834 1971.823 413.008 C 2017.767 430.775 2062.223 455.226 2110.574 463.678 C 2130.377 467.139 2150.493 458.692 2170.178 454.556 C 2176.341 453.261 2184.251 452.874 2187.765 447.463 C 2195.879 434.968 2197.168 420.972 2202.422 406.928 C 2205.641 398.327 2209.793 388.101 2213.169 379.567 C 2218.039 367.254 2223.225 355.068 2228.804 343.083 C 2230.461 339.524 2235.181 334.949 2232.712 331.937 C 2214.595 309.832 2182.682 294.047 2160.406 280.254 C 2146.977 271.939 2134.177 262.491 2120.344 254.92 C 2080.003 232.838 2030.679 224.262 1985.502 231.611 C 1972.939 233.655 1945.396 240.179 1936.648 246.813 C 1922.031 257.902 1913.679 258.796 1898.541 269.107 C 1891.712 273.758 1883.492 275.712 1876.068 279.241 C 1850.143 291.566 1823.694 302.752 1794.967 305.59 C 1784.571 306.616 1774.139 307.376 1763.699 307.617 C 1761.939 307.657 1743.345 303.945 1740.248 307.617 C 1730.891 318.708 1769.068 362.135 1813.531 383.619 Z" transform="matrix(0, -1, 1, 0, 1639.354294, 2332.882767)">
    <title>Right wing bottom</title>
  </path>
  <text style="white-space: pre; fill: rgb(51, 51, 51); font-family: Arial, sans-serif; font-size: 19.3px;" x="1357.639" y="399.368" transform="matrix(0, 1.390206, -1.441819, 0, 2573.093018, -1713.388184)"><title>Right wing bottom text</title>Right Wing Bottom</text>
  <path style="stroke: rgb(0, 0, 0); fill: rgb(216, 216, 216);" d="M 756.35 1238.67 C 748.375 1241.425 730.09 1247.67 721.567 1258.316 C 718.783 1261.793 710.446 1267.662 708.331 1270.59 C 702.132 1279.169 696.533 1283.451 690.739 1285.076 C 685.871 1286.441 676.361 1286.692 668.929 1287.606 C 660.68 1288.621 644.914 1283.02 639.219 1279.016 C 627.689 1270.913 612.513 1265.269 597.29 1270.549 C 584.504 1274.982 560.064 1282.934 551 1285.438 C 538.887 1288.784 498.706 1303.408 480.931 1309.169 C 453.967 1317.908 429.723 1321.779 415.466 1324.468 C 402.222 1326.966 389.763 1330.223 372.225 1338.152 C 360.999 1343.226 348.19 1346.439 339.873 1360.431 C 332.356 1373.08 330.107 1394.056 316.106 1398.846 C 307.433 1398.813 298.927 1374.311 298.264 1372.633 C 290.21 1352.252 276.102 1349.606 266.802 1344.821 C 261.359 1342.019 259.574 1339.857 250.81 1337.486 C 243.097 1335.401 242.865 1334.178 233.169 1331.401 C 223.472 1328.624 210.403 1325.065 204.314 1322.472 C 196.897 1319.315 184.069 1314.23 169.259 1308.517 C 154.449 1302.805 146.631 1300.063 135.162 1290.958 C 126.354 1283.962 118.88 1281.248 110.514 1274.533 C 102.15 1267.819 102.803 1269.807 90.588 1262.715 C 84.387 1259.117 71.525 1253.439 68.356 1251.701 C 65.188 1249.961 50.22 1246.984 44.566 1238.67 C 50.22 1230.357 65.188 1227.38 68.356 1225.639 C 71.525 1223.899 84.387 1218.224 90.588 1214.625 C 102.803 1207.534 102.15 1209.52 110.514 1202.806 C 118.88 1196.091 126.354 1193.378 135.162 1186.383 C 146.631 1177.277 154.449 1174.534 169.259 1168.822 C 184.069 1163.11 196.897 1158.024 204.314 1154.867 C 210.403 1152.274 223.472 1148.716 233.169 1145.939 C 242.865 1143.163 243.097 1141.938 250.81 1139.853 C 259.574 1137.483 261.359 1135.32 266.802 1132.518 C 276.102 1127.733 290.21 1125.087 298.264 1104.706 C 298.927 1103.028 307.433 1078.526 316.106 1078.494 C 330.107 1083.283 332.356 1104.259 339.873 1116.908 C 348.19 1130.901 360.999 1134.113 372.225 1139.189 C 389.763 1147.117 402.222 1150.372 415.466 1152.871 C 429.723 1155.561 453.967 1159.432 480.931 1168.171 C 498.706 1173.932 538.887 1188.555 551 1191.901 C 560.064 1194.406 584.504 1202.357 597.29 1206.791 C 612.513 1212.069 627.689 1206.426 639.219 1198.323 C 644.914 1194.319 660.68 1188.717 668.929 1189.733 C 676.361 1190.647 685.871 1190.898 690.739 1192.264 C 696.533 1193.889 702.132 1198.171 708.331 1206.75 C 710.446 1209.677 718.783 1215.546 721.567 1219.023 C 730.09 1229.67 748.375 1235.914 756.35 1238.67 Z" transform="matrix(0, 1, -1, 0, 1639.127983, 838.211983)">
    <title>Bottom (new)</title>
  </path>
  <path style="fill: rgb(216, 216, 216); stroke: rgb(0, 0, 0);" d="M 318.076 323.153 C 331.481 330.324 330.408 359.822 333.426 366.69 C 336.449 373.551 340.666 385.706 347.332 392.395 C 360.652 405.756 368.551 410.291 384.666 421.203 C 400.782 432.114 407.676 440.912 418.761 453.536 C 426.333 462.157 441.405 473.518 448.492 483.039 C 455.577 492.564 459.948 502.464 466.572 512.226 C 472.6 521.112 477.254 538.306 480.774 547.058 C 484.295 555.81 487.272 569.617 492.228 579.767 C 499.615 594.892 501.656 611.541 511.549 623.065 C 521.44 634.586 538.072 675.712 546.395 688.309 C 551.901 696.643 568.387 709.473 577.556 716.284 C 586.725 723.094 556.432 719.075 534.505 720.15 C 524.021 720.665 510.767 729.858 500.175 728.846 C 489.587 727.835 475.078 731.488 465.012 728.186 C 434.125 718.049 421.972 696.395 412.185 673.239 C 402.395 650.085 394.966 625.43 373.525 609.293 C 360.819 599.729 347.557 590.902 333.977 582.56 C 320.399 574.215 306.504 566.354 292.535 558.727 C 266.489 544.507 237.379 536.67 208.045 529.301 C 178.711 521.934 149.15 515.039 122.212 502.698 C 113.261 498.599 105.013 495.435 95.072 490.96 C 85.129 486.483 61.754 476.314 69.95 479.451 C 78.688 482.796 50.971 471.988 44 468.421 C 37.028 464.857 21.275 458.502 23.157 456.527 C 38.471 440.463 66.5 443.141 78.836 437.168 C 91.168 431.196 103.672 430.103 121.111 424.96 C 144.516 418.058 150.508 414.767 162.537 411.902 C 174.567 409.035 182.396 407.747 200.185 401.342 C 214.757 396.097 221.303 402.252 241.015 391.792 C 258.567 382.481 258.959 379.742 270.208 370.716 C 279.72 363.086 284.385 350.636 293.628 338.464 C 302.874 326.288 305.741 316.555 318.076 323.153 Z" transform="matrix(-1, 0, 0, -1, 602.240211, 1050.621765)">
    <title>Right</title>
  </path>
  <path style="fill: rgb(216, 216, 216); stroke: rgb(0, 0, 0);" d="M 1698.484 390.595 C 1677.011 374.135 1629.822 328.258 1613.073 312.589 C 1594.221 294.955 1559.117 285.007 1546.568 284.405 C 1504.902 282.406 1441.559 291.532 1401.066 301.949 C 1356.046 313.532 1327.592 313.118 1306.528 306.634 C 1295.47 303.228 1282.724 294.328 1279.788 288.588 C 1275.636 280.472 1270.164 255.23 1268.531 246.484 C 1265.683 231.226 1265.181 205.89 1265.25 202.99 C 1265.181 200.088 1265.683 174.752 1268.531 159.494 C 1270.164 150.748 1275.636 125.505 1279.788 117.389 C 1282.724 111.65 1295.47 102.75 1306.528 99.344 C 1327.592 92.86 1356.046 92.446 1401.066 104.029 C 1441.559 114.446 1504.902 123.572 1546.568 121.573 C 1559.117 120.971 1594.221 111.023 1613.073 93.389 C 1629.822 77.72 1677.011 31.843 1698.484 15.383 C 1696.763 62.191 1698.378 167.211 1697.525 203.688 C 1698.378 240.163 1696.763 343.787 1698.484 390.595 Z"/>
  <path style="fill: rgb(216, 216, 216); stroke: rgb(0, 0, 0);" d="M 1731.185 732.202 C 1709.712 715.742 1662.523 669.865 1645.773 654.196 C 1626.922 636.561 1591.818 626.614 1579.269 626.012 C 1537.603 624.012 1474.26 633.139 1433.767 643.555 C 1388.747 655.139 1360.292 654.725 1339.228 648.241 C 1328.17 644.835 1315.425 635.935 1312.489 630.195 C 1308.336 622.079 1302.865 596.837 1301.232 588.091 C 1298.383 572.833 1297.882 547.497 1297.951 544.596 C 1297.882 541.695 1298.383 516.359 1301.232 501.101 C 1302.865 492.354 1308.336 467.112 1312.489 458.996 C 1315.425 453.257 1328.17 444.357 1339.228 440.951 C 1360.292 434.467 1388.747 434.053 1433.767 445.636 C 1474.26 456.053 1537.603 465.179 1579.269 463.18 C 1591.818 462.578 1626.922 452.63 1645.773 434.996 C 1662.523 419.327 1709.712 373.45 1731.185 356.99 C 1729.464 403.798 1731.078 508.818 1730.226 545.295 C 1731.078 581.77 1729.464 685.394 1731.185 732.202 Z" transform="matrix(-1, 0, 0, -1, 3029.130127, 1089.192017)"/>
</svg>