<?xml version="1.0" encoding="utf-8"?>
<svg viewBox="0 0 595.08 779.786" xmlns="http://www.w3.org/2000/svg">
  <defs>
    <view id="view-1" viewBox="674.831 12.846 523.985 750.296">
      <title>View 1</title>
    </view>
    <view id="view-2" viewBox="1240.606 7.927 522.836 755.375">
      <title>View 2</title>
    </view>
    <view id="view-3" viewBox="1830.707 14.213 578.074 762.567">
      <title>View 3</title>
    </view>
  </defs>
  <path style="fill: rgb(216, 216, 216); stroke: rgb(0, 0, 0);" d="M 283.932 343.308 C 294.244 337.792 293.418 315.101 295.74 309.818 C 298.065 304.54 301.309 295.19 306.437 290.045 C 316.683 279.767 322.759 276.279 335.155 267.885 C 347.552 259.492 352.855 252.724 361.382 243.014 C 367.206 236.382 378.799 227.643 384.251 220.319 C 389.701 212.992 393.063 205.377 398.158 197.868 C 402.795 191.032 406.375 177.806 409.083 171.074 C 411.791 164.342 414.081 153.721 417.894 145.913 C 423.576 134.279 425.146 121.472 432.756 112.607 C 440.364 103.745 453.158 72.11 459.56 62.42 C 463.796 56.009 476.477 46.14 483.53 40.901 C 490.583 35.662 467.281 38.754 450.414 37.927 C 442.35 37.531 432.154 30.459 424.007 31.238 C 415.862 32.015 404.701 29.205 396.958 31.745 C 373.199 39.543 363.852 56.2 356.323 74.012 C 348.793 91.823 343.078 110.788 326.585 123.201 C 316.811 130.558 306.61 137.348 296.164 143.765 C 285.719 150.184 275.031 156.231 264.285 162.098 C 244.25 173.036 221.858 179.065 199.293 184.733 C 176.729 190.4 153.99 195.704 133.268 205.197 C 126.383 208.35 120.038 210.784 112.391 214.226 C 104.743 217.67 86.762 225.492 93.067 223.079 C 99.788 220.506 78.468 228.82 73.105 231.564 C 67.742 234.305 55.625 239.194 57.072 240.713 C 68.852 253.07 90.413 251.01 99.902 255.604 C 109.388 260.198 119.007 261.039 132.421 264.995 C 150.425 270.304 155.034 272.836 164.287 275.04 C 173.541 277.245 179.563 278.236 193.247 283.163 C 204.456 287.197 209.492 282.463 224.655 290.509 C 238.156 297.671 238.458 299.778 247.111 306.721 C 254.428 312.59 258.016 322.167 265.126 331.53 C 272.238 340.896 274.444 348.383 283.932 343.308 Z" transform="matrix(0.877829, 0.478975, -0.478975, 0.877829, 123.047345, -106.804658)">
    <title>Right</title>
  </path>
  <path style="stroke: rgb(0, 0, 0); fill: rgb(216, 216, 216);" d="M 1716.252 409.21 C 1716.198 402.919 1751.232 394.054 1763.192 389.691 C 1771.295 386.735 1798.146 382.864 1806.873 381.949 C 1815.602 381.033 1836.013 378.76 1843.397 379.733 C 1856.18 381.418 1857.526 378.616 1879.658 381.476 C 1901.79 384.335 1916.183 386.023 1931.503 388.97 C 1946.306 391.818 1967.284 395.376 1979.313 394.709 C 1991.344 394.042 2006.155 394.37 2023.738 389.946 C 2039.307 386.029 2049.156 383.644 2058.709 377.018 C 2068.262 370.393 2081.747 362.275 2097.708 360.593 C 2113.03 358.978 2125.756 368.3 2131.026 375.008 C 2136.295 381.717 2147.977 385.573 2154.746 390.022 C 2163.551 395.81 2192.094 405.051 2197.882 409.21 C 2193.163 413.368 2164.62 422.609 2155.816 428.396 C 2149.047 432.845 2137.365 436.702 2132.096 443.411 C 2126.826 450.118 2114.099 459.44 2098.777 457.825 C 2082.816 456.143 2069.331 448.026 2059.779 441.4 C 2050.226 434.774 2040.377 432.39 2024.808 428.472 C 2007.225 424.048 1992.414 424.376 1980.382 423.709 C 1968.354 423.042 1947.376 426.6 1932.572 429.448 C 1917.252 432.395 1902.859 434.083 1880.727 436.942 C 1858.595 439.803 1857.25 437 1844.466 438.685 C 1837.082 439.659 1816.671 437.385 1807.943 436.469 C 1799.215 435.554 1772.364 431.683 1764.261 428.727 C 1752.301 424.364 1716.198 415.5 1716.252 409.21 Z" transform="matrix(0, 1, -1, 0, 2366.275955, -1547.857956)">
    <title>Top (new)</title>
  </path>
  <path style="fill: rgb(216, 216, 216); stroke: rgb(0, 0, 0);" d="M 909.436 211.262 C 914.891 208.625 928.224 204.841 934.239 205.025 C 941.841 205.257 947.242 204.751 955.285 204.246 C 981.051 202.626 1006.982 198.02 1031.198 188.655 C 1066.539 174.988 1100.736 156.18 1137.929 149.679 C 1153.163 147.016 1168.637 153.514 1183.778 156.695 C 1188.52 157.691 1194.603 157.989 1197.307 162.151 C 1203.549 171.763 1204.539 182.529 1208.581 193.332 C 1211.057 199.948 1214.251 207.814 1216.849 214.379 C 1220.595 223.85 1224.584 233.224 1228.875 242.443 C 1230.15 245.181 1233.78 248.7 1231.881 251.017 C 1217.945 268.022 1193.396 280.163 1176.261 290.773 C 1165.931 297.169 1156.085 304.437 1145.445 310.261 C 1114.413 327.247 1076.472 333.844 1041.721 328.191 C 1032.057 326.618 1010.869 321.6 1004.141 316.498 C 992.896 307.968 986.472 307.279 974.828 299.348 C 969.575 295.77 963.252 294.267 957.54 291.552 C 937.598 282.073 917.253 273.467 895.155 271.284 C 887.158 270.495 879.135 269.91 871.104 269.725 C 869.75 269.694 855.447 272.549 853.064 269.725 C 845.866 261.193 875.234 227.788 909.436 211.262 Z" transform="matrix(0, 1, -1, 0, 1281.806458, -802.58252)">
    <title>Left wing top</title>
  </path>
  <text style="white-space: pre; fill: rgb(51, 51, 51); font-family: Arial, sans-serif; font-size: 19.3px;" x="932.071" y="188.207" transform="matrix(0, 1.069385, -1.109087, 0, 1251.115356, -748.836487)"><title>Left wing top text</title>Left Wing Top</text>
  <path style="fill: rgb(216, 216, 216); stroke: rgb(0, 0, 0);" d="M 688.051 274.727 C 693.506 277.363 706.839 281.147 712.854 280.963 C 720.456 280.731 725.857 281.237 733.9 281.743 C 759.666 283.362 785.597 287.968 809.813 297.333 C 845.154 311 879.351 329.808 916.544 336.31 C 931.778 338.973 947.252 332.475 962.393 329.294 C 967.135 328.298 973.218 327.999 975.922 323.837 C 982.164 314.226 983.154 303.46 987.196 292.656 C 989.672 286.04 992.866 278.175 995.464 271.609 C 999.21 262.138 1003.199 252.764 1007.49 243.546 C 1008.765 240.807 1012.395 237.288 1010.496 234.971 C 996.56 217.967 972.011 205.826 954.876 195.215 C 944.546 188.819 934.7 181.551 924.06 175.727 C 893.028 158.741 855.087 152.145 820.336 157.798 C 810.672 159.37 789.484 164.388 782.756 169.491 C 771.511 178.021 765.087 178.71 753.443 186.641 C 748.19 190.219 741.867 191.721 736.155 194.436 C 716.213 203.916 695.868 212.521 673.77 214.704 C 665.773 215.494 657.75 216.078 649.719 216.263 C 648.365 216.294 634.062 213.439 631.679 216.263 C 624.481 224.795 653.849 258.2 688.051 274.727 Z" transform="matrix(0, 1, -1, 0, 1067.186417, -574.43248)">
    <title>Left wing bottom</title>
  </path>
  <text style="white-space: pre; fill: rgb(51, 51, 51); font-family: Arial, sans-serif; font-size: 19.3px;" x="907.934" y="394.399" transform="matrix(0, 1.069385, -1.109087, 0, 1251.115356, -748.836487)"><title>Left wing bottom text</title>Left Wing Bottom</text>
  <path style="fill: rgb(216, 216, 216); stroke: rgb(0, 0, 0);" d="M 1457.718 210.243 C 1463.173 207.606 1476.506 203.822 1482.521 204.006 C 1490.124 204.238 1495.524 203.732 1503.567 203.227 C 1529.334 201.607 1555.264 197.001 1579.48 187.636 C 1614.821 173.969 1649.018 155.161 1686.211 148.66 C 1701.445 145.997 1716.919 152.495 1732.06 155.676 C 1736.802 156.672 1742.886 156.97 1745.589 161.132 C 1751.831 170.744 1752.821 181.51 1756.864 192.313 C 1759.339 198.929 1762.533 206.795 1765.131 213.36 C 1768.877 222.831 1772.866 232.205 1777.157 241.424 C 1778.432 244.162 1782.063 247.681 1780.163 249.998 C 1766.227 267.003 1741.678 279.144 1724.544 289.754 C 1714.213 296.15 1704.367 303.418 1693.727 309.242 C 1662.696 326.228 1624.754 332.825 1590.003 327.172 C 1580.339 325.599 1559.151 320.581 1552.423 315.479 C 1541.178 306.949 1534.754 306.26 1523.11 298.329 C 1517.857 294.751 1511.534 293.248 1505.822 290.533 C 1485.88 281.054 1465.535 272.448 1443.437 270.265 C 1435.441 269.476 1427.417 268.891 1419.386 268.706 C 1418.032 268.675 1403.729 271.53 1401.346 268.706 C 1394.148 260.174 1423.516 226.769 1457.718 210.243 Z" transform="matrix(0, -1, 1, 0, 1351.883652, 1829.069595)">
    <title>Right wing top</title>
  </path>
  <text style="white-space: pre; fill: rgb(51, 51, 51); font-family: Arial, sans-serif; font-size: 19.3px;" x="1348.674" y="198.003" transform="matrix(0, 1.069385, -1.109087, 0, 1806.143677, -1343.796143)"><title>Right wing top text</title>Right Wing Top</text>
  <path style="fill: rgb(216, 216, 216); stroke: rgb(0, 0, 0);" d="M 1221.867 269.28 C 1227.322 271.917 1240.655 275.701 1246.671 275.517 C 1254.273 275.285 1259.673 275.791 1267.716 276.296 C 1293.483 277.916 1319.413 282.522 1343.63 291.887 C 1378.971 305.554 1413.168 324.362 1450.361 330.864 C 1465.594 333.526 1481.068 327.028 1496.21 323.847 C 1500.951 322.851 1507.035 322.553 1509.738 318.391 C 1515.98 308.779 1516.971 298.013 1521.013 287.21 C 1523.489 280.594 1526.683 272.728 1529.28 266.163 C 1533.026 256.692 1537.015 247.318 1541.307 238.099 C 1542.581 235.361 1546.212 231.842 1544.313 229.525 C 1530.377 212.521 1505.828 200.379 1488.693 189.769 C 1478.363 183.373 1468.517 176.105 1457.876 170.281 C 1426.845 153.295 1388.903 146.698 1354.152 152.351 C 1344.488 153.924 1323.301 158.942 1316.572 164.045 C 1305.328 172.575 1298.904 173.263 1287.259 181.194 C 1282.006 184.772 1275.683 186.275 1269.972 188.99 C 1250.03 198.47 1229.685 207.075 1207.587 209.258 C 1199.59 210.047 1191.566 210.632 1183.535 210.817 C 1182.181 210.848 1167.878 207.993 1165.496 210.817 C 1158.298 219.349 1187.665 252.754 1221.867 269.28 Z" transform="matrix(0, -1, 1, 0, 1113.696075, 1595.556732)">
    <title>Right wing bottom</title>
  </path>
  <text style="white-space: pre; fill: rgb(51, 51, 51); font-family: Arial, sans-serif; font-size: 19.3px;" x="1357.639" y="399.368" transform="matrix(0, 1.069385, -1.109087, 0, 1806.143677, -1343.796143)"><title>Right wing bottom text</title>Right Wing Bottom</text>
  <path style="stroke: rgb(0, 0, 0); fill: rgb(216, 216, 216);" d="M 2499.327 389.669 C 2493.192 391.788 2479.127 396.592 2472.571 404.781 C 2470.429 407.456 2464.016 411.97 2462.389 414.223 C 2457.621 420.822 2453.314 424.116 2448.857 425.366 C 2445.112 426.416 2437.797 426.609 2432.08 427.312 C 2425.735 428.093 2413.607 423.784 2409.226 420.704 C 2400.357 414.471 2388.683 410.13 2376.973 414.191 C 2367.138 417.601 2348.338 423.718 2341.366 425.644 C 2332.048 428.218 2301.14 439.467 2287.467 443.899 C 2266.725 450.621 2248.076 453.599 2237.109 455.667 C 2226.922 457.589 2217.338 460.094 2203.847 466.193 C 2195.212 470.096 2185.359 472.568 2178.961 483.331 C 2173.179 493.061 2171.449 509.196 2160.679 512.881 C 2154.007 512.855 2147.464 494.008 2146.954 492.717 C 2140.759 477.039 2129.907 475.004 2122.753 471.323 C 2118.566 469.168 2117.193 467.505 2110.451 465.681 C 2104.518 464.077 2104.34 463.136 2096.881 461 C 2089.422 458.864 2079.369 456.126 2074.685 454.132 C 2068.98 451.703 2059.112 447.792 2047.72 443.397 C 2036.328 439.003 2030.314 436.894 2021.492 429.89 C 2014.716 424.509 2008.967 422.421 2002.532 417.256 C 1996.098 412.091 1996.6 413.62 1987.204 408.165 C 1982.434 405.397 1972.54 401.03 1970.103 399.693 C 1967.666 398.354 1956.152 396.064 1951.803 389.669 C 1956.152 383.274 1967.666 380.984 1970.103 379.645 C 1972.54 378.307 1982.434 373.941 1987.204 371.173 C 1996.6 365.718 1996.098 367.246 2002.532 362.081 C 2008.967 356.916 2014.716 354.829 2021.492 349.448 C 2030.314 342.444 2036.328 340.334 2047.72 335.94 C 2059.112 331.546 2068.98 327.634 2074.685 325.205 C 2079.369 323.211 2089.422 320.474 2096.881 318.338 C 2104.34 316.202 2104.518 315.26 2110.451 313.656 C 2117.193 311.833 2118.566 310.169 2122.753 308.014 C 2129.907 304.333 2140.759 302.298 2146.954 286.62 C 2147.464 285.329 2154.007 266.482 2160.679 266.457 C 2171.449 270.141 2173.179 286.276 2178.961 296.006 C 2185.359 306.77 2195.212 309.241 2203.847 313.145 C 2217.338 319.244 2226.922 321.748 2237.109 323.67 C 2248.076 325.739 2266.725 328.717 2287.467 335.439 C 2301.14 339.871 2332.048 351.119 2341.366 353.693 C 2348.338 355.62 2367.138 361.736 2376.973 365.147 C 2388.683 369.207 2400.357 364.866 2409.226 358.633 C 2413.607 355.553 2425.735 351.244 2432.08 352.025 C 2437.797 352.728 2445.112 352.921 2448.857 353.972 C 2453.314 355.222 2457.621 358.516 2462.389 365.115 C 2464.016 367.367 2470.429 371.881 2472.571 374.556 C 2479.127 382.746 2493.192 387.549 2499.327 389.669 Z" transform="matrix(0, 1, -1, 0, 2615.233932, -1835.89595)">
    <title>Bottom (new)</title>
  </path>
  <path style="fill: rgb(216, 216, 216); stroke: rgb(0, 0, 0);" d="M 301.151 420.96 C 311.463 426.476 310.637 449.167 312.959 454.45 C 315.284 459.728 318.528 469.078 323.656 474.223 C 333.902 484.501 339.978 487.989 352.374 496.383 C 364.771 504.776 370.074 511.544 378.601 521.254 C 384.425 527.886 396.019 536.625 401.471 543.949 C 406.921 551.276 410.283 558.891 415.378 566.4 C 420.015 573.236 423.595 586.462 426.303 593.194 C 429.011 599.926 431.301 610.547 435.114 618.355 C 440.796 629.989 442.366 642.796 449.976 651.661 C 457.584 660.523 470.378 692.158 476.78 701.848 C 481.016 708.259 493.697 718.128 500.75 723.367 C 507.803 728.606 484.501 725.514 467.634 726.341 C 459.57 726.737 449.374 733.809 441.227 733.03 C 433.082 732.253 421.921 735.063 414.178 732.523 C 390.419 724.725 381.071 708.068 373.542 690.256 C 366.012 672.445 360.297 653.48 343.804 641.067 C 334.03 633.71 323.829 626.92 313.383 620.503 C 302.938 614.084 292.25 608.037 281.504 602.17 C 261.469 591.232 239.077 585.203 216.512 579.535 C 193.948 573.868 171.209 568.564 150.487 559.071 C 143.602 555.918 137.257 553.484 129.61 550.042 C 121.962 546.598 103.981 538.776 110.286 541.189 C 117.007 543.762 95.687 535.448 90.324 532.704 C 84.961 529.963 72.844 525.074 74.291 523.555 C 86.071 511.198 107.632 513.258 117.121 508.664 C 126.607 504.07 136.226 503.229 149.64 499.273 C 167.644 493.964 172.253 491.432 181.506 489.228 C 190.76 487.023 196.782 486.032 210.466 481.105 C 221.675 477.071 226.711 481.805 241.874 473.759 C 255.375 466.597 255.677 464.49 264.33 457.547 C 271.647 451.678 275.235 442.101 282.345 432.738 C 289.457 423.372 291.663 415.885 301.151 420.96 Z" transform="matrix(0.877829, -0.478975, 0.478975, 0.877829, -240.914022, 208.424025)">
    <title>Right</title>
  </path>
  <path style="fill: rgb(216, 216, 216); stroke: rgb(0, 0, 0);" d="M 1082.797 728.438 C 1066.279 715.777 1029.98 680.487 1017.096 668.434 C 1002.595 654.869 975.592 647.217 965.939 646.754 C 933.888 645.216 885.163 652.236 854.015 660.249 C 819.384 669.159 797.496 668.841 781.293 663.853 C 772.787 661.233 762.983 654.387 760.724 649.972 C 757.53 643.729 753.321 624.312 752.065 617.584 C 749.874 605.847 749.488 586.358 749.541 584.127 C 749.488 581.895 749.874 562.406 752.065 550.669 C 753.321 543.941 757.53 524.524 760.724 518.281 C 762.983 513.866 772.787 507.02 781.293 504.4 C 797.496 499.412 819.384 499.094 854.015 508.004 C 885.163 516.017 933.888 523.037 965.939 521.499 C 975.592 521.036 1002.595 513.384 1017.096 499.819 C 1029.98 487.766 1066.279 452.476 1082.797 439.815 C 1081.473 475.821 1082.715 556.605 1082.059 584.664 C 1082.715 612.722 1081.473 692.432 1082.797 728.438 Z"/>
  <path style="fill: rgb(216, 216, 216); stroke: rgb(0, 0, 0);" d="M 1710.729 715.108 C 1694.211 702.447 1657.912 667.157 1645.028 655.104 C 1630.527 641.539 1603.524 633.887 1593.871 633.424 C 1561.82 631.886 1513.095 638.906 1481.947 646.919 C 1447.316 655.829 1425.428 655.511 1409.225 650.523 C 1400.719 647.903 1390.915 641.057 1388.656 636.642 C 1385.462 630.399 1381.253 610.982 1379.997 604.254 C 1377.806 592.517 1377.42 573.028 1377.473 570.797 C 1377.42 568.565 1377.806 549.076 1379.997 537.339 C 1381.253 530.611 1385.462 511.194 1388.656 504.951 C 1390.915 500.536 1400.719 493.69 1409.225 491.07 C 1425.428 486.082 1447.316 485.764 1481.947 494.674 C 1513.095 502.687 1561.82 509.707 1593.871 508.169 C 1603.524 507.706 1630.527 500.054 1645.028 486.489 C 1657.912 474.436 1694.211 439.146 1710.729 426.485 C 1709.405 462.491 1710.647 543.275 1709.991 571.334 C 1710.647 599.392 1709.405 679.102 1710.729 715.108 Z"/>
</svg>