<?xml version="1.0" encoding="utf-8"?>
<svg viewBox="0 0 500 2000" xmlns="http://www.w3.org/2000/svg">
  <path style="fill: rgb(216, 216, 216); stroke: rgb(0, 0, 0);" d="M 241.227 237.588 C 250.624 232.376 249.201 210.937 251.201 205.946 C 253.202 200.959 255.938 192.124 260.542 187.264 C 269.74 177.552 275.27 174.256 286.516 166.326 C 297.763 158.395 302.482 152.001 310.104 142.826 C 315.309 136.56 325.801 128.303 330.641 121.383 C 335.48 114.461 338.375 107.266 342.88 100.171 C 346.98 93.712 349.915 81.215 352.23 74.855 C 354.545 68.495 356.359 58.46 359.667 51.083 C 364.596 40.09 365.68 27.989 372.476 19.614 C 379.271 11.24 390.213 -18.649 395.865 -27.805 C 399.605 -33.862 411.072 -43.187 417.457 -48.137 C 423.842 -53.086 402.336 -50.165 386.679 -50.947 C 379.193 -51.321 369.539 -58.003 362.01 -57.267 C 354.484 -56.532 344.058 -59.188 336.956 -56.787 C 315.161 -49.42 306.981 -33.682 300.519 -16.852 C 294.056 -0.024 289.309 17.895 274.382 29.623 C 265.537 36.574 256.278 42.99 246.783 49.053 C 237.288 55.117 227.558 60.831 217.768 66.374 C 199.516 76.709 178.937 82.406 158.188 87.761 C 137.439 93.115 116.518 98.127 97.587 107.096 C 91.297 110.075 85.487 112.375 78.5 115.627 C 71.512 118.881 55.073 126.271 60.846 123.991 C 67.001 121.56 47.482 129.416 42.591 132.008 C 37.7 134.598 26.612 139.217 27.996 140.652 C 39.272 152.328 59.196 150.381 68.123 154.722 C 77.048 159.063 85.987 159.857 98.535 163.595 C 115.375 168.611 119.72 171.004 128.36 173.086 C 137 175.169 142.61 176.106 155.436 180.761 C 165.941 184.572 170.472 180.1 184.758 187.701 C 197.479 194.468 197.819 196.46 206.041 203.019 C 212.992 208.565 216.595 217.613 223.456 226.46 C 230.318 235.309 232.58 242.383 241.227 237.588 Z" transform="matrix(0.870311, 0.492503, -0.492503, 0.870311, 73.602985, -98.190452)"/>
  <path style="fill: rgb(216, 216, 216); stroke: rgb(0, 0, 0);" d="M 243.423 265.002 C 252.821 270.213 251.397 291.654 253.398 296.643 C 255.399 301.631 258.134 310.465 262.738 315.325 C 271.936 325.037 277.466 328.333 288.713 336.263 C 299.96 344.195 304.678 350.588 312.3 359.763 C 317.505 366.029 327.998 374.286 332.837 381.206 C 337.677 388.128 340.571 395.324 345.077 402.42 C 349.177 408.877 352.111 421.375 354.427 427.735 C 356.743 434.095 358.555 444.129 361.864 451.507 C 366.792 462.499 367.877 474.601 374.673 482.975 C 381.468 491.35 392.409 521.239 398.062 530.394 C 401.801 536.452 413.269 545.777 419.653 550.726 C 426.039 555.675 404.532 552.754 388.876 553.536 C 381.39 553.91 371.735 560.592 364.207 559.857 C 356.68 559.121 346.255 561.778 339.153 559.377 C 317.358 552.011 309.178 536.272 302.715 519.442 C 296.252 502.614 291.505 484.695 276.579 472.966 C 267.734 466.016 258.475 459.6 248.98 453.536 C 239.485 447.472 229.754 441.759 219.964 436.215 C 201.713 425.881 181.133 420.184 160.384 414.828 C 139.635 409.475 118.714 404.462 99.783 395.494 C 93.493 392.514 87.684 390.214 80.696 386.962 C 73.709 383.71 57.269 376.32 63.042 378.599 C 69.197 381.029 49.679 373.173 44.788 370.583 C 39.897 367.991 28.809 363.372 30.194 361.938 C 41.468 350.263 61.393 352.208 70.319 347.867 C 79.245 343.527 88.183 342.732 100.732 338.994 C 117.572 333.978 121.917 331.586 130.557 329.504 C 139.196 327.42 144.807 326.483 157.632 321.83 C 168.137 318.018 172.67 322.49 186.955 314.889 C 199.676 308.121 200.017 306.129 208.237 299.571 C 215.188 294.025 218.792 284.978 225.653 276.129 C 232.515 267.282 234.776 260.206 243.423 265.002 Z" transform="matrix(0.870311, -0.492503, 0.492503, 0.870311, -173.638977, 164.452973)"/>
  <path style="fill: rgb(216, 216, 216); stroke: rgb(0, 0, 0);" d="M 29.761 596.2 C 29.71 590.528 51.466 580.553 62.65 576.619 C 70.227 573.954 89.833 567.963 97.994 567.138 C 106.156 566.312 134.748 564.261 141.653 565.139 C 153.607 566.658 161.368 567.633 182.064 570.212 C 202.76 572.79 216.219 574.312 230.545 576.969 C 244.388 579.537 264.005 582.745 275.253 582.144 C 286.504 581.542 299.981 581.86 315.796 575.848 C 330.355 570.315 340.565 569.667 351.499 560.19 C 362.433 550.714 375.043 544.897 389.968 543.38 C 404.296 541.924 419.698 554.33 424.626 560.378 C 429.553 566.427 432.974 573.906 439.304 577.918 C 447.537 583.136 474.728 589.467 479.641 593.19 C 480.179 593.198 448.575 606.085 440.294 611.332 C 433.965 615.344 429.696 624.515 424.769 630.563 C 419.842 636.611 405.285 647.326 390.957 645.869 C 376.033 644.353 363.423 638.536 352.49 629.06 C 341.555 619.583 331.345 618.935 316.787 613.402 C 300.971 607.39 287.494 607.707 276.244 607.106 C 264.995 606.505 245.378 609.713 231.536 612.281 C 217.209 614.939 203.75 616.46 183.055 619.038 C 162.358 621.616 154.598 622.591 142.643 624.111 C 135.739 624.989 106.189 623.416 98.985 622.59 C 91.781 621.765 71.218 615.296 63.639 612.631 C 52.457 608.697 29.809 601.356 29.761 596.2 Z"/>
  <path style="fill: rgb(216, 216, 216); stroke: rgb(0, 0, 0);" d="M 481.451 803.076 C 481.239 805.245 477.311 806.942 475.246 807.979 C 471.615 809.804 453.313 816.206 448.237 820.467 C 428.047 837.415 427.285 855.456 396.379 859.757 C 387.755 860.957 375.894 854.759 367.116 848.414 C 358.049 841.86 355.128 833.205 337.867 834.526 C 318.306 836.024 303.016 850.557 285.127 855.859 C 268.523 860.78 248.927 867.826 225.963 871.83 C 217.514 873.303 206.831 870.653 200.688 876.639 C 194.984 882.198 189.987 921.363 176.044 926.237 C 171.277 927.905 167.498 920.334 164.835 916.041 C 161.028 909.903 160.926 901.94 157.154 895.781 C 151.656 886.802 145.743 877.537 137.358 871.171 C 130.516 865.976 121.012 865.796 113.137 862.361 C 106.096 859.289 99.081 855.984 92.709 851.695 C 79.835 843.032 69.385 831.092 56.537 822.39 C 48.455 816.916 38.641 814.138 30.985 808.085 C 29.563 806.96 26.396 803.484 28.15 803.387 C 26.897 803.009 29.84 799.797 31.196 798.724 C 38.854 792.67 48.667 789.893 56.748 784.419 C 69.597 775.717 80.047 763.776 92.921 755.114 C 99.294 750.824 106.307 747.519 113.349 744.447 C 121.223 741.012 130.727 740.832 137.569 735.637 C 145.954 729.271 151.867 720.006 157.367 711.028 C 161.138 704.869 161.24 696.906 165.047 690.767 C 167.709 686.474 171.489 678.904 176.256 680.571 C 190.199 685.446 195.197 724.61 200.901 730.17 C 207.042 736.155 217.727 733.506 226.176 734.979 C 249.139 738.982 268.734 746.029 285.339 750.95 C 303.227 756.251 318.519 770.785 338.079 772.283 C 355.34 773.604 358.261 764.949 367.329 758.395 C 376.107 752.05 387.968 745.852 396.591 747.052 C 427.497 751.352 428.259 769.394 448.45 786.341 C 453.525 790.602 471.827 797.005 475.458 798.829 C 477.523 799.867 481.675 800.776 481.451 803.076 Z"/>
  <path style="fill: rgb(216, 216, 216); stroke: rgb(0, 0, 0);" d="M 106.479 981.955 C 111.58 979.578 124.048 976.166 129.673 976.332 C 136.782 976.541 141.832 976.085 149.353 975.629 C 173.448 974.169 197.696 970.016 220.341 961.572 C 253.389 949.249 285.367 932.291 320.147 926.429 C 334.392 924.028 348.862 929.887 363.021 932.755 C 367.455 933.653 373.144 933.922 375.672 937.675 C 381.509 946.341 382.435 956.048 386.215 965.789 C 388.53 971.754 391.517 978.846 393.946 984.766 C 397.449 993.305 401.179 1001.757 405.192 1010.069 C 406.384 1012.538 409.779 1015.711 408.003 1017.8 C 394.971 1033.132 372.015 1044.079 355.992 1053.646 C 346.332 1059.413 337.125 1065.966 327.175 1071.217 C 298.157 1086.532 262.677 1092.48 230.181 1087.383 C 221.144 1085.965 201.331 1081.441 195.039 1076.84 C 184.524 1069.149 178.517 1068.528 167.628 1061.377 C 162.716 1058.151 156.803 1056.796 151.462 1054.348 C 132.814 1045.801 113.789 1038.042 93.125 1036.074 C 85.647 1035.362 78.144 1034.835 70.634 1034.668 C 69.368 1034.64 55.993 1037.214 53.765 1034.668 C 47.034 1026.975 74.496 996.856 106.479 981.955 Z"/>
  <path style="fill: rgb(216, 216, 216); stroke: rgb(0, 0, 0);" d="M 112.805 1232.688 C 117.906 1235.065 130.374 1238.477 135.999 1238.311 C 143.108 1238.102 148.158 1238.558 155.679 1239.014 C 179.774 1240.474 204.022 1244.627 226.667 1253.071 C 259.715 1265.394 291.693 1282.352 326.473 1288.214 C 340.718 1290.615 355.188 1284.756 369.347 1281.888 C 373.781 1280.99 379.47 1280.721 381.998 1276.968 C 387.835 1268.302 388.761 1258.595 392.541 1248.854 C 394.856 1242.889 397.843 1235.797 400.272 1229.877 C 403.775 1221.338 407.505 1212.886 411.518 1204.574 C 412.71 1202.105 416.105 1198.932 414.329 1196.843 C 401.297 1181.511 378.341 1170.564 362.318 1160.997 C 352.658 1155.23 343.451 1148.677 333.501 1143.426 C 304.483 1128.111 269.003 1122.163 236.507 1127.26 C 227.47 1128.678 207.657 1133.202 201.365 1137.803 C 190.85 1145.494 184.843 1146.115 173.954 1153.266 C 169.042 1156.492 163.129 1157.847 157.788 1160.295 C 139.14 1168.842 120.115 1176.601 99.451 1178.569 C 91.973 1179.281 84.47 1179.808 76.96 1179.975 C 75.694 1180.003 62.319 1177.429 60.091 1179.975 C 53.36 1187.668 80.822 1217.787 112.805 1232.688 Z"/>
  <path style="fill: rgb(216, 216, 216); stroke: rgb(0, 0, 0);" d="M 132.733 1682.294 C 137.834 1684.671 150.302 1688.083 155.927 1687.917 C 163.036 1687.708 168.086 1688.164 175.607 1688.62 C 199.702 1690.08 223.95 1694.233 246.595 1702.677 C 279.643 1715 311.621 1731.958 346.401 1737.82 C 360.646 1740.221 375.116 1734.362 389.275 1731.494 C 393.709 1730.596 399.398 1730.327 401.926 1726.574 C 407.763 1717.908 408.689 1708.201 412.469 1698.46 C 414.784 1692.495 417.771 1685.403 420.2 1679.483 C 423.703 1670.944 427.433 1662.492 431.446 1654.18 C 432.638 1651.711 436.033 1648.538 434.257 1646.449 C 421.225 1631.117 398.269 1620.17 382.246 1610.603 C 372.586 1604.836 363.379 1598.283 353.429 1593.032 C 324.411 1577.717 288.931 1571.769 256.435 1576.866 C 247.398 1578.284 227.585 1582.808 221.293 1587.409 C 210.778 1595.1 204.771 1595.721 193.882 1602.872 C 188.97 1606.098 183.057 1607.453 177.716 1609.901 C 159.068 1618.448 140.043 1626.207 119.379 1628.175 C 111.901 1628.887 104.398 1629.414 96.888 1629.581 C 95.622 1629.609 82.247 1627.035 80.019 1629.581 C 73.288 1637.274 100.75 1667.393 132.733 1682.294 Z" transform="matrix(-1, 0, 0, -1, 513.756027, 3313.465088)"/>
  <path style="fill: rgb(216, 216, 216); stroke: rgb(0, 0, 0);" d="M 130.546 1418.519 C 135.647 1416.142 148.115 1412.73 153.74 1412.896 C 160.849 1413.105 165.899 1412.649 173.42 1412.193 C 197.515 1410.733 221.763 1406.58 244.408 1398.136 C 277.456 1385.813 309.434 1368.855 344.214 1362.993 C 358.459 1360.592 372.929 1366.451 387.088 1369.319 C 391.522 1370.217 397.211 1370.486 399.739 1374.239 C 405.576 1382.905 406.502 1392.612 410.282 1402.353 C 412.597 1408.318 415.584 1415.41 418.013 1421.33 C 421.516 1429.869 425.246 1438.321 429.259 1446.633 C 430.451 1449.102 433.846 1452.275 432.07 1454.364 C 419.038 1469.696 396.082 1480.643 380.059 1490.21 C 370.399 1495.977 361.192 1502.53 351.242 1507.781 C 322.224 1523.096 286.744 1529.044 254.248 1523.947 C 245.211 1522.529 225.398 1518.005 219.106 1513.404 C 208.591 1505.713 202.584 1505.092 191.695 1497.941 C 186.783 1494.715 180.87 1493.36 175.529 1490.912 C 156.881 1482.365 137.856 1474.606 117.192 1472.638 C 109.714 1471.926 102.211 1471.399 94.701 1471.232 C 93.435 1471.204 80.06 1473.778 77.832 1471.232 C 71.101 1463.539 98.563 1433.42 130.546 1418.519 Z" transform="matrix(-1, 0, 0, -1, 509.382034, 2888.160889)"/>
  <path style="fill: rgb(216, 216, 216); stroke: rgb(0, 0, 0);" d="M 45.538 1792.19 C 46.542 1785.898 49.906 1767.741 52.459 1761.903 C 54.265 1757.775 62.101 1751.373 68.9 1748.923 C 81.851 1744.258 100.063 1751.841 127.744 1760.173 C 152.641 1767.666 177.497 1775.315 202.163 1783.537 C 205.109 1784.519 220.615 1787.407 221.2 1790.458 C 223.047 1800.089 222.07 1807.727 221.998 1823.063 C 222.07 1838.397 223.047 1846.035 221.2 1855.666 C 220.615 1858.717 205.109 1861.605 202.163 1862.587 C 177.497 1870.809 152.641 1878.458 127.744 1885.951 C 100.063 1894.283 81.851 1901.866 68.9 1897.201 C 62.101 1894.751 54.265 1888.349 52.459 1884.221 C 49.906 1878.383 46.542 1860.226 45.538 1853.934 C 43.687 1842.339 42.894 1835.83 43.418 1823.063 C 42.894 1810.293 43.687 1803.785 45.538 1792.19 Z"/>
  <text style="white-space: pre; fill: rgb(51, 51, 51); font-family: Arial, sans-serif; font-size: 19.3px;" x="123.647" y="1447.629">Right Wing Top</text>
  <text style="white-space: pre; fill: rgb(51, 51, 51); font-family: Arial, sans-serif; font-size: 19.3px;" x="132.612" y="1648.994">Right Wing Bottom</text>
  <text style="white-space: pre; fill: rgb(51, 51, 51); font-family: Arial, sans-serif; font-size: 19.3px;" x="238.381" y="1007.352">Left Wing Top</text>
  <text style="white-space: pre; fill: rgb(51, 51, 51); font-family: Arial, sans-serif; font-size: 19.3px;" x="214.244" y="1213.544">Left Wing Bottom</text>
  <path style="fill: rgb(216, 216, 216); stroke: rgb(0, 0, 0);" d="M 274.415 1858.212 C 275.419 1864.504 278.783 1882.661 281.336 1888.499 C 283.142 1892.627 290.978 1899.029 297.777 1901.479 C 310.728 1906.144 328.94 1898.561 356.621 1890.229 C 381.518 1882.736 406.374 1875.087 431.04 1866.865 C 433.986 1865.883 449.492 1862.995 450.077 1859.944 C 451.924 1850.313 450.947 1842.675 450.875 1827.339 C 450.947 1812.005 451.924 1804.367 450.077 1794.736 C 449.492 1791.685 433.986 1788.797 431.04 1787.815 C 406.374 1779.593 381.518 1771.944 356.621 1764.451 C 328.94 1756.119 310.728 1748.536 297.777 1753.201 C 290.978 1755.651 283.142 1762.053 281.336 1766.181 C 278.783 1772.019 275.419 1790.176 274.415 1796.468 C 272.564 1808.063 271.771 1814.572 272.295 1827.339 C 271.771 1840.109 272.564 1846.617 274.415 1858.212 Z" transform="matrix(-1, 0, 0, -1, 723.333679, 3654.680054)"/>
</svg>