<?xml version="1.0" encoding="utf-8"?>
<svg viewBox="0 0 2245 2381.061" width="2245.04px" height="2381.1px" xmlns="http://www.w3.org/2000/svg">
  <defs>
    <view id="view-0" viewBox="0 0 1122.5 793.687">
      <title>view_0</title>
    </view>
    <view id="view-1" viewBox="1122.5 0 1122.5 793.7">
      <title>view_1</title>
    </view>
    <view id="view-2" viewBox="0 793.7 1122.5 793.7">
      <title>view_2</title>
    </view>
    <view id="view-3" viewBox="1122.5 793.7 1122.5 793.7">
      <title>view_3</title>
    </view>
    <view id="view-4" viewBox="0 1587.4 1122.5 793.7">
      <title>view_4</title>
    </view>
  </defs>
  <path style="fill: rgb(216, 216, 216); transform-box: fill-box; transform-origin: 50% 50%;" d="M 1244.326 640.817 C 1244.228 629.331 1293.827 613.148 1315.661 605.183 C 1330.454 599.786 1379.473 592.72 1395.406 591.048 C 1411.341 589.377 1448.604 585.228 1462.083 587.003 C 1485.42 590.079 1487.878 584.964 1528.281 590.185 C 1568.685 595.405 1594.961 598.486 1622.929 603.868 C 1649.954 609.066 1688.252 615.561 1710.211 614.343 C 1732.176 613.126 1759.214 613.725 1791.314 605.648 C 1819.737 598.497 1837.718 594.144 1855.158 582.047 C 1872.597 569.952 1897.215 555.132 1926.355 552.061 C 1954.325 549.114 1977.558 566.131 1987.179 578.377 C 1996.798 590.626 2018.124 597.664 2030.482 605.787 C 2046.557 616.354 2125.867 633.224 2136.433 640.817 C 2127.818 648.408 2048.508 665.277 2032.436 675.843 C 2020.078 683.964 1998.752 691.005 1989.132 703.254 C 1979.511 715.498 1956.277 732.516 1928.305 729.568 C 1899.167 726.498 1874.548 711.68 1857.111 699.583 C 1839.671 687.486 1821.69 683.135 1793.267 675.981 C 1761.168 667.905 1734.129 668.504 1712.163 667.285 C 1690.205 666.068 1651.907 672.564 1624.882 677.763 C 1596.913 683.143 1570.638 686.225 1530.233 691.444 C 1489.829 696.667 1487.373 691.551 1464.035 694.626 C 1450.555 696.406 1413.293 692.253 1397.359 690.582 C 1381.425 688.91 1332.406 681.844 1317.613 676.447 C 1295.779 668.482 1244.228 652.3 1244.326 640.817 Z">
    <title>Top (new)</title>
  </path>
  <path style="fill: rgb(216, 216, 216); transform-box: fill-box; transform-origin: 50% 50%;" d="M 235.061 1330.364 C 244.39 1325.855 267.192 1319.384 277.478 1319.697 C 290.48 1320.094 299.716 1319.229 313.471 1318.364 C 357.536 1315.595 401.881 1307.718 443.294 1291.702 C 503.734 1268.328 562.218 1236.164 625.822 1225.047 C 651.876 1220.491 678.339 1231.605 704.234 1237.045 C 712.344 1238.749 722.746 1239.258 727.37 1246.376 C 738.044 1262.813 739.738 1281.224 746.651 1299.701 C 750.885 1311.016 756.347 1324.467 760.791 1335.695 C 767.197 1351.892 774.019 1367.923 781.357 1383.69 C 783.537 1388.371 789.746 1394.39 786.497 1398.352 C 762.665 1427.433 720.683 1448.196 691.379 1466.341 C 673.712 1477.281 656.873 1489.708 638.678 1499.67 C 585.607 1528.717 520.723 1539.999 461.291 1530.333 C 444.765 1527.644 408.528 1519.061 397.022 1510.336 C 377.791 1495.748 366.805 1494.571 346.892 1481.006 C 337.908 1474.888 327.096 1472.316 317.327 1467.674 C 283.224 1451.462 248.429 1436.746 210.638 1433.011 C 196.962 1431.662 183.241 1430.662 169.507 1430.345 C 167.19 1430.292 142.73 1435.175 138.655 1430.345 C 126.345 1415.755 176.57 1358.625 235.061 1330.364 Z">
    <title>Left wing top</title>
  </path>
  <path style="fill: rgb(216, 216, 216); transform-box: fill-box; transform-origin: 50% 50%;" d="M 245.021 1059.332 C 254.35 1063.84 277.151 1070.311 287.438 1069.997 C 300.439 1069.598 309.675 1070.466 323.43 1071.33 C 367.495 1074.099 411.842 1081.974 453.256 1097.992 C 513.695 1121.364 572.177 1153.53 635.784 1164.649 C 661.837 1169.203 688.3 1158.091 714.192 1152.651 C 722.303 1150.947 732.705 1150.436 737.33 1143.318 C 748.006 1126.881 749.699 1108.47 756.611 1089.994 C 760.845 1078.679 766.307 1065.227 770.751 1054 C 777.157 1037.801 783.978 1021.771 791.317 1006.008 C 793.497 1001.323 799.705 995.304 796.458 991.342 C 772.625 962.263 730.643 941.498 701.338 923.352 C 683.672 912.414 666.832 899.984 648.637 890.024 C 595.568 860.975 530.681 849.695 471.251 859.364 C 454.724 862.05 418.489 870.633 406.982 879.36 C 387.753 893.948 376.767 895.125 356.852 908.69 C 347.869 914.808 337.055 917.377 327.288 922.02 C 293.183 938.232 258.39 952.949 220.597 956.681 C 206.922 958.033 193.201 959.032 179.467 959.347 C 177.151 959.401 152.689 954.517 148.614 959.347 C 136.305 973.939 186.53 1031.067 245.021 1059.332 Z">
    <title>Left wing bottom</title>
  </path>
  <text style="white-space: pre; fill: rgb(51, 51, 51); font-family: Arial, sans-serif; font-size: 19.3px; transform-box: fill-box; transform-origin: 50% 50%;" x="932.071" y="188.207" transform="matrix(1.828836, 0, 0, 1.896732, -429.341553, 822.81311)"><title>Left wing top text</title>Left Wing Top</text>
  <text style="white-space: pre; fill: rgb(51, 51, 51); font-family: Arial, sans-serif; font-size: 19.3px; transform-box: fill-box; transform-origin: 50% 50%;" x="907.934" y="394.399" transform="matrix(1.828836, 0, 0, 1.896732, -463.417877, 989.943726)"><title>Left wing bottom text</title>Left Wing Bottom</text>
  <path style="fill: rgb(216, 216, 216); transform-box: fill-box; transform-origin: 50% 50%;" d="M 1491.058 961.168 C 1500.387 956.659 1523.188 950.189 1533.475 950.503 C 1546.477 950.9 1555.712 950.034 1569.467 949.172 C 1613.534 946.401 1657.879 938.524 1699.292 922.506 C 1759.731 899.135 1818.214 866.97 1881.822 855.851 C 1907.874 851.298 1934.337 862.411 1960.229 867.85 C 1968.339 869.553 1978.743 870.063 1983.367 877.182 C 1994.042 893.62 1995.735 912.031 2002.649 930.506 C 2006.882 941.82 2012.344 955.274 2016.788 966.501 C 2023.194 982.696 2030.015 998.728 2037.353 1014.494 C 2039.535 1019.176 2045.745 1025.195 2042.495 1029.158 C 2018.662 1058.239 1976.679 1079.002 1947.377 1097.147 C 1929.709 1108.086 1912.87 1120.514 1894.674 1130.476 C 1841.606 1159.525 1776.718 1170.807 1717.287 1161.138 C 1700.76 1158.449 1664.525 1149.866 1653.019 1141.141 C 1633.79 1126.553 1622.804 1125.375 1602.89 1111.812 C 1593.906 1105.693 1583.093 1103.123 1573.325 1098.48 C 1539.22 1082.268 1504.426 1067.55 1466.634 1063.817 C 1452.961 1062.467 1439.238 1061.468 1425.503 1061.153 C 1423.188 1061.097 1398.726 1065.981 1394.652 1061.153 C 1382.342 1046.56 1432.567 989.431 1491.058 961.168 Z" transform="matrix(-1, 0, 0, -1, 0.000121, 0.00006)">
    <title>Right wing top</title>
  </path>
  <path style="fill: rgb(216, 216, 216); transform-box: fill-box; transform-origin: 50% 50%;" d="M 1477.701 1430.822 C 1487.03 1435.332 1509.831 1441.804 1520.121 1441.489 C 1533.123 1441.091 1542.357 1441.957 1556.112 1442.822 C 1600.177 1445.59 1644.523 1453.469 1685.937 1469.484 C 1746.377 1492.857 1804.86 1525.022 1868.466 1536.14 C 1894.516 1540.695 1920.981 1529.582 1946.876 1524.141 C 1954.983 1522.437 1965.389 1521.929 1970.012 1514.81 C 1980.686 1498.373 1982.382 1479.962 1989.293 1461.486 C 1993.528 1450.17 1998.99 1436.719 2003.432 1425.491 C 2009.838 1409.294 2016.66 1393.263 2023.998 1377.496 C 2026.18 1372.815 2032.388 1366.796 2029.14 1362.834 C 2005.308 1333.755 1963.324 1312.989 1934.021 1294.845 C 1916.355 1283.905 1899.516 1271.477 1881.319 1261.516 C 1828.249 1232.469 1763.363 1221.187 1703.932 1230.854 C 1687.406 1233.542 1651.172 1242.124 1639.664 1250.852 C 1620.435 1265.44 1609.448 1266.615 1589.535 1280.18 C 1580.55 1286.298 1569.736 1288.87 1559.969 1293.512 C 1525.866 1309.725 1491.072 1324.44 1453.28 1328.174 C 1439.604 1329.524 1425.881 1330.524 1412.147 1330.841 C 1409.832 1330.894 1385.372 1326.011 1381.297 1330.841 C 1368.987 1345.43 1419.21 1402.561 1477.701 1430.822 Z" transform="matrix(-1, 0, 0, -1, 0.000132, -0.000249)">
    <title>Right wing bottom</title>
  </path>
  <text style="white-space: pre; fill: rgb(51, 51, 51); font-family: Arial, sans-serif; font-size: 19.3px; transform-box: fill-box; transform-origin: 50% 50%;" x="1348.674" y="198.003" transform="matrix(1.828836, 0, 0, 1.896732, 203.802414, 810.331421)"><title>Right wing top text</title>Right Wing Top</text>
  <text style="white-space: pre; fill: rgb(51, 51, 51); font-family: Arial, sans-serif; font-size: 19.3px; transform-box: fill-box; transform-origin: 50% 50%;" x="1357.639" y="399.368" transform="matrix(1.828836, 0, 0, 1.896732, 192.004532, 973.543396)"><title>Right wing bottom text</title>Right Wing Bottom</text>
  <path style="fill: rgb(216, 216, 216); transform-box: fill-box; transform-origin: 50% 50%;" d="M 2203.96 265.365 C 2192.76 269.233 2138.369 278.003 2126.4 292.954 C 2122.491 297.837 2110.783 306.078 2107.812 310.19 C 2099.108 322.238 2091.245 328.251 2083.108 330.533 C 2076.272 332.45 2062.918 332.803 2052.481 334.086 C 2040.896 335.511 2018.756 327.646 2010.759 322.023 C 1994.567 310.644 1973.255 302.718 1951.877 310.132 C 1933.922 316.357 1899.601 327.525 1886.872 331.042 C 1869.862 335.74 1813.436 356.276 1788.474 364.366 C 1750.609 376.639 1716.563 382.075 1696.542 385.851 C 1677.944 389.359 1660.447 393.933 1635.818 405.068 C 1620.054 412.193 1602.066 416.705 1590.387 436.354 C 1579.831 454.118 1576.672 483.574 1557.011 490.3 C 1544.831 490.254 1532.886 455.846 1531.955 453.489 C 1520.645 424.868 1500.833 421.153 1487.773 414.433 C 1480.129 410.498 1477.623 407.462 1465.315 404.133 C 1454.484 401.205 1454.158 399.487 1440.542 395.587 C 1426.924 391.688 1408.571 386.69 1400.021 383.049 C 1389.605 378.615 1371.591 371.474 1350.793 363.451 C 1329.995 355.43 1319.016 351.579 1302.91 338.793 C 1290.541 328.968 1280.046 325.157 1268.297 315.728 C 1256.551 306.299 1257.468 309.09 1240.314 299.131 C 1231.607 294.079 1213.544 286.105 1209.095 283.664 C 1204.646 281.221 1183.626 277.04 1175.686 265.365 C 1183.626 253.691 1204.646 249.51 1209.095 247.065 C 1213.544 244.622 1231.607 236.653 1240.314 231.598 C 1257.468 221.64 1256.551 224.429 1268.297 215.001 C 1280.046 205.571 1290.541 201.761 1302.91 191.938 C 1319.016 179.151 1329.995 175.299 1350.793 167.277 C 1371.591 159.256 1389.605 152.113 1400.021 147.68 C 1408.571 144.038 1426.924 139.042 1440.542 135.143 C 1454.158 131.244 1454.484 129.523 1465.315 126.596 C 1477.623 123.268 1480.129 120.23 1487.773 116.295 C 1500.833 109.575 1520.645 105.86 1531.955 77.239 C 1532.886 74.882 1544.831 40.474 1557.011 40.429 C 1576.672 47.154 1579.831 76.612 1590.387 94.374 C 1602.066 114.024 1620.054 118.535 1635.818 125.664 C 1660.447 136.797 1677.944 141.368 1696.542 144.877 C 1716.563 148.655 1750.609 154.09 1788.474 166.363 C 1813.436 174.453 1869.862 194.988 1886.872 199.687 C 1899.601 203.205 1933.922 214.371 1951.877 220.597 C 1973.255 228.009 1994.567 220.084 2010.759 208.705 C 2018.756 203.082 2040.896 195.216 2052.481 196.642 C 2062.918 197.925 2076.272 198.279 2083.108 200.196 C 2091.245 202.479 2099.108 208.493 2107.812 220.539 C 2110.783 224.65 2122.491 232.891 2126.4 237.775 C 2138.369 252.726 2192.76 261.495 2203.96 265.365 Z">
    <title>Bottom (new)</title>
  </path>
  <path style="fill: rgb(216, 216, 216); transform-box: fill-box; transform-origin: 50% 50%;" d="M 514.283 2172.183 C 493.539 2154.944 447.95 2106.895 431.768 2090.486 C 413.556 2072.016 379.643 2061.599 367.519 2060.967 C 327.267 2058.873 266.072 2068.431 226.952 2079.343 C 183.459 2091.472 155.97 2091.039 135.621 2084.248 C 124.938 2080.681 112.624 2071.36 109.787 2065.348 C 105.777 2056.848 100.489 2030.41 98.912 2021.252 C 96.16 2005.271 95.677 1978.736 95.742 1975.699 C 95.677 1972.66 96.16 1946.125 98.912 1930.143 C 100.489 1920.983 105.777 1894.547 109.787 1886.047 C 112.624 1880.036 124.938 1870.715 135.621 1867.148 C 155.97 1860.357 183.459 1859.922 226.952 1872.054 C 266.072 1882.965 327.267 1892.523 367.519 1890.43 C 379.643 1889.798 413.556 1879.379 431.768 1860.91 C 447.95 1844.499 493.539 1796.451 514.283 1779.214 C 512.619 1828.236 514.18 1938.227 513.357 1976.429 C 514.18 2014.632 512.619 2123.16 514.283 2172.183 Z" transform="matrix(0, -1, 1, 0, -0.000065, 0.000055)"/>
  <path style="fill: rgb(216, 216, 216); transform-box: fill-box; transform-origin: 50% 50%;" d="M 1054.648 2175.459 C 1033.903 2158.219 988.314 2110.171 972.132 2093.76 C 953.92 2075.292 920.007 2064.873 907.883 2064.241 C 867.632 2062.148 806.437 2071.707 767.317 2082.617 C 723.823 2094.748 696.335 2094.315 675.985 2087.524 C 665.302 2083.957 652.989 2074.635 650.151 2068.624 C 646.14 2060.123 640.853 2033.687 639.277 2024.527 C 636.524 2008.547 636.039 1982.012 636.107 1978.974 C 636.039 1975.935 636.524 1949.401 639.277 1933.42 C 640.853 1924.26 646.14 1897.822 650.151 1889.322 C 652.989 1883.312 665.302 1873.99 675.985 1870.423 C 696.335 1863.633 723.823 1863.198 767.317 1875.33 C 806.437 1886.239 867.632 1895.797 907.883 1893.704 C 920.007 1893.072 953.92 1882.654 972.132 1864.187 C 988.314 1847.776 1033.903 1799.726 1054.648 1782.488 C 1052.984 1831.511 1054.544 1941.502 1053.721 1979.706 C 1054.544 2017.906 1052.984 2126.436 1054.648 2175.459 Z" transform="matrix(0, -1, 1, 0, 0.000044, -0.00004)"/>
  <path style="fill: rgb(216, 216, 216); transform-origin: 340.245px 336.632px;" d="M 356.298 52.74 C 375.122 62.811 373.615 104.234 377.853 113.879 C 382.099 123.516 388.021 140.586 397.382 149.978 C 416.087 168.742 427.179 175.109 449.81 190.434 C 472.44 205.755 482.123 218.112 497.689 235.839 C 508.322 247.947 529.485 263.899 539.439 277.272 C 549.389 290.647 555.527 304.548 564.828 318.258 C 573.292 330.738 579.827 354.883 584.775 367.172 C 589.718 379.462 593.897 398.852 600.859 413.107 C 611.232 434.346 614.099 457.726 627.992 473.91 C 641.88 490.088 665.238 547.841 676.925 565.531 C 684.658 577.235 723.872 603.427 736.748 612.992 C 749.624 622.557 691.022 608.736 660.227 610.245 C 645.506 610.969 626.892 623.88 612.019 622.458 C 597.15 621.039 576.773 626.169 562.637 621.531 C 519.262 607.295 502.197 576.886 488.452 544.368 C 474.706 511.853 464.274 477.229 434.165 454.569 C 416.322 441.138 397.697 428.743 378.627 417.028 C 359.559 405.308 340.047 394.27 320.43 383.559 C 283.854 363.591 242.975 352.584 201.78 342.238 C 160.587 331.89 119.074 322.208 81.245 304.878 C 68.674 299.12 57.091 294.677 43.131 288.393 C 29.169 282.107 -3.658 267.827 7.852 272.231 C 20.123 276.929 -18.801 261.751 -28.591 256.742 C -38.38 251.738 -60.503 242.813 -57.861 240.039 C -36.355 217.48 3.006 221.241 20.331 212.854 C 37.648 204.468 55.208 202.931 79.699 195.71 C 112.567 186.018 120.981 181.396 137.874 177.372 C 154.767 173.346 165.76 171.537 190.743 162.542 C 211.206 155.179 220.399 163.821 248.08 149.131 C 272.729 136.056 273.279 132.209 289.076 119.533 C 302.433 108.82 308.985 91.336 321.965 74.243 C 334.949 57.144 338.975 43.476 356.298 52.74 Z" transform="matrix(0.258819, -0.965926, 0.965926, 0.258819, -0.000007, 0.000031)">
    <title>Right</title>
  </path>
  <path style="fill: rgb(216, 216, 216); transform-origin: 726.919px 447.905px;" d="M 742.972 164.013 C 761.796 174.083 760.289 215.507 764.527 225.152 C 768.773 234.788 774.695 251.859 784.056 261.251 C 802.761 280.015 813.853 286.382 836.484 301.707 C 859.114 317.028 868.797 329.385 884.363 347.112 C 894.996 359.22 916.16 375.172 926.113 388.544 C 936.063 401.92 942.201 415.821 951.502 429.53 C 959.966 442.01 966.501 466.156 971.449 478.445 C 976.392 490.735 980.571 510.124 987.533 524.38 C 997.906 545.619 1000.773 568.998 1014.666 585.183 C 1028.554 601.361 1051.912 659.114 1063.599 676.803 C 1071.332 688.507 1110.546 714.7 1123.422 724.264 C 1136.298 733.83 1077.696 720.009 1046.901 721.518 C 1032.18 722.241 1013.567 735.152 998.693 733.73 C 983.824 732.312 963.447 737.442 949.311 732.804 C 905.936 718.567 888.871 688.159 875.127 655.641 C 861.38 623.126 850.948 588.502 820.839 565.841 C 802.996 552.411 784.371 540.015 765.301 528.3 C 746.233 516.581 726.721 505.542 707.104 494.831 C 670.528 474.864 629.647 463.857 588.452 453.51 C 547.259 443.163 505.746 433.481 467.917 416.15 C 455.347 410.393 443.764 405.95 429.804 399.666 C 415.842 393.379 383.015 379.1 394.525 383.504 C 406.796 388.202 367.872 373.023 358.082 368.015 C 348.293 363.011 326.17 354.086 328.812 351.312 C 350.318 328.753 389.679 332.514 407.004 324.127 C 424.321 315.74 441.881 314.204 466.371 306.982 C 499.239 297.291 507.653 292.668 524.546 288.645 C 541.439 284.619 552.432 282.809 577.415 273.815 C 597.878 266.451 607.071 275.094 634.752 260.404 C 659.402 247.328 659.952 243.482 675.75 230.806 C 689.108 220.092 695.659 202.608 708.639 185.516 C 721.623 168.417 725.649 154.749 742.972 164.013 Z" transform="matrix(-0.258819, 0.965926, -0.965926, -0.258819, 0.000004, -0.000018)">
    <title>Right</title>
  </path>
  <path style="fill: rgb(216, 216, 216); transform-origin: 305.252px 1766.49px; stroke-width: 3px; stroke-dasharray: 10; stroke: rgb(3, 116, 209);" d="M 305.715 1570.011 C 304.051 1619.033 305.612 1729.024 304.789 1767.226 C 305.612 1805.429 304.051 1913.957 305.715 1962.98" transform="matrix(0, -1, 1, 0, -0.000038, -0.000024)">
    <title>tail_sew_top_1</title>
  </path>
  <path style="fill: rgb(216, 216, 216); stroke-width: 3px; stroke-dasharray: 10; stroke: rgb(3, 116, 209); transform-origin: 844.83px 1769.76px;" d="M 845.293 1573.287 C 843.629 1622.309 845.19 1732.3 844.367 1770.502 C 845.19 1808.705 843.629 1917.233 845.293 1966.256" transform="matrix(0, -1, 1, 0, 0.000033, 0.000001)">
    <title>tail_sew_top_2</title>
  </path>
  <g transform="matrix(1, 0, 0, 1, -313.188995, -102.452934)">
    <title>tail_sew_bottom</title>
    <path style="fill: none; stroke: rgb(200, 0, 255); transform-origin: 618.586px 2078.98px; stroke-dasharray: 5; stroke-width: 7px;" d="M 827.859 2275.461 C 807.115 2258.222 761.526 2210.173 745.344 2193.764" transform="matrix(0, -1, 1, 0, -0.00008, -0.000008)">
      <title>right</title>
    </path>
    <path style="fill: none; stroke: rgb(200, 0, 255); transform-origin: 618.586px 2078.98px; stroke-dasharray: 5; stroke-width: 7px;" d="M 745.344 1964.188 C 761.526 1947.777 807.115 1899.729 827.859 1882.492" transform="matrix(0, -1, 1, 0, -0.00008, -0.000008)">
      <title>left</title>
    </path>
    <path style="fill: none; stroke: rgb(0, 71, 251); stroke-dasharray: 8; transform-origin: 618.586px 2078.98px; stroke-width: 4px;" d="M 745.344 2193.764 C 727.132 2175.294 693.219 2164.877 681.095 2164.245 C 640.843 2162.151 579.648 2171.709 540.528 2182.621 C 497.035 2194.75 469.546 2194.317 449.197 2187.526 C 438.514 2183.959 426.2 2174.638 423.363 2168.626 C 419.353 2160.126 414.065 2133.688 412.488 2124.53 C 409.736 2108.549 409.253 2082.014 409.318 2078.977 C 409.253 2075.938 409.736 2049.403 412.488 2033.421 C 414.065 2024.261 419.353 1997.825 423.363 1989.325 C 426.2 1983.314 438.514 1973.993 449.197 1970.426 C 469.546 1963.635 497.035 1963.2 540.528 1975.332 C 579.648 1986.243 640.843 1995.801 681.095 1993.708 C 693.219 1993.076 727.132 1982.657 745.344 1964.188" transform="matrix(0, -1, 1, 0, -0.00008, -0.000008)"/>
  </g>
  <g transform="matrix(1, 0, 0, 1, 226.960617, -99.039703)">
    <title>tail_sew_bottom</title>
    <path style="fill: none; stroke: rgb(200, 0, 255); transform-origin: 618.586px 2078.98px; stroke-dasharray: 5; stroke-width: 7px;" d="M 827.859 2275.461 C 807.115 2258.222 761.526 2210.173 745.344 2193.764" transform="matrix(0, -1, 1, 0, -0.00008, -0.000008)">
      <title>right</title>
    </path>
    <path style="fill: none; stroke: rgb(200, 0, 255); transform-origin: 618.586px 2078.98px; stroke-dasharray: 5; stroke-width: 7px;" d="M 745.344 1964.188 C 761.526 1947.777 807.115 1899.729 827.859 1882.492" transform="matrix(0, -1, 1, 0, -0.00008, -0.000008)">
      <title>left</title>
    </path>
    <path style="fill: none; stroke: rgb(0, 71, 251); stroke-dasharray: 8; transform-origin: 618.586px 2078.98px; stroke-width: 4px;" d="M 745.344 2193.764 C 727.132 2175.294 693.219 2164.877 681.095 2164.245 C 640.843 2162.151 579.648 2171.709 540.528 2182.621 C 497.035 2194.75 469.546 2194.317 449.197 2187.526 C 438.514 2183.959 426.2 2174.638 423.363 2168.626 C 419.353 2160.126 414.065 2133.688 412.488 2124.53 C 409.736 2108.549 409.253 2082.014 409.318 2078.977 C 409.253 2075.938 409.736 2049.403 412.488 2033.421 C 414.065 2024.261 419.353 1997.825 423.363 1989.325 C 426.2 1983.314 438.514 1973.993 449.197 1970.426 C 469.546 1963.635 497.035 1963.2 540.528 1975.332 C 579.648 1986.243 640.843 1995.801 681.095 1993.708 C 693.219 1993.076 727.132 1982.657 745.344 1964.188" transform="matrix(0, -1, 1, 0, -0.00008, -0.000008)"/>
  </g>
  <g transform="matrix(1, 0, 0, 1, -268.657227, 206.514557)">
    <title>left_wing_sew_bottom</title>
    <path style="fill: none; stroke: rgb(0, 212, 46); stroke-width: 4px; stroke-dasharray: 5; transform-origin: 729.87px 1173.69px;" d="M 995.139 1041.216 C 1005.813 1057.653 1007.507 1076.064 1014.42 1094.541 C 1018.654 1105.856 1024.116 1119.307 1028.56 1130.535 C 1034.966 1146.732 1041.788 1162.763 1049.126 1178.53 C 1051.306 1183.211 1057.515 1189.23 1054.266 1193.192">
      <title>Left wing top</title>
    </path>
    <path style="fill: none; stroke-dasharray: 10; stroke-width: 4px; stroke: rgb(0, 119, 255); transform-origin: 729.87px 1173.69px;" d="M 1054.266 1193.192 C 1030.434 1222.273 988.452 1243.036 959.148 1261.181 C 941.481 1272.121 924.642 1284.548 906.447 1294.51 C 853.376 1323.557 788.492 1334.839 729.06 1325.173 C 712.534 1322.484 676.297 1313.901 664.791 1305.176 C 645.56 1290.588 634.574 1289.411 614.661 1275.846 C 605.677 1269.728 594.865 1267.156 585.096 1262.514 C 550.993 1246.302 516.198 1231.586 478.407 1227.851 C 464.731 1226.502 451.01 1225.502 437.276 1225.185 C 434.959 1225.132 410.499 1230.015 406.424 1225.185 C 394.114 1210.595 444.339 1153.465 502.83 1125.204 C 512.159 1120.695 534.961 1114.224 545.247 1114.537 C 558.249 1114.934 567.485 1114.069 581.24 1113.204 C 625.305 1110.435 669.65 1102.558 711.063 1086.542 C 771.503 1063.168 829.987 1031.004 893.591 1019.887 C 919.645 1015.331 946.108 1026.445 972.003 1031.885 C 980.113 1033.589 990.515 1034.098 995.139 1041.216"/>
  </g>
  <g transform="matrix(1, 0, 0, 1, -242.865097, -182.501633)">
    <title>left_wing_sew_top</title>
    <path style="fill: none; stroke: rgb(255, 0, 0); stroke-width: 4px; stroke-dasharray: 5; transform-origin: 714.12px 1193.34px;" d="M 979.39 1325.817 C 990.066 1309.38 991.759 1290.969 998.671 1272.493 C 1002.905 1261.178 1008.367 1247.726 1012.811 1236.499 C 1019.217 1220.3 1026.038 1204.27 1033.377 1188.507 C 1035.557 1183.822 1041.765 1177.803 1038.518 1173.841">
      <title>Left wing bottom</title>
    </path>
    <path style="fill: none; stroke-width: 4px; stroke: rgb(0, 119, 255); stroke-dasharray: 8; transform-origin: 714.12px 1193.34px;" d="M 1038.518 1173.841 C 1014.685 1144.762 972.703 1123.997 943.398 1105.851 C 925.732 1094.913 908.892 1082.483 890.697 1072.523 C 837.628 1043.474 772.741 1032.194 713.311 1041.863 C 696.784 1044.549 660.549 1053.132 649.042 1061.859 C 629.813 1076.447 618.827 1077.624 598.912 1091.189 C 589.929 1097.307 579.115 1099.876 569.348 1104.519 C 535.243 1120.731 500.45 1135.448 462.657 1139.18 C 448.982 1140.532 435.261 1141.531 421.527 1141.846 C 419.211 1141.9 394.749 1137.016 390.674 1141.846 C 378.365 1156.438 428.59 1213.566 487.081 1241.831 C 496.41 1246.339 519.211 1252.81 529.498 1252.496 C 542.499 1252.097 551.735 1252.965 565.49 1253.829 C 609.555 1256.598 653.902 1264.473 695.316 1280.491 C 755.755 1303.863 814.237 1336.029 877.844 1347.148 C 903.897 1351.702 930.36 1340.59 956.252 1335.15 C 964.363 1333.446 974.765 1332.935 979.39 1325.817"/>
  </g>
  <g transform="matrix(-1, 0, 0, 1, 975.027283, 208.162384)" style="transform-origin: 729.87px 1173.69px;">
    <title>right_wing_sew_bottom</title>
    <path style="fill: none; stroke: rgb(0, 212, 46); stroke-width: 4px; stroke-dasharray: 5; transform-origin: 729.87px 1173.69px;" d="M 995.139 1041.216 C 1005.813 1057.653 1007.507 1076.064 1014.42 1094.541 C 1018.654 1105.856 1024.116 1119.307 1028.56 1130.535 C 1034.966 1146.732 1041.788 1162.763 1049.126 1178.53 C 1051.306 1183.211 1057.515 1189.23 1054.266 1193.192">
      <title>Right wing bottom</title>
    </path>
    <path style="fill: none; stroke-dasharray: 10; stroke-width: 4px; stroke: rgb(0, 119, 255); transform-origin: 729.87px 1173.69px;" d="M 1054.266 1193.192 C 1030.434 1222.273 988.452 1243.036 959.148 1261.181 C 941.481 1272.121 924.642 1284.548 906.447 1294.51 C 853.376 1323.557 788.492 1334.839 729.06 1325.173 C 712.534 1322.484 676.297 1313.901 664.791 1305.176 C 645.56 1290.588 634.574 1289.411 614.661 1275.846 C 605.677 1269.728 594.865 1267.156 585.096 1262.514 C 550.993 1246.302 516.198 1231.586 478.407 1227.851 C 464.731 1226.502 451.01 1225.502 437.276 1225.185 C 434.959 1225.132 410.499 1230.015 406.424 1225.185 C 394.114 1210.595 444.339 1153.465 502.83 1125.204 C 512.159 1120.695 534.961 1114.224 545.247 1114.537 C 558.249 1114.934 567.485 1114.069 581.24 1113.204 C 625.305 1110.435 669.65 1102.558 711.063 1086.542 C 771.503 1063.168 829.987 1031.004 893.591 1019.887 C 919.645 1015.331 946.108 1026.445 972.003 1031.885 C 980.113 1033.589 990.515 1034.098 995.139 1041.216"/>
  </g>
  <g transform="matrix(-1, 0, 0, 1, 1003.734192, -184.127243)" style="transform-origin: 714.12px 1193.35px;">
    <title>right_wing_sew_top</title>
    <path style="fill: none; stroke: rgb(255, 0, 0); stroke-width: 4px; stroke-dasharray: 5; transform-origin: 714.12px 1193.34px;" d="M 979.39 1325.817 C 990.066 1309.38 991.759 1290.969 998.671 1272.493 C 1002.905 1261.178 1008.367 1247.726 1012.811 1236.499 C 1019.217 1220.3 1026.038 1204.27 1033.377 1188.507 C 1035.557 1183.822 1041.765 1177.803 1038.518 1173.841">
      <title>Right wing top</title>
    </path>
    <path style="fill: none; stroke-width: 4px; stroke: rgb(0, 119, 255); stroke-dasharray: 8; transform-origin: 714.12px 1193.34px;" d="M 1038.518 1173.841 C 1014.685 1144.762 972.703 1123.997 943.398 1105.851 C 925.732 1094.913 908.892 1082.483 890.697 1072.523 C 837.628 1043.474 772.741 1032.194 713.311 1041.863 C 696.784 1044.549 660.549 1053.132 649.042 1061.859 C 629.813 1076.447 618.827 1077.624 598.912 1091.189 C 589.929 1097.307 579.115 1099.876 569.348 1104.519 C 535.243 1120.731 500.45 1135.448 462.657 1139.18 C 448.982 1140.532 435.261 1141.531 421.527 1141.846 C 419.211 1141.9 394.749 1137.016 390.674 1141.846 C 378.365 1156.438 428.59 1213.566 487.081 1241.831 C 496.41 1246.339 519.211 1252.81 529.498 1252.496 C 542.499 1252.097 551.735 1252.965 565.49 1253.829 C 609.555 1256.598 653.902 1264.473 695.316 1280.491 C 755.755 1303.863 814.237 1336.029 877.844 1347.148 C 903.897 1351.702 930.36 1340.59 956.252 1335.15 C 964.363 1333.446 974.765 1332.935 979.39 1325.817"/>
  </g>
  <g transform="matrix(1, 0, 0, 1, -132.068985, -72.472832)" style="transform-origin: 482.461px 381.505px;">
    <title>left_body_sew</title>
    <path style="fill: none; stroke-width: 4px; stroke-dasharray: 10; transform-origin: 472.314px 407.347px; stroke: rgb(200, 0, 255);" d="M 152.4 283.569 C 169.717 275.183 187.277 273.646 211.768 266.425" transform="matrix(0.258819, -0.965926, 0.965926, 0.258819, -0.000026, -0.000007)"/>
    <path style="fill: none; stroke-width: 4px; stroke: rgb(0, 119, 255); stroke-dasharray: 10; transform-origin: 472.314px 407.347px;" d="M 322.812 233.257 C 343.275 225.894 352.468 234.536 380.149 219.846 C 404.798 206.771 405.348 202.924 421.145 190.248 C 434.502 179.535 441.054 162.051 454.034 144.958 C 467.018 127.859 471.044 114.191 488.367 123.455 C 507.191 133.526 505.684 174.949 509.922 184.594 C 514.168 194.231 520.09 211.301 529.451 220.693 C 548.156 239.457 559.248 245.824 581.879 261.149 C 604.509 276.47 614.192 288.827 629.758 306.554 C 640.391 318.662 661.554 334.614 671.508 347.987 C 681.458 361.362 687.596 375.263 696.897 388.973 C 705.361 401.453 711.896 425.598 716.844 437.887 C 721.787 450.177 725.966 469.567 732.928 483.822 C 743.301 505.061 746.168 528.441 760.061 544.625 C 773.949 560.803 797.307 618.556 808.994 636.246 C 816.727 647.95 855.941 674.142 868.817 683.707" transform="matrix(0.258819, -0.965926, 0.965926, 0.258819, -0.000026, -0.000007)"/>
    <path style="fill: none; stroke-width: 4px; transform-origin: 472.314px 407.347px; stroke: rgb(200, 0, 255); stroke-dasharray: 5;" d="M 211.768 266.425 C 244.636 256.733 253.05 252.111 269.943 248.087 C 286.836 244.061 297.829 242.252 322.812 233.257" transform="matrix(0.258819, -0.965926, 0.965926, 0.258819, -0.000026, -0.000007)"/>
    <path style="fill: none; stroke: rgb(255, 255, 0); stroke-width: 5px; transform-origin: 472.314px 407.347px;" d="M 74.208 310.754 C 95.714 288.195 135.075 291.956 152.4 283.569" transform="matrix(0.258819, -0.965926, 0.965926, 0.258819, -0.000026, -0.000007)"/>
    <path style="fill: none; stroke: rgb(255, 0, 0); stroke-width: 4px; stroke-dasharray: 10; transform-origin: 472.314px 407.347px;" d="M 868.817 683.707 C 881.693 693.272 823.091 679.451 792.296 680.96 C 777.575 681.684 758.961 694.595 744.088 693.173 C 729.219 691.754 708.842 696.884 694.706 692.246 C 651.331 678.01 634.266 647.601 620.521 615.083 C 613.648 598.825 607.603 582.041 599.514 566.488" transform="matrix(0.258819, -0.965926, 0.965926, 0.258819, -0.000026, -0.000007)"/>
    <path style="fill: none; stroke-width: 4px; stroke: rgb(0, 212, 46); stroke-dasharray: 5; transform-origin: 472.314px 407.347px;" d="M 599.514 566.488 C 591.424 550.935 581.289 536.614 566.234 525.284 C 548.391 511.853 529.766 499.458 510.696 487.743" transform="matrix(0.258819, -0.965926, 0.965926, 0.258819, -0.000026, -0.000007)"/>
    <path style="fill: none; stroke-dasharray: 10; stroke: rgb(0, 212, 46); stroke-width: 4px; transform-origin: 472.314px 407.347px;" d="M 510.696 487.743 C 491.628 476.023 472.116 464.985 452.499 454.274 C 415.923 434.306 375.044 423.299 333.849 412.953 C 292.656 402.605 251.143 392.923 213.314 375.593 C 200.743 369.835 189.16 365.392 175.2 359.108 C 161.238 352.822 128.411 338.542 139.921 342.946 C 152.192 347.644 113.268 332.466 103.478 327.457 C 93.689 322.453 71.566 313.528 74.208 310.754" transform="matrix(0.258819, -0.965926, 0.965926, 0.258819, -0.000026, -0.000007)"/>
  </g>
  <g transform="matrix(-1, 0, 0, -1, 235.266571, 91.164917)" style="transform-origin: 482.461px 381.505px;">
    <title>right_body_sew</title>
    <path style="fill: none; stroke-width: 4px; stroke-dasharray: 10; transform-origin: 472.314px 407.347px; stroke: rgb(200, 0, 255);" d="M 152.4 283.569 C 169.717 275.183 187.277 273.646 211.768 266.425" transform="matrix(0.258819, -0.965926, 0.965926, 0.258819, -0.000026, -0.000007)"/>
    <path style="fill: none; stroke-width: 4px; stroke: rgb(0, 119, 255); stroke-dasharray: 10; transform-origin: 472.314px 407.347px;" d="M 322.812 233.257 C 343.275 225.894 352.468 234.536 380.149 219.846 C 404.798 206.771 405.348 202.924 421.145 190.248 C 434.502 179.535 441.054 162.051 454.034 144.958 C 467.018 127.859 471.044 114.191 488.367 123.455 C 507.191 133.526 505.684 174.949 509.922 184.594 C 514.168 194.231 520.09 211.301 529.451 220.693 C 548.156 239.457 559.248 245.824 581.879 261.149 C 604.509 276.47 614.192 288.827 629.758 306.554 C 640.391 318.662 661.554 334.614 671.508 347.987 C 681.458 361.362 687.596 375.263 696.897 388.973 C 705.361 401.453 711.896 425.598 716.844 437.887 C 721.787 450.177 725.966 469.567 732.928 483.822 C 743.301 505.061 746.168 528.441 760.061 544.625 C 773.949 560.803 797.307 618.556 808.994 636.246 C 816.727 647.95 855.941 674.142 868.817 683.707" transform="matrix(0.258819, -0.965926, 0.965926, 0.258819, -0.000026, -0.000007)"/>
    <path style="fill: none; stroke-width: 4px; transform-origin: 472.314px 407.347px; stroke: rgb(200, 0, 255); stroke-dasharray: 5;" d="M 211.768 266.425 C 244.636 256.733 253.05 252.111 269.943 248.087 C 286.836 244.061 297.829 242.252 322.812 233.257" transform="matrix(0.258819, -0.965926, 0.965926, 0.258819, -0.000026, -0.000007)"/>
    <path style="fill: none; stroke: rgb(255, 255, 0); stroke-width: 5px; transform-origin: 472.314px 407.347px;" d="M 74.208 310.754 C 95.714 288.195 135.075 291.956 152.4 283.569" transform="matrix(0.258819, -0.965926, 0.965926, 0.258819, -0.000026, -0.000007)"/>
    <path style="fill: none; stroke: rgb(255, 0, 0); stroke-width: 4px; stroke-dasharray: 10; transform-origin: 472.314px 407.347px;" d="M 868.817 683.707 C 881.693 693.272 823.091 679.451 792.296 680.96 C 777.575 681.684 758.961 694.595 744.088 693.173 C 729.219 691.754 708.842 696.884 694.706 692.246 C 651.331 678.01 634.266 647.601 620.521 615.083 C 613.648 598.825 607.603 582.041 599.514 566.488" transform="matrix(0.258819, -0.965926, 0.965926, 0.258819, -0.000026, -0.000007)"/>
    <path style="fill: none; stroke-width: 4px; stroke: rgb(0, 212, 46); stroke-dasharray: 5; transform-origin: 472.314px 407.347px;" d="M 599.514 566.488 C 591.424 550.935 581.289 536.614 566.234 525.284 C 548.391 511.853 529.766 499.458 510.696 487.743" transform="matrix(0.258819, -0.965926, 0.965926, 0.258819, -0.000026, -0.000007)"/>
    <path style="fill: none; stroke-dasharray: 10; stroke: rgb(0, 212, 46); stroke-width: 4px; transform-origin: 472.314px 407.347px;" d="M 510.696 487.743 C 491.628 476.023 472.116 464.985 452.499 454.274 C 415.923 434.306 375.044 423.299 333.849 412.953 C 292.656 402.605 251.143 392.923 213.314 375.593 C 200.743 369.835 189.16 365.392 175.2 359.108 C 161.238 352.822 128.411 338.542 139.921 342.946 C 152.192 347.644 113.268 332.466 103.478 327.457 C 93.689 322.453 71.566 313.528 74.208 310.754" transform="matrix(0.258819, -0.965926, 0.965926, 0.258819, -0.000026, -0.000007)"/>
  </g>
  <g transform="matrix(1, 0, 0, 1, 59.835083, 98.701965)">
    <title>top_sew</title>
    <path style="fill: none; stroke-width: 4px; transform-origin: 1630.54px 542.113px; stroke: rgb(255, 0, 0); stroke-dasharray: 5;" d="M 1689.08 570.36 C 1675.562 569.348 1663.311 569.193 1652.328 568.583 C 1641.349 567.974 1626.285 569.294 1610.588 571.416 C 1594.89 573.538 1578.559 576.461 1565.047 579.061"/>
    <path style="fill: none; stroke-width: 4px; transform-origin: 1630.54px 542.113px; stroke-dasharray: 5; stroke: rgb(255, 0, 0);" d="M 1563.094 505.166 C 1576.607 507.765 1592.937 510.688 1608.635 512.809 C 1624.332 514.931 1639.397 516.25 1650.376 515.641 C 1661.359 515.032 1673.609 514.878 1687.127 513.866"/>
    <path style="fill: none; stroke-width: 4px; stroke-dasharray: 10; transform-origin: 1630.54px 542.113px; stroke: rgb(255, 0, 0);" d="M 1687.127 513.866 C 1700.644 512.854 1715.429 510.984 1731.479 506.946 C 1745.691 503.371 1757.292 500.495 1767.52 497 C 1777.748 493.506 1786.603 489.394 1795.323 483.345 C 1812.762 471.25 1837.38 456.43 1866.52 453.359 C 1894.49 450.412 1917.723 467.429 1927.344 479.675 C 1936.963 491.924 1958.289 498.962 1970.647 507.085 C 1986.722 517.652 2066.032 534.522 2076.598 542.115 C 2067.983 549.706 1988.673 566.575 1972.601 577.141 C 1960.243 585.262 1938.917 592.303 1929.297 604.552 C 1919.676 616.796 1896.442 633.814 1868.47 630.866 C 1839.332 627.796 1814.713 612.978 1797.276 600.881 C 1788.556 594.833 1779.701 590.721 1769.473 587.226 C 1759.245 583.732 1747.644 580.856 1733.432 577.279 C 1717.383 573.241 1702.598 571.372 1689.08 570.36"/>
    <path style="fill: none; stroke: rgb(0, 212, 46); stroke-width: 4px; stroke-dasharray: 10; transform-origin: 1630.54px 542.113px;" d="M 1565.047 579.061 C 1537.078 584.441 1510.803 587.523 1470.398 592.742 C 1429.994 597.965 1427.538 592.849 1404.2 595.924 C 1390.72 597.704 1353.458 593.551 1337.524 591.88 C 1321.59 590.208 1272.571 583.142 1257.778 577.745 C 1235.944 569.78 1184.393 553.598 1184.491 542.115 C 1184.393 530.629 1233.992 514.446 1255.826 506.481 C 1270.619 501.084 1319.638 494.018 1335.571 492.346 C 1351.506 490.675 1388.769 486.526 1402.248 488.301 C 1425.585 491.377 1428.043 486.262 1468.446 491.483 C 1508.85 496.703 1535.126 499.784 1563.094 505.166"/>
  </g>
  <g transform="matrix(1, 0, 0, 1, -35.993946, -133.068527)">
    <title>bottom_sew</title>
    <path style="fill: none; stroke-width: 4px; stroke: rgb(255, 255, 0); transform-origin: 1726.04px 398.742px;" d="M 1276.534 432.509 C 1267.827 427.457 1249.764 419.483 1245.315 417.042 C 1240.866 414.599 1219.846 410.418 1211.906 398.743 C 1219.846 387.069 1240.866 382.888 1245.315 380.443 C 1249.764 378 1267.827 370.031 1276.534 364.976">
      <title>Bottom (new)</title>
    </path>
    <path style="fill: none; stroke-width: 4px; stroke-dasharray: 8; stroke: rgb(200, 0, 255); transform-origin: 1726.04px 398.742px;" d="M 1276.534 364.976 C 1293.688 355.018 1292.771 357.807 1304.517 348.379 C 1316.266 338.949 1326.761 335.139 1339.13 325.316"/>
    <path style="fill: none; stroke-width: 4px; stroke-dasharray: 5; stroke: rgb(200, 0, 255); transform-origin: 1726.04px 398.742px;" d="M 1339.13 325.316 C 1355.236 312.529 1366.215 308.677 1387.013 300.655 C 1407.811 292.634 1425.825 285.491 1436.241 281.058"/>
    <path style="fill: none; stroke-width: 4px; stroke: rgb(200, 0, 255); stroke-dasharray: 5; transform-origin: 1726.04px 398.742px;" d="M 1436.241 516.427 C 1425.825 511.993 1407.811 504.852 1387.013 496.829 C 1366.215 488.808 1355.236 484.957 1339.13 472.171"/>
    <path style="fill: none; stroke-width: 4px; stroke-dasharray: 8; stroke: rgb(200, 0, 255); transform-origin: 1726.04px 398.742px;" d="M 1339.13 472.171 C 1326.761 462.346 1316.266 458.535 1304.517 449.106 C 1292.771 439.677 1293.688 442.468 1276.534 432.509"/>
    <path style="fill: none; stroke-width: 4px; stroke-dasharray: 8; stroke: rgb(0, 119, 255); transform-origin: 1726.04px 398.742px;" d="M 1436.241 281.058 C 1444.791 277.416 1463.144 272.42 1476.762 268.521 C 1490.378 264.622 1490.704 262.901 1501.535 259.974 C 1513.843 256.646 1516.349 253.608 1523.993 249.673 C 1537.053 242.953 1556.865 239.238 1568.175 210.617 C 1569.106 208.26 1581.051 173.852 1593.231 173.807 C 1612.892 180.532 1616.051 209.99 1626.607 227.752 C 1638.286 247.402 1656.274 251.913 1672.038 259.042 C 1696.667 270.175 1714.164 274.746 1732.762 278.255 C 1752.783 282.033 1786.829 287.468 1824.694 299.741 C 1849.656 307.831 1906.082 328.366 1923.092 333.065 C 1935.821 336.583 1970.142 347.749 1988.097 353.975 C 2009.475 361.387 2030.787 353.462 2046.979 342.083 C 2054.976 336.46 2077.116 328.594 2088.701 330.02 C 2099.138 331.303 2112.492 331.657 2119.328 333.574 C 2127.465 335.857 2135.328 341.871 2144.032 353.917 C 2147.003 358.028 2158.711 366.269 2162.62 371.153 C 2174.589 386.104 2228.98 394.873 2240.18 398.743 C 2228.98 402.611 2174.589 411.381 2162.62 426.332 C 2158.711 431.215 2147.003 439.456 2144.032 443.568 C 2135.328 455.616 2127.465 461.629 2119.328 463.911 C 2112.492 465.828 2099.138 466.181 2088.701 467.464 C 2077.116 468.889 2054.976 461.024 2046.979 455.401 C 2030.787 444.022 2009.475 436.096 1988.097 443.51 C 1970.142 449.735 1935.821 460.903 1923.092 464.42 C 1906.082 469.118 1849.656 489.654 1824.694 497.744 C 1786.829 510.017 1752.783 515.453 1732.762 519.229 C 1714.164 522.737 1696.667 527.311 1672.038 538.446 C 1656.274 545.571 1638.286 550.083 1626.607 569.732 C 1616.051 587.496 1612.892 616.952 1593.231 623.678 C 1581.051 623.632 1569.106 589.224 1568.175 586.867 C 1556.865 558.246 1537.053 554.531 1523.993 547.811 C 1516.349 543.876 1513.843 540.84 1501.535 537.511 C 1490.704 534.583 1490.378 532.865 1476.762 528.965 C 1463.144 525.066 1444.791 520.068 1436.241 516.427"/>
  </g>
  <g transform="matrix(1, 0, 0, 1, -5.917564, 5.917564)">
    <title>step_1</title>
    <ellipse style="fill: rgb(180, 239, 255); stroke-width: 4px; stroke: rgb(83, 120, 255);" cx="567.645" cy="1668.491" rx="36.985" ry="36.985"/>
    <text style="white-space: pre; fill: rgb(51, 51, 51); font-family: Arial, sans-serif; font-size: 41.4px;" x="556.687" y="1680.656">1</text>
    <line style="fill: rgb(216, 216, 216); stroke: rgb(255, 187, 51); stroke-width: 3px;" x1="376.805" y1="1761.035" x2="532.141" y2="1685.586"/>
    <line style="fill: rgb(216, 216, 216); stroke: rgb(255, 187, 51); stroke-width: 3px;" x1="762.926" y1="1759.556" x2="604.631" y2="1684.107"/>
  </g>
  <g transform="matrix(1, 0, 0, 1, -25.554159, 576.138123)">
    <title>step_2</title>
    <ellipse style="fill: rgb(180, 239, 255); stroke-width: 4px; stroke: rgb(83, 120, 255);" cx="567.645" cy="1668.491" rx="36.985" ry="36.985"/>
    <text style="white-space: pre; fill: rgb(51, 51, 51); font-family: Arial, sans-serif; font-size: 41.4px;" x="556.687" y="1680.656">2</text>
    <line style="fill: rgb(216, 216, 216); stroke: rgb(255, 187, 51); stroke-width: 3px;" x1="394.708" y1="1603.488" x2="530.66" y2="1657.849"/>
    <line style="fill: rgb(216, 216, 216); stroke: rgb(255, 187, 51); stroke-width: 3px;" x1="767.7" y1="1586.492" x2="604.63" y2="1657.849"/>
  </g>
  <g transform="matrix(1, 0, 0, 1, -311.568481, -449.825745)">
    <title>step_3</title>
    <ellipse style="fill: rgb(180, 239, 255); stroke-width: 4px; stroke: rgb(83, 120, 255);" cx="720.528" cy="1646.491" rx="36.985" ry="36.985"/>
    <text style="white-space: pre; fill: rgb(51, 51, 51); font-family: Arial, sans-serif; font-size: 41.4px;" x="709.57" y="1658.656">3</text>
    <line style="fill: rgb(216, 216, 216); stroke: rgb(255, 187, 51); stroke-width: 3px;" x1="714.405" y1="1533.853" x2="720.043" y2="1609.506"/>
    <line style="fill: rgb(216, 216, 216); stroke: rgb(255, 187, 51); stroke-width: 3px;" x1="732.596" y1="1749.633" x2="720.043" y2="1683.476"/>
  </g>
  <g transform="matrix(1, 0, 0, 1, 1165.856567, -474.024994)">
    <title>step_4</title>
    <ellipse style="fill: rgb(180, 239, 255); stroke-width: 4px; stroke: rgb(83, 120, 255);" cx="720.528" cy="1668.491" rx="36.985" ry="36.985"/>
    <text style="white-space: pre; fill: rgb(51, 51, 51); font-family: Arial, sans-serif; font-size: 41.4px;" x="709.57" y="1680.656">4</text>
    <line style="fill: rgb(216, 216, 216); stroke: rgb(255, 187, 51); stroke-width: 3px;" x1="615.512" y1="1555.747" x2="709.57" y2="1631.506"/>
    <line style="fill: rgb(216, 216, 216); stroke: rgb(255, 187, 51); stroke-width: 3px;" x1="709.57" y1="1705.476" x2="615.512" y2="1781.862"/>
  </g>
  <g transform="matrix(1, 0, 0, 1, 104.330048, -700.527161)">
    <title>step_7</title>
    <ellipse style="fill: rgb(180, 239, 255); stroke-width: 4px; stroke: rgb(83, 120, 255);" cx="900.011" cy="1641.583" rx="36.985" ry="36.985"/>
    <text style="white-space: pre; fill: rgb(51, 51, 51); font-family: Arial, sans-serif; font-size: 41.4px;" x="889.053" y="1653.748">7</text>
  </g>
  <g transform="matrix(1, 0, 0, 1, 103.937637, -757.551331)">
    <title>step_5</title>
    <ellipse style="fill: rgb(180, 239, 255); stroke-width: 4px; stroke: rgb(83, 120, 255);" cx="900.011" cy="1641.583" rx="36.985" ry="36.985"/>
    <text style="white-space: pre; fill: rgb(51, 51, 51); font-family: Arial, sans-serif; font-size: 41.4px;" x="889.053" y="1653.748">5 </text>
    <line style="fill: rgb(216, 216, 216); stroke: rgb(255, 187, 51); stroke-width: 3px;" x1="279.831" y1="1442.579" x2="863.026" y2="1637.064"/>
    <line style="fill: rgb(216, 216, 216); stroke: rgb(255, 187, 51); stroke-width: 3px;" x1="928.567" y1="1661.622" x2="1295.794" y2="1763.422"/>
    <line style="fill: rgb(216, 216, 216); stroke: rgb(255, 187, 51); stroke-width: 3px;" x1="1819.432" y1="1487.456" x2="936.996" y2="1637.064"/>
  </g>
  <g transform="matrix(1, 0, 0, 1, 212.91275, -911.880981)">
    <title>step_8</title>
    <ellipse style="fill: rgb(180, 239, 255); stroke-width: 4px; stroke: rgb(83, 120, 255);" cx="900.011" cy="1641.583" rx="36.985" ry="36.985"/>
    <text style="white-space: pre; fill: rgb(51, 51, 51); font-family: Arial, sans-serif; font-size: 41.4px;" x="889.053" y="1653.748">8</text>
  </g>
  <g transform="matrix(1, 0, 0, 1, 35.117046, -1110.552612)">
    <title>step_6</title>
    <ellipse style="fill: rgb(180, 239, 255); stroke-width: 4px; stroke: rgb(83, 120, 255);" cx="1076.407" cy="1895.249" rx="36.985" ry="36.985"/>
    <text style="white-space: pre; fill: rgb(51, 51, 51); font-family: Arial, sans-serif; font-size: 41.4px;" x="1065.449" y="1907.414">6</text>
    <line style="fill: rgb(216, 216, 216); stroke-width: 3px; stroke: rgb(187, 149, 72);" x1="521.207" y1="1634.916" x2="1045.311" y2="1875.061"/>
    <line style="fill: rgb(216, 216, 216); stroke-width: 3px; stroke: rgb(187, 149, 72);" x1="1107.956" y1="1875.061" x2="1324.513" y2="1796.601"/>
    <line style="fill: rgb(216, 216, 216); stroke-width: 3px; stroke: rgb(187, 149, 72);" x1="1402.244" y1="2370.531" x2="1088.479" y2="1932.234"/>
  </g>
  <g transform="matrix(1, 0, 0, 1, 36.51675, -1620.928711)">
    <title>step_10</title>
    <ellipse style="fill: rgb(180, 239, 255); stroke-width: 4px; stroke: rgb(83, 120, 255);" cx="1076.407" cy="1895.249" rx="36.985" ry="36.985"/>
    <text style="white-space: pre; fill: rgb(51, 51, 51); font-family: Arial, sans-serif; font-size: 41.4px;" x="1065.449" y="1907.414" transform="matrix(1, 0, 0, 1, -10.701418, 2.378093)">10<tspan x="1065.448974609375" dy="1em">​</tspan></text>
  </g>
  <g transform="matrix(1, 0, 0, 1, 35.117043, -1685.503418)">
    <title>step_9</title>
    <ellipse style="fill: rgb(180, 239, 255); stroke-width: 4px; stroke: rgb(83, 120, 255);" cx="1076.407" cy="1895.249" rx="36.985" ry="36.985"/>
    <text style="white-space: pre; fill: rgb(51, 51, 51); font-family: Arial, sans-serif; font-size: 41.4px;" x="1065.449" y="1907.414">9</text>
    <line style="fill: rgb(216, 216, 216); stroke-width: 3px; stroke: rgb(187, 149, 72);" x1="621.319" y1="1750.46" x2="1046.702" y2="1869.895"/>
    <line style="fill: rgb(216, 216, 216); stroke-width: 3px; stroke: rgb(187, 149, 72);" x1="2100.863" y1="1971.083" x2="1113.392" y2="1888.587"/>
  </g>
  <g transform="matrix(1, 0, 0, 1, 356.611908, -460.773407)">
    <title>step_11</title>
    <ellipse style="fill: rgb(180, 239, 255); stroke-width: 4px; stroke: rgb(83, 120, 255);" cx="22.503" cy="958.152" rx="36.985" ry="36.985"/>
    <text style="white-space: pre; fill: rgb(51, 51, 51); font-family: Arial, sans-serif; font-size: 41.4px;" x="1.573" y="971.286">11</text>
    <line style="fill: rgb(216, 216, 216); stroke-width: 3px; stroke: rgb(255, 187, 51);" x1="947.454" y1="797.445" x2="59.488" y2="947.428"/>
    <line style="fill: rgb(216, 216, 216); stroke: rgb(255, 187, 51); stroke-width: 3px;" x1="14.695" y1="995.137" x2="-219.113" y2="2257.534"/>
    <text style="fill: rgb(51, 51, 51); font-family: Arial, sans-serif; font-size: 24px; white-space: pre; transform-box: fill-box; transform-origin: 50% 50%;" transform="matrix(1, 0, 0, 1, -282.869659, -138.402618)"><tspan x="1074.06" y="2241.82">1. Inverted sew the top line of both tail pieces together.</tspan><tspan x="1074.06005859375" dy="1em">​</tspan><tspan x="1074.06005859375" dy="1em">​</tspan><tspan>2. Leaving a gap, inverted sew the bottom curve of both tail pieces together.</tspan><tspan x="1074.06005859375" dy="1em">​</tspan><tspan x="1074.06005859375" dy="1em">​</tspan><tspan>    Uninvert the tail through either gap so that the outside is out.</tspan><tspan x="1074.06005859375" dy="1em">​</tspan><tspan x="1074.06005859375" dy="1em">​</tspan><tspan>3. Inverted sew the top and bottom edges of the left wing together.</tspan><tspan x="1074.06005859375" dy="1em">​</tspan><tspan x="1074.06005859375" dy="1em">​</tspan><tspan>    Uninvert the wing.</tspan><tspan x="1074.06005859375" dy="1em">​</tspan><tspan x="1074.06005859375" dy="1em">​</tspan><tspan>4. Inverted sew the top and bottom edges of the right wing together.</tspan><tspan x="1074.06005859375" dy="1em">​</tspan><tspan x="1074.06005859375" dy="1em">​</tspan><tspan>    Uninvert the wing.</tspan><tspan x="1074.06005859375" dy="1em">​</tspan><tspan x="1074.06005859375" dy="1em">​</tspan><tspan>5. Working from the beak towards the body, inverted sew one side of the body to the top of the body.</tspan><tspan x="1074.06005859375" dy="1em">​</tspan><tspan x="1074.06005859375" dy="1em">​</tspan><tspan>    As you approach the main body, sew the top of the body to the top of the wing.</tspan><tspan x="1074.06005859375" dy="1em">​</tspan><tspan x="1074.06005859375" dy="1em">​</tspan><tspan>6. Sew the side of the body to the bottom of the wing, then reconnect to the top of the body.</tspan><tspan x="1074.06005859375" dy="1em">​</tspan><tspan>7. Repeat step 5 for the other side of the body.</tspan><tspan x="1074.06005859375" dy="1em">​</tspan><tspan>8. Repeat step 6 for the other side of the body.</tspan><tspan x="1074.06005859375" dy="1em">​</tspan><tspan>9. Inverted sew the side of the body's bottom half to the bottom of the body.</tspan><tspan x="1074.06005859375" dy="1em">​</tspan><tspan>10. Repeat step 9 for the other side of the body.</tspan><tspan x="1074.06005859375" dy="1em">​</tspan><tspan>11. Keeping the body inverted, attach the tail.</tspan><tspan x="1074.06005859375" dy="1em">​</tspan><tspan x="1074.06005859375" dy="1em">​</tspan><tspan>    Uninvert the body through the unsewn back tip of the body.<tspan x="1074.06005859375" dy="1em">​</tspan></tspan><tspan x="1074.06005859375" dy="1em">​</tspan><tspan x="1074.06005859375" dy="1em">​</tspan>You're nearly there!</text>
  </g>
  <line style="fill: rgb(216, 216, 216); stroke: rgb(255, 187, 51); stroke-width: 3px;" x1="341.933" y1="500.823" x2="135.894" y2="524.363"/>
</svg>