<?xml version="1.0" encoding="utf-8"?>
<svg viewBox="0 0 527.273 742.246" xmlns="http://www.w3.org/2000/svg">
  <path style="fill: rgb(216, 216, 216); stroke: rgb(0, 0, 0);" d="M 29.351 239.296 C 40.627 250.972 60.551 249.025 69.478 253.366 C 78.403 257.707 87.342 258.501 99.89 262.239 C 116.73 267.255 121.075 269.648 129.715 271.73 C 138.355 273.813 143.965 274.75 156.791 279.405 C 167.296 283.216 171.827 278.744 186.113 286.345 C 198.834 293.112 199.174 295.104 207.396 301.663 C 214.347 307.209 217.95 316.257 224.811 325.104 C 231.673 333.953 233.935 341.027 242.582 336.232 C 251.979 331.02 250.556 309.581 252.556 304.59 C 254.557 299.603 257.293 290.768 261.897 285.908 C 271.095 276.196 276.625 272.9 287.871 264.97 C 299.118 257.039 303.837 250.645 311.459 241.47 C 316.664 235.204 327.156 226.947 331.996 220.027 C 336.835 213.105 339.73 205.91 344.235 198.815 C 348.335 192.356 351.27 179.859 353.585 173.499 C 355.9 167.139 357.714 157.104 361.022 149.727 C 365.951 138.734 367.035 126.633 373.831 118.258 C 380.626 109.884 391.568 79.995 397.22 70.839 C 400.96 64.782 412.427 55.457 418.812 50.507" transform="matrix(0.870311, 0.492503, -0.492503, 0.870311, 122.361169, -86.064728)"/>
  <path style="fill: rgb(216, 216, 216); stroke: rgb(0, 0, 0);" d="M 419.347 286.336 C 425.732 281.387 404.226 284.308 388.569 283.526 C 381.083 283.152 371.429 276.47 363.9 277.206 C 356.374 277.941 345.948 275.285 338.846 277.686 C 317.051 285.053 308.871 300.791 302.409 317.621 C 295.946 334.449 291.199 352.368 276.272 364.096 C 267.427 371.047 258.168 377.463 248.673 383.526 C 239.178 389.59 229.448 395.304 219.658 400.847 C 201.406 411.182 180.827 416.879 160.078 422.234 C 139.329 427.588 118.408 432.6 99.477 441.569 C 93.187 444.548 87.377 446.848 80.39 450.1 C 73.402 453.354 56.963 460.744 62.736 458.464 C 68.891 456.033 49.372 463.889 44.481 466.481 C 39.59 469.071 28.502 473.69 29.886 475.125" transform="matrix(0.870311, 0.492503, -0.492503, 0.870311, 238.577024, -55.743747)"/>
  <path style="fill: rgb(216, 216, 216); stroke: rgb(0, 0, 0);" d="M 31.741 535.97 C 31.69 530.298 53.446 520.323 64.63 516.389 C 72.207 513.724 91.813 507.733 99.974 506.908 C 108.136 506.082 136.728 504.031 143.633 504.909 C 155.587 506.428 163.348 507.403 184.044 509.982 C 204.74 512.56 218.199 514.082 232.525 516.739 C 246.368 519.307 265.985 522.515 277.233 521.914 C 288.484 521.312 301.961 521.63 317.776 515.618 C 332.335 510.085 342.545 509.437 353.479 499.96 C 364.413 490.484 377.023 484.667 391.948 483.15 C 406.276 481.694 421.678 494.1 426.606 500.148 C 431.533 506.197 434.954 513.676 441.284 517.688 C 449.517 522.906 476.708 529.237 481.621 532.96"/>
  <path style="fill: rgb(216, 216, 216); stroke: rgb(0, 0, 0);" d="M 30.703 688.99 C 29.45 688.612 32.393 685.4 33.749 684.327 C 41.407 678.273 51.22 675.496 59.301 670.022 C 72.15 661.32 82.6 649.379 95.474 640.717 C 101.847 636.427 108.86 633.122 115.902 630.05 C 123.776 626.615 133.28 626.435 140.122 621.24 C 148.507 614.874 154.42 605.609 159.92 596.631 C 163.691 590.472 163.793 582.509 167.6 576.37 C 170.262 572.077 174.042 564.507 178.809 566.174 C 192.752 571.049 197.75 610.213 203.454 615.773 C 209.595 621.758 220.28 619.109 228.729 620.582 C 251.692 624.585 271.287 631.632 287.892 636.553 C 305.78 641.854 321.072 656.388 340.632 657.886 C 357.893 659.207 360.814 650.552 369.882 643.998 C 378.66 637.653 390.521 631.455 399.144 632.655 C 430.05 636.955 430.812 654.997 451.003 671.944 C 456.078 676.205 474.38 682.608 478.011 684.432 C 480.076 685.47 484.228 686.379 484.004 688.679"/>
</svg>