<?xml version="1.0" encoding="utf-8"?>
<svg viewBox="650 0 560 800" xmlns="http://www.w3.org/2000/svg">
  <path style="fill: rgb(216, 216, 216); stroke: rgb(0, 0, 0);" d="M 364.99 412.335 C 378.395 405.164 377.322 375.666 380.34 368.798 C 383.363 361.936 387.58 349.78 394.246 343.092 C 407.566 329.73 415.465 325.196 431.58 314.284 C 447.696 303.373 454.59 294.574 465.675 281.951 C 473.246 273.329 488.317 261.969 495.405 252.447 C 502.49 242.922 506.861 233.023 513.484 223.261 C 519.512 214.374 524.166 197.18 527.688 188.429 C 531.208 179.677 534.185 165.87 539.142 155.719 C 546.529 140.595 548.57 123.946 558.463 112.421 C 568.353 100.901 584.986 59.775 593.308 47.178 C 598.815 38.844 626.739 20.192 635.908 13.381 C 645.077 6.57 603.346 16.412 581.418 15.337 C 570.935 14.822 557.68 5.628 547.089 6.641 C 536.501 7.651 521.99 3.998 511.924 7.3 C 481.037 17.438 468.886 39.092 459.098 62.248 C 449.309 85.402 441.88 110.057 420.439 126.194 C 407.733 135.758 394.471 144.585 380.891 152.927 C 367.313 161.272 353.418 169.133 339.449 176.76 C 313.403 190.979 284.293 198.817 254.959 206.185 C 225.625 213.553 196.064 220.448 169.126 232.789 C 160.175 236.888 151.927 240.052 141.986 244.527 C 132.043 249.004 108.668 259.172 116.864 256.036 C 125.602 252.691 97.885 263.499 90.913 267.066 C 83.942 270.629 68.189 276.985 70.07 278.96 C 85.385 295.024 113.414 292.346 125.75 298.318 C 138.082 304.29 150.586 305.384 168.025 310.527 C 191.43 317.428 197.422 320.72 209.451 323.585 C 221.481 326.452 229.309 327.74 247.099 334.145 C 261.671 339.389 268.217 333.235 287.929 343.695 C 305.481 353.006 305.873 355.745 317.122 364.772 C 326.634 372.401 331.299 384.851 340.542 397.023 C 349.788 409.199 352.655 418.932 364.99 412.335 Z" transform="matrix(-0.49999999999999994, -0.8660250306129456, 0.8660250306129456, -0.49999999999999994, 340.03219604492176, 616.66943359375)">
    <title>Right</title>
  </path>
  <path style="fill: rgb(216, 216, 216); stroke: rgb(0, 0, 0);" d="M 892.584 285.651 C 899.228 282.44 915.465 277.832 922.79 278.055 C 932.048 278.338 938.625 277.722 948.42 277.106 C 979.798 275.134 1011.377 269.525 1040.867 258.12 C 1083.906 241.476 1125.552 218.571 1170.845 210.655 C 1189.397 207.411 1208.242 215.325 1226.681 219.199 C 1232.456 220.412 1239.864 220.775 1243.157 225.843 C 1250.758 237.548 1251.964 250.659 1256.886 263.816 C 1259.902 271.873 1263.791 281.452 1266.956 289.447 C 1271.517 300.981 1276.375 312.397 1281.6 323.624 C 1283.153 326.958 1287.574 331.244 1285.261 334.065 C 1268.29 354.774 1238.394 369.559 1217.527 382.48 C 1204.947 390.27 1192.956 399.12 1179.999 406.213 C 1142.207 426.898 1096.003 434.932 1053.682 428.049 C 1041.914 426.133 1016.11 420.022 1007.917 413.809 C 994.222 403.421 986.399 402.582 972.219 392.923 C 965.822 388.566 958.122 386.735 951.166 383.429 C 926.881 371.885 902.104 361.405 875.193 358.746 C 865.454 357.785 855.684 357.073 845.903 356.847 C 844.254 356.81 826.836 360.287 823.934 356.847 C 815.168 346.458 850.933 305.776 892.584 285.651 Z" transform="matrix(0, 0.9999999999999999, -0.9999999999999999, 0, 1374.434814453125, -734.0830688476562)">
    <title>Left wing top</title>
  </path>
  <text style="white-space: pre; fill: rgb(51, 51, 51); font-family: Arial, sans-serif; font-size: 19.3px;" x="932.071" y="188.207" transform="matrix(0, 1.3023090362548828, -1.3506580591201782, 0, 1308.6861572265625, -883.5679321289062)"><title>Left wing top text</title>Left Wing Top</text>
  <path style="fill: rgb(216, 216, 216); stroke: rgb(0, 0, 0);" d="M 635.633 343.965 C 642.276 347.175 658.513 351.783 665.838 351.559 C 675.096 351.276 681.673 351.893 691.468 352.509 C 722.846 354.481 754.426 360.089 783.916 371.495 C 826.955 388.138 868.6 411.043 913.894 418.961 C 932.447 422.204 951.291 414.291 969.729 410.417 C 975.504 409.204 982.912 408.84 986.205 403.771 C 993.807 392.067 995.013 378.956 999.935 365.799 C 1002.95 357.742 1006.84 348.163 1010.004 340.168 C 1014.566 328.633 1019.423 317.218 1024.649 305.993 C 1026.202 302.657 1030.622 298.371 1028.31 295.549 C 1011.339 274.842 981.443 260.056 960.575 247.134 C 947.995 239.345 936.004 230.494 923.047 223.401 C 885.257 202.716 839.051 194.683 796.731 201.568 C 784.962 203.481 759.159 209.593 750.965 215.807 C 737.272 226.195 729.449 227.034 715.268 236.693 C 708.871 241.05 701.17 242.879 694.215 246.185 C 669.929 257.73 645.153 268.21 618.241 270.868 C 608.503 271.83 598.732 272.541 588.952 272.766 C 587.303 272.805 569.884 269.327 566.982 272.766 C 558.217 283.157 593.982 323.838 635.633 343.965 Z" transform="matrix(0, 0.9999999999999999, -0.9999999999999999, 0, 1106.7471923828125, -487.8675842285156)">
    <title>Left wing bottom</title>
  </path>
  <text style="white-space: pre; fill: rgb(51, 51, 51); font-family: Arial, sans-serif; font-size: 19.3px;" x="907.934" y="394.399" transform="matrix(0, 1.3023090362548828, -1.3506580591201782, 0, 1321.3388671875, -902.5418701171875)"><title>Left wing bottom text</title>Left Wing Bottom</text>
</svg>