<?xml version="1.0" encoding="utf-8"?>
<svg viewBox="0 850 605 800" xmlns="http://www.w3.org/2000/svg">
  <path style="stroke: rgb(0, 0, 0); fill: rgb(216, 216, 216);" d="M -204.228 1236.31 C -204.298 1228.131 -168.978 1216.607 -153.43 1210.935 C -142.896 1207.092 -107.99 1202.06 -96.644 1200.87 C -85.297 1199.679 -58.762 1196.725 -49.163 1197.989 C -32.545 1200.18 -30.795 1196.537 -2.024 1200.255 C 26.748 1203.972 45.459 1206.166 65.375 1209.998 C 84.619 1213.7 111.891 1218.325 127.528 1217.458 C 143.169 1216.591 162.423 1217.018 185.281 1211.266 C 205.521 1206.174 218.325 1203.074 230.744 1194.46 C 243.163 1185.847 260.693 1175.294 281.443 1173.107 C 301.361 1171.008 317.905 1183.126 324.756 1191.847 C 331.606 1200.569 346.792 1205.581 355.592 1211.365 C 367.039 1218.89 423.516 1230.903 431.04 1236.31 C 424.905 1241.715 368.428 1253.728 356.983 1261.252 C 348.183 1267.035 332.997 1272.049 326.147 1280.771 C 319.296 1289.49 302.751 1301.609 282.832 1299.509 C 262.083 1297.323 244.552 1286.771 232.135 1278.157 C 219.716 1269.543 206.912 1266.444 186.672 1261.35 C 163.814 1255.599 144.56 1256.026 128.918 1255.158 C 113.282 1254.291 86.01 1258.917 66.765 1262.619 C 46.849 1266.45 28.138 1268.645 -0.634 1272.361 C -29.406 1276.081 -31.154 1272.437 -47.773 1274.627 C -57.373 1275.894 -83.907 1272.937 -95.253 1271.747 C -106.6 1270.557 -141.506 1265.525 -152.04 1261.682 C -167.588 1256.01 -204.298 1244.487 -204.228 1236.31 Z" transform="matrix(0, 0.9999999999999999, -0.9999999999999999, 0, 1334.9166259765625, 1137.69970703125)">
    <title>Top (new)</title>
  </path>
  <path style="stroke: rgb(0, 0, 0); fill: rgb(216, 216, 216);" d="M 776.797 1238.67 C 768.822 1241.425 730.09 1247.67 721.567 1258.316 C 718.783 1261.793 710.446 1267.662 708.331 1270.59 C 702.132 1279.169 696.533 1283.451 690.739 1285.076 C 685.871 1286.441 676.361 1286.692 668.929 1287.606 C 660.68 1288.621 644.914 1283.02 639.219 1279.016 C 627.689 1270.913 612.513 1265.269 597.29 1270.549 C 584.504 1274.982 560.064 1282.934 551 1285.438 C 538.887 1288.784 498.706 1303.408 480.931 1309.169 C 453.967 1317.908 429.723 1321.779 415.466 1324.468 C 402.222 1326.966 389.763 1330.223 372.225 1338.152 C 360.999 1343.226 348.19 1346.439 339.873 1360.431 C 332.356 1373.08 330.107 1394.056 316.106 1398.846 C 307.433 1398.813 298.927 1374.311 298.264 1372.633 C 290.21 1352.252 276.102 1349.606 266.802 1344.821 C 261.359 1342.019 259.574 1339.857 250.81 1337.486 C 243.097 1335.401 242.865 1334.178 233.169 1331.401 C 223.472 1328.624 210.403 1325.065 204.314 1322.472 C 196.897 1319.315 184.069 1314.23 169.259 1308.517 C 154.449 1302.805 146.631 1300.063 135.162 1290.958 C 126.354 1283.962 118.88 1281.248 110.514 1274.533 C 102.15 1267.819 102.803 1269.807 90.588 1262.715 C 84.387 1259.117 71.525 1253.439 68.356 1251.701 C 65.188 1249.961 50.22 1246.984 44.566 1238.67 C 50.22 1230.357 65.188 1227.38 68.356 1225.639 C 71.525 1223.899 84.387 1218.224 90.588 1214.625 C 102.803 1207.534 102.15 1209.52 110.514 1202.806 C 118.88 1196.091 126.354 1193.378 135.162 1186.383 C 146.631 1177.277 154.449 1174.534 169.259 1168.822 C 184.069 1163.11 196.897 1158.024 204.314 1154.867 C 210.403 1152.274 223.472 1148.716 233.169 1145.939 C 242.865 1143.163 243.097 1141.938 250.81 1139.853 C 259.574 1137.483 261.359 1135.32 266.802 1132.518 C 276.102 1127.733 290.21 1125.087 298.264 1104.706 C 298.927 1103.028 307.433 1078.526 316.106 1078.494 C 330.107 1083.283 332.356 1104.259 339.873 1116.908 C 348.19 1130.901 360.999 1134.113 372.225 1139.189 C 389.763 1147.117 402.222 1150.372 415.466 1152.871 C 429.723 1155.561 453.967 1159.432 480.931 1168.171 C 498.706 1173.932 538.887 1188.555 551 1191.901 C 560.064 1194.406 584.504 1202.357 597.29 1206.791 C 612.513 1212.069 627.689 1206.426 639.219 1198.323 C 644.914 1194.319 660.68 1188.717 668.929 1189.733 C 676.361 1190.647 685.871 1190.898 690.739 1192.264 C 696.533 1193.889 702.132 1198.171 708.331 1206.75 C 710.446 1209.677 718.783 1215.546 721.567 1219.023 C 730.09 1229.67 768.822 1235.914 776.797 1238.67 Z" transform="matrix(0, 0.9999999999999999, -0.9999999999999999, 0, 1639.1279296875, 838.2119750976561)">
    <title>Bottom (new)</title>
  </path>
</svg>