<?xml version="1.0" encoding="utf-8"?>
<svg viewBox="1290 0 560 800" xmlns="http://www.w3.org/2000/svg">
  <path style="fill: rgb(216, 216, 216); stroke: rgb(0, 0, 0);" d="M 1544.193 298.012 C 1550.836 294.801 1567.073 290.193 1574.398 290.417 C 1583.657 290.7 1590.233 290.083 1600.028 289.469 C 1631.408 287.496 1662.986 281.887 1692.476 270.481 C 1735.515 253.838 1777.16 230.934 1822.455 223.016 C 1841.007 219.773 1859.851 227.687 1878.289 231.56 C 1884.064 232.773 1891.473 233.136 1894.765 238.205 C 1902.367 249.911 1903.573 263.021 1908.496 276.177 C 1911.51 284.234 1915.4 293.814 1918.564 301.809 C 1923.126 313.342 1927.983 324.758 1933.209 335.985 C 1934.762 339.319 1939.184 343.605 1936.87 346.427 C 1919.899 367.136 1890.003 381.921 1869.137 394.842 C 1856.555 402.631 1844.564 411.482 1831.607 418.575 C 1793.818 439.261 1747.611 447.295 1705.291 440.41 C 1693.522 438.495 1667.719 432.383 1659.525 426.17 C 1645.832 415.782 1638.009 414.943 1623.828 405.285 C 1617.431 400.927 1609.731 399.097 1602.775 395.791 C 1578.489 384.247 1553.713 373.766 1526.801 371.108 C 1517.064 370.147 1507.292 369.435 1497.512 369.21 C 1495.863 369.171 1478.444 372.649 1475.543 369.21 C 1466.777 358.819 1502.542 318.138 1544.193 298.012 Z" transform="matrix(0, -0.9999999999999999, 0.9999999999999999, 0, 1373.3304443359375, 2038.40576171875)">
    <title>Right wing top</title>
  </path>
  <text style="white-space: pre; fill: rgb(51, 51, 51); font-family: Arial, sans-serif; font-size: 19.3px;" x="1348.674" y="198.003" transform="matrix(0, 1.3023090362548828, -1.3506580591201782, 0, 1968.5078125, -1594.5137939453125)"><title>Right wing top text</title>Right Wing Top</text>
  <path style="fill: rgb(216, 216, 216); stroke: rgb(0, 0, 0);" d="M 1274.841 359.532 C 1281.484 362.744 1297.721 367.352 1305.048 367.128 C 1314.306 366.845 1320.882 367.461 1330.677 368.077 C 1362.056 370.049 1393.634 375.659 1423.125 387.063 C 1466.164 403.707 1507.81 426.612 1553.104 434.529 C 1571.654 437.772 1590.499 429.859 1608.939 425.984 C 1614.712 424.771 1622.122 424.409 1625.414 419.34 C 1633.015 407.635 1634.223 394.524 1639.144 381.368 C 1642.16 373.31 1646.049 363.731 1649.212 355.736 C 1653.774 344.202 1658.632 332.786 1663.858 321.559 C 1665.411 318.225 1669.832 313.939 1667.519 311.118 C 1650.548 290.411 1620.652 275.624 1599.785 262.703 C 1587.205 254.913 1575.214 246.063 1562.256 238.97 C 1524.465 218.285 1478.26 210.251 1435.939 217.135 C 1424.171 219.05 1398.369 225.161 1390.174 231.376 C 1376.481 241.764 1368.657 242.601 1354.477 252.26 C 1348.079 256.617 1340.379 258.448 1333.424 261.754 C 1309.139 273.299 1284.362 283.778 1257.451 286.437 C 1247.712 287.398 1237.94 288.11 1228.16 288.336 C 1226.511 288.373 1209.093 284.896 1206.192 288.336 C 1197.426 298.725 1233.19 339.407 1274.841 359.532 Z" transform="matrix(0, -0.9999999999999999, 0.9999999999999999, 0, 1111.50927734375, 1761.524658203125)">
    <title>Right wing bottom</title>
  </path>
  <text style="white-space: pre; fill: rgb(51, 51, 51); font-family: Arial, sans-serif; font-size: 19.3px;" x="1357.639" y="399.368" transform="matrix(0, 1.3023090362548828, -1.3506580591201782, 0, 1986.37890625, -1604.8892822265625)"><title>Right wing bottom text</title>Right Wing Bottom</text>
</svg>