<?xml version="1.0" encoding="utf-8"?>
<svg viewBox="650 850 560 800" xmlns="http://www.w3.org/2000/svg">
  <path style="fill: rgb(216, 216, 216); stroke: rgb(0, 0, 0);" d="M 1088.976 1213.167 C 1074.204 1200.891 1041.74 1166.675 1030.217 1154.99 C 1017.248 1141.838 993.099 1134.42 984.465 1133.97 C 955.802 1132.479 912.225 1139.285 884.368 1147.055 C 853.397 1155.693 833.822 1155.384 819.331 1150.549 C 811.724 1148.009 802.955 1141.371 800.935 1137.09 C 798.079 1131.037 794.314 1112.211 793.191 1105.689 C 791.231 1094.309 790.887 1075.414 790.934 1073.251 C 790.887 1071.087 791.231 1052.191 793.191 1040.811 C 794.314 1034.288 798.079 1015.463 800.935 1009.41 C 802.955 1005.13 811.724 998.492 819.331 995.952 C 833.822 991.116 853.397 990.807 884.368 999.446 C 912.225 1007.215 955.802 1014.021 984.465 1012.531 C 993.099 1012.081 1017.248 1004.662 1030.217 991.51 C 1041.74 979.824 1074.204 945.609 1088.976 933.334 C 1087.791 968.243 1088.902 1046.567 1088.316 1073.771 C 1088.902 1100.975 1087.791 1178.258 1088.976 1213.167 Z" transform="matrix(0.9999999999999999, 0, 0, 0.9999999999999999, -1.1368683772161603e-13, 0)"/>
  <path style="fill: rgb(216, 216, 216); stroke: rgb(0, 0, 0);" d="M 1086.644 1597.961 C 1071.872 1585.685 1039.407 1551.47 1027.885 1539.784 C 1014.916 1526.633 990.767 1519.214 982.133 1518.764 C 953.47 1517.273 909.893 1524.08 882.036 1531.849 C 851.064 1540.487 831.49 1540.179 816.999 1535.343 C 809.391 1532.803 800.623 1526.165 798.603 1521.884 C 795.747 1515.831 791.982 1497.006 790.859 1490.483 C 788.899 1479.104 788.554 1460.208 788.602 1458.045 C 788.554 1455.881 788.899 1436.986 790.859 1425.606 C 791.982 1419.083 795.747 1400.257 798.603 1394.204 C 800.623 1389.924 809.391 1383.286 816.999 1380.746 C 831.49 1375.911 851.064 1375.601 882.036 1384.24 C 909.893 1392.009 953.47 1398.815 982.133 1397.325 C 990.767 1396.875 1014.916 1389.456 1027.885 1376.305 C 1039.407 1364.619 1071.872 1330.403 1086.644 1318.128 C 1085.459 1353.037 1086.57 1431.361 1085.984 1458.566 C 1086.57 1485.769 1085.459 1563.052 1086.644 1597.961 Z" transform="matrix(0.9999999999999999, 0, 0, 0.9999999999999999, -1.1368683772161603e-13, 0)"/>
</svg>