<?xml version="1.0" encoding="utf-8"?>
<svg viewBox="0 0 605 800" xmlns="http://www.w3.org/2000/svg">
  <path style="fill: rgb(216, 216, 216); stroke: rgb(0, 0, 0);" d="M 364.99 412.335 C 378.395 405.164 377.322 375.666 380.34 368.798 C 383.363 361.936 387.58 349.78 394.246 343.092 C 407.566 329.73 415.465 325.196 431.58 314.284 C 447.696 303.373 454.59 294.574 465.675 281.951 C 473.246 273.329 488.317 261.969 495.405 252.447 C 502.49 242.922 506.861 233.023 513.484 223.261 C 519.512 214.374 524.166 197.18 527.688 188.429 C 531.208 179.677 534.185 165.87 539.142 155.719 C 546.529 140.595 548.57 123.946 558.463 112.421 C 568.353 100.901 584.986 59.775 593.308 47.178 C 598.815 38.844 626.739 20.192 635.908 13.381 C 645.077 6.57 603.346 16.412 581.418 15.337 C 570.935 14.822 557.68 5.628 547.089 6.641 C 536.501 7.651 521.99 3.998 511.924 7.3 C 481.037 17.438 468.886 39.092 459.098 62.248 C 449.309 85.402 441.88 110.057 420.439 126.194 C 407.733 135.758 394.471 144.585 380.891 152.927 C 367.313 161.272 353.418 169.133 339.449 176.76 C 313.403 190.979 284.293 198.817 254.959 206.185 C 225.625 213.553 196.064 220.448 169.126 232.789 C 160.175 236.888 151.927 240.052 141.986 244.527 C 132.043 249.004 108.668 259.172 116.864 256.036 C 125.602 252.691 97.885 263.499 90.913 267.066 C 83.942 270.629 68.189 276.985 70.07 278.96 C 85.385 295.024 113.414 292.346 125.75 298.318 C 138.082 304.29 150.586 305.384 168.025 310.527 C 191.43 317.428 197.422 320.72 209.451 323.585 C 221.481 326.452 229.309 327.74 247.099 334.145 C 261.671 339.389 268.217 333.235 287.929 343.695 C 305.481 353.006 305.873 355.745 317.122 364.772 C 326.634 372.401 331.299 384.851 340.542 397.023 C 349.788 409.199 352.655 418.932 364.99 412.335 Z" transform="matrix(-0.49999999999999994, -0.8660250306129456, 0.8660250306129456, -0.49999999999999994, 340.03219604492176, 616.6694335937499)">
    <title>Right</title>
  </path>
  <path style="fill: rgb(216, 216, 216); stroke: rgb(0, 0, 0);" d="M 307.734 329.312 C 321.139 336.483 320.066 365.981 323.084 372.849 C 326.107 379.711 330.324 391.867 336.99 398.555 C 350.31 411.917 358.209 416.451 374.324 427.363 C 390.44 438.274 397.334 447.073 408.419 459.696 C 415.99 468.318 431.061 479.678 438.149 489.2 C 445.234 498.725 449.605 508.624 456.228 518.386 C 462.256 527.273 466.91 544.467 470.432 553.218 C 473.952 561.97 476.929 575.777 481.886 585.928 C 489.273 601.052 491.314 617.701 501.207 629.226 C 511.097 640.746 527.73 681.872 536.052 694.469 C 541.559 702.803 569.483 721.455 578.652 728.266 C 587.821 735.077 546.09 725.235 524.162 726.31 C 513.679 726.825 500.424 736.019 489.833 735.006 C 479.245 733.996 464.734 737.649 454.668 734.347 C 423.781 724.209 411.63 702.555 401.842 679.399 C 392.053 656.245 384.624 631.59 363.183 615.453 C 350.477 605.889 337.215 597.062 323.635 588.72 C 310.057 580.375 296.162 572.514 282.193 564.887 C 256.147 550.668 227.037 542.83 197.703 535.462 C 168.369 528.094 138.808 521.199 111.87 508.858 C 102.919 504.759 94.671 501.595 84.73 497.12 C 74.787 492.643 51.412 482.475 59.608 485.611 C 68.346 488.956 40.629 478.148 33.657 474.581 C 26.686 471.018 10.933 464.662 12.814 462.687 C 28.129 446.623 56.158 449.301 68.494 443.329 C 80.826 437.357 93.33 436.263 110.769 431.12 C 134.174 424.219 140.166 420.927 152.195 418.062 C 164.225 415.195 172.053 413.907 189.843 407.502 C 204.415 402.258 210.961 408.412 230.673 397.952 C 248.225 388.641 248.617 385.902 259.866 376.875 C 269.378 369.246 274.043 356.796 283.286 344.624 C 292.532 332.448 295.399 322.715 307.734 329.312 Z" transform="matrix(-0.9999999999999999, 0, 0, -0.9999999999999999, 592.6071777343749, 1062.9422607421875)">
    <title>Right</title>
  </path>
</svg>